G04 MADE WITH FRITZING*
G04 WWW.FRITZING.ORG*
G04 DOUBLE SIDED*
G04 HOLES PLATED*
G04 CONTOUR ON CENTER OF CONTOUR VECTOR*
%ASAXBY*%
%FSLAX23Y23*%
%MOIN*%
%OFA0B0*%
%SFA1.0B1.0*%
%ADD10C,0.092000*%
%ADD11C,0.074291*%
%ADD12C,0.138425*%
%ADD13C,0.070000*%
%ADD14C,0.130151*%
%ADD15C,0.039370*%
%ADD16R,0.092000X0.092000*%
%ADD17C,0.024000*%
%ADD18R,0.001000X0.001000*%
%LNCOPPER1*%
G90*
G70*
G54D10*
X1631Y1200D03*
X1631Y900D03*
G54D11*
X931Y999D03*
X931Y1100D03*
X931Y1200D03*
X931Y1300D03*
X931Y1401D03*
X931Y1501D03*
G54D12*
X131Y850D03*
G54D13*
X631Y1500D03*
X631Y1400D03*
X631Y1300D03*
X631Y1200D03*
X631Y1100D03*
X631Y1000D03*
X631Y900D03*
X631Y800D03*
G54D12*
X131Y1450D03*
X131Y850D03*
G54D13*
X631Y1500D03*
X631Y1400D03*
X631Y1300D03*
X631Y1200D03*
X631Y1100D03*
X631Y1000D03*
X631Y900D03*
X631Y800D03*
G54D12*
X131Y1450D03*
G54D13*
X1031Y700D03*
X1031Y600D03*
X1031Y500D03*
X1031Y400D03*
X1031Y300D03*
G54D14*
X1578Y348D03*
X1578Y669D03*
G54D13*
X1031Y700D03*
X1031Y600D03*
X1031Y500D03*
X1031Y400D03*
X1031Y300D03*
G54D14*
X1578Y348D03*
X1578Y669D03*
G54D15*
X1020Y1347D03*
X1308Y1035D03*
X780Y1131D03*
X1531Y1300D03*
G54D16*
X1631Y1200D03*
G54D17*
X1401Y730D02*
X1068Y1059D01*
X1068Y1059D02*
X948Y1059D01*
X948Y1059D02*
X943Y1071D01*
D02*
X1008Y521D02*
X708Y795D01*
X708Y795D02*
X708Y1035D01*
X708Y1035D02*
X655Y1080D01*
D02*
X956Y1281D02*
X996Y1251D01*
X996Y1251D02*
X996Y1107D01*
X996Y1107D02*
X1140Y1107D01*
X1140Y1107D02*
X1402Y831D01*
D02*
X1008Y620D02*
X756Y843D01*
X756Y843D02*
X756Y1083D01*
X756Y1083D02*
X654Y1179D01*
D02*
X772Y1114D02*
X756Y1083D01*
D02*
X1294Y1048D02*
X1032Y1299D01*
X1032Y1299D02*
X1025Y1328D01*
D02*
X1469Y1482D02*
X1500Y1467D01*
X1500Y1467D02*
X1528Y1319D01*
D02*
X956Y980D02*
X1398Y627D01*
D02*
X1594Y900D02*
X1473Y900D01*
D02*
X902Y1391D02*
X660Y1310D01*
D02*
X1060Y388D02*
X1404Y243D01*
X1404Y243D02*
X1408Y236D01*
D02*
X1393Y119D02*
X1059Y286D01*
D02*
X953Y1479D02*
X1401Y1030D01*
D02*
X662Y1500D02*
X900Y1501D01*
D02*
X1594Y1200D02*
X1473Y1200D01*
G54D18*
X330Y1540D02*
X332Y1540D01*
X1429Y1540D02*
X1432Y1540D01*
X323Y1539D02*
X339Y1539D01*
X1422Y1539D02*
X1438Y1539D01*
X320Y1538D02*
X343Y1538D01*
X1419Y1538D02*
X1442Y1538D01*
X317Y1537D02*
X345Y1537D01*
X1416Y1537D02*
X1445Y1537D01*
X315Y1536D02*
X347Y1536D01*
X1414Y1536D02*
X1447Y1536D01*
X313Y1535D02*
X349Y1535D01*
X1412Y1535D02*
X1449Y1535D01*
X311Y1534D02*
X351Y1534D01*
X1410Y1534D02*
X1450Y1534D01*
X309Y1533D02*
X353Y1533D01*
X1409Y1533D02*
X1452Y1533D01*
X308Y1532D02*
X354Y1532D01*
X1407Y1532D02*
X1453Y1532D01*
X307Y1531D02*
X355Y1531D01*
X1406Y1531D02*
X1455Y1531D01*
X305Y1530D02*
X357Y1530D01*
X1405Y1530D02*
X1456Y1530D01*
X304Y1529D02*
X358Y1529D01*
X1404Y1529D02*
X1457Y1529D01*
X303Y1528D02*
X359Y1528D01*
X1403Y1528D02*
X1458Y1528D01*
X303Y1527D02*
X360Y1527D01*
X1402Y1527D02*
X1459Y1527D01*
X302Y1526D02*
X360Y1526D01*
X1401Y1526D02*
X1460Y1526D01*
X301Y1525D02*
X361Y1525D01*
X1400Y1525D02*
X1461Y1525D01*
X300Y1524D02*
X362Y1524D01*
X1400Y1524D02*
X1461Y1524D01*
X299Y1523D02*
X363Y1523D01*
X1399Y1523D02*
X1462Y1523D01*
X299Y1522D02*
X363Y1522D01*
X1398Y1522D02*
X1463Y1522D01*
X298Y1521D02*
X364Y1521D01*
X1398Y1521D02*
X1463Y1521D01*
X298Y1520D02*
X329Y1520D01*
X333Y1520D02*
X364Y1520D01*
X1397Y1520D02*
X1428Y1520D01*
X1433Y1520D02*
X1464Y1520D01*
X297Y1519D02*
X324Y1519D01*
X338Y1519D02*
X365Y1519D01*
X1397Y1519D02*
X1423Y1519D01*
X1438Y1519D02*
X1464Y1519D01*
X297Y1518D02*
X322Y1518D01*
X340Y1518D02*
X365Y1518D01*
X1396Y1518D02*
X1421Y1518D01*
X1440Y1518D02*
X1465Y1518D01*
X296Y1517D02*
X320Y1517D01*
X342Y1517D02*
X366Y1517D01*
X1396Y1517D02*
X1419Y1517D01*
X1441Y1517D02*
X1465Y1517D01*
X296Y1516D02*
X319Y1516D01*
X343Y1516D02*
X366Y1516D01*
X1395Y1516D02*
X1418Y1516D01*
X1443Y1516D02*
X1466Y1516D01*
X295Y1515D02*
X318Y1515D01*
X344Y1515D02*
X367Y1515D01*
X1395Y1515D02*
X1417Y1515D01*
X1444Y1515D02*
X1466Y1515D01*
X295Y1514D02*
X317Y1514D01*
X345Y1514D02*
X367Y1514D01*
X1394Y1514D02*
X1416Y1514D01*
X1445Y1514D02*
X1466Y1514D01*
X295Y1513D02*
X316Y1513D01*
X346Y1513D02*
X367Y1513D01*
X1394Y1513D02*
X1415Y1513D01*
X1446Y1513D02*
X1467Y1513D01*
X294Y1512D02*
X315Y1512D01*
X347Y1512D02*
X368Y1512D01*
X1394Y1512D02*
X1414Y1512D01*
X1447Y1512D02*
X1467Y1512D01*
X294Y1511D02*
X314Y1511D01*
X348Y1511D02*
X368Y1511D01*
X1393Y1511D02*
X1414Y1511D01*
X1447Y1511D02*
X1467Y1511D01*
X294Y1510D02*
X314Y1510D01*
X348Y1510D02*
X368Y1510D01*
X1393Y1510D02*
X1413Y1510D01*
X1448Y1510D02*
X1468Y1510D01*
X294Y1509D02*
X313Y1509D01*
X349Y1509D02*
X368Y1509D01*
X1393Y1509D02*
X1412Y1509D01*
X1448Y1509D02*
X1468Y1509D01*
X293Y1508D02*
X313Y1508D01*
X349Y1508D02*
X369Y1508D01*
X1393Y1508D02*
X1412Y1508D01*
X1449Y1508D02*
X1468Y1508D01*
X293Y1507D02*
X312Y1507D01*
X350Y1507D02*
X369Y1507D01*
X1393Y1507D02*
X1412Y1507D01*
X1449Y1507D02*
X1468Y1507D01*
X293Y1506D02*
X312Y1506D01*
X350Y1506D02*
X369Y1506D01*
X1392Y1506D02*
X1412Y1506D01*
X1449Y1506D02*
X1468Y1506D01*
X293Y1505D02*
X312Y1505D01*
X350Y1505D02*
X369Y1505D01*
X1392Y1505D02*
X1411Y1505D01*
X1450Y1505D02*
X1469Y1505D01*
X293Y1504D02*
X312Y1504D01*
X350Y1504D02*
X369Y1504D01*
X1392Y1504D02*
X1411Y1504D01*
X1450Y1504D02*
X1469Y1504D01*
X293Y1503D02*
X312Y1503D01*
X350Y1503D02*
X369Y1503D01*
X1392Y1503D02*
X1411Y1503D01*
X1450Y1503D02*
X1469Y1503D01*
X293Y1502D02*
X312Y1502D01*
X350Y1502D02*
X369Y1502D01*
X1392Y1502D02*
X1411Y1502D01*
X1450Y1502D02*
X1469Y1502D01*
X293Y1501D02*
X312Y1501D01*
X350Y1501D02*
X369Y1501D01*
X1392Y1501D02*
X1411Y1501D01*
X1450Y1501D02*
X1469Y1501D01*
X293Y1500D02*
X312Y1500D01*
X350Y1500D02*
X369Y1500D01*
X1392Y1500D02*
X1411Y1500D01*
X1450Y1500D02*
X1469Y1500D01*
X293Y1499D02*
X312Y1499D01*
X350Y1499D02*
X369Y1499D01*
X1392Y1499D02*
X1411Y1499D01*
X1450Y1499D02*
X1469Y1499D01*
X293Y1498D02*
X312Y1498D01*
X350Y1498D02*
X369Y1498D01*
X1392Y1498D02*
X1411Y1498D01*
X1450Y1498D02*
X1469Y1498D01*
X293Y1497D02*
X312Y1497D01*
X350Y1497D02*
X369Y1497D01*
X1392Y1497D02*
X1411Y1497D01*
X1449Y1497D02*
X1469Y1497D01*
X293Y1496D02*
X312Y1496D01*
X350Y1496D02*
X369Y1496D01*
X1392Y1496D02*
X1412Y1496D01*
X1449Y1496D02*
X1468Y1496D01*
X293Y1495D02*
X313Y1495D01*
X350Y1495D02*
X369Y1495D01*
X1393Y1495D02*
X1412Y1495D01*
X1449Y1495D02*
X1468Y1495D01*
X293Y1494D02*
X313Y1494D01*
X349Y1494D02*
X369Y1494D01*
X1393Y1494D02*
X1412Y1494D01*
X1449Y1494D02*
X1468Y1494D01*
X294Y1493D02*
X313Y1493D01*
X349Y1493D02*
X368Y1493D01*
X1393Y1493D02*
X1413Y1493D01*
X1448Y1493D02*
X1468Y1493D01*
X294Y1492D02*
X314Y1492D01*
X348Y1492D02*
X368Y1492D01*
X1393Y1492D02*
X1413Y1492D01*
X1448Y1492D02*
X1468Y1492D01*
X294Y1491D02*
X314Y1491D01*
X348Y1491D02*
X368Y1491D01*
X1394Y1491D02*
X1414Y1491D01*
X1447Y1491D02*
X1467Y1491D01*
X294Y1490D02*
X315Y1490D01*
X347Y1490D02*
X368Y1490D01*
X1394Y1490D02*
X1415Y1490D01*
X1446Y1490D02*
X1467Y1490D01*
X295Y1489D02*
X316Y1489D01*
X346Y1489D02*
X367Y1489D01*
X1394Y1489D02*
X1415Y1489D01*
X1445Y1489D02*
X1467Y1489D01*
X295Y1488D02*
X317Y1488D01*
X345Y1488D02*
X367Y1488D01*
X1395Y1488D02*
X1416Y1488D01*
X1444Y1488D02*
X1466Y1488D01*
X296Y1487D02*
X318Y1487D01*
X344Y1487D02*
X367Y1487D01*
X1395Y1487D02*
X1417Y1487D01*
X1443Y1487D02*
X1466Y1487D01*
X296Y1486D02*
X319Y1486D01*
X343Y1486D02*
X366Y1486D01*
X1395Y1486D02*
X1419Y1486D01*
X1442Y1486D02*
X1466Y1486D01*
X296Y1485D02*
X320Y1485D01*
X342Y1485D02*
X366Y1485D01*
X1396Y1485D02*
X1420Y1485D01*
X1441Y1485D02*
X1465Y1485D01*
X297Y1484D02*
X322Y1484D01*
X340Y1484D02*
X365Y1484D01*
X1396Y1484D02*
X1422Y1484D01*
X1439Y1484D02*
X1465Y1484D01*
X297Y1483D02*
X325Y1483D01*
X337Y1483D02*
X365Y1483D01*
X1397Y1483D02*
X1424Y1483D01*
X1437Y1483D02*
X1464Y1483D01*
X298Y1482D02*
X364Y1482D01*
X1397Y1482D02*
X1464Y1482D01*
X298Y1481D02*
X364Y1481D01*
X1398Y1481D02*
X1463Y1481D01*
X299Y1480D02*
X363Y1480D01*
X1398Y1480D02*
X1462Y1480D01*
X300Y1479D02*
X362Y1479D01*
X1399Y1479D02*
X1462Y1479D01*
X300Y1478D02*
X362Y1478D01*
X1400Y1478D02*
X1461Y1478D01*
X301Y1477D02*
X361Y1477D01*
X1401Y1477D02*
X1460Y1477D01*
X302Y1476D02*
X360Y1476D01*
X1401Y1476D02*
X1459Y1476D01*
X303Y1475D02*
X359Y1475D01*
X1402Y1475D02*
X1459Y1475D01*
X304Y1474D02*
X358Y1474D01*
X1403Y1474D02*
X1458Y1474D01*
X305Y1473D02*
X357Y1473D01*
X1404Y1473D02*
X1457Y1473D01*
X306Y1472D02*
X356Y1472D01*
X1405Y1472D02*
X1456Y1472D01*
X307Y1471D02*
X355Y1471D01*
X1406Y1471D02*
X1454Y1471D01*
X308Y1470D02*
X354Y1470D01*
X1408Y1470D02*
X1453Y1470D01*
X310Y1469D02*
X352Y1469D01*
X1409Y1469D02*
X1452Y1469D01*
X312Y1468D02*
X351Y1468D01*
X1411Y1468D02*
X1450Y1468D01*
X313Y1467D02*
X349Y1467D01*
X1413Y1467D02*
X1448Y1467D01*
X315Y1466D02*
X347Y1466D01*
X1415Y1466D02*
X1446Y1466D01*
X318Y1465D02*
X344Y1465D01*
X1417Y1465D02*
X1444Y1465D01*
X321Y1464D02*
X341Y1464D01*
X1420Y1464D02*
X1441Y1464D01*
X325Y1463D02*
X337Y1463D01*
X1424Y1463D02*
X1437Y1463D01*
X329Y1440D02*
X333Y1440D01*
X1428Y1440D02*
X1432Y1440D01*
X323Y1439D02*
X339Y1439D01*
X1422Y1439D02*
X1439Y1439D01*
X319Y1438D02*
X343Y1438D01*
X1419Y1438D02*
X1442Y1438D01*
X317Y1437D02*
X345Y1437D01*
X1416Y1437D02*
X1445Y1437D01*
X315Y1436D02*
X347Y1436D01*
X1414Y1436D02*
X1447Y1436D01*
X313Y1435D02*
X350Y1435D01*
X1412Y1435D02*
X1449Y1435D01*
X311Y1434D02*
X351Y1434D01*
X1410Y1434D02*
X1451Y1434D01*
X309Y1433D02*
X353Y1433D01*
X1409Y1433D02*
X1452Y1433D01*
X308Y1432D02*
X354Y1432D01*
X1407Y1432D02*
X1454Y1432D01*
X307Y1431D02*
X356Y1431D01*
X1406Y1431D02*
X1455Y1431D01*
X305Y1430D02*
X357Y1430D01*
X1405Y1430D02*
X1456Y1430D01*
X304Y1429D02*
X358Y1429D01*
X1404Y1429D02*
X1457Y1429D01*
X303Y1428D02*
X359Y1428D01*
X1403Y1428D02*
X1458Y1428D01*
X302Y1427D02*
X360Y1427D01*
X1402Y1427D02*
X1459Y1427D01*
X302Y1426D02*
X360Y1426D01*
X1401Y1426D02*
X1460Y1426D01*
X301Y1425D02*
X361Y1425D01*
X1400Y1425D02*
X1461Y1425D01*
X300Y1424D02*
X362Y1424D01*
X1400Y1424D02*
X1461Y1424D01*
X299Y1423D02*
X363Y1423D01*
X1399Y1423D02*
X1462Y1423D01*
X299Y1422D02*
X363Y1422D01*
X1398Y1422D02*
X1463Y1422D01*
X298Y1421D02*
X364Y1421D01*
X1398Y1421D02*
X1463Y1421D01*
X298Y1420D02*
X328Y1420D01*
X334Y1420D02*
X364Y1420D01*
X1397Y1420D02*
X1427Y1420D01*
X1434Y1420D02*
X1464Y1420D01*
X297Y1419D02*
X323Y1419D01*
X339Y1419D02*
X365Y1419D01*
X1397Y1419D02*
X1423Y1419D01*
X1438Y1419D02*
X1464Y1419D01*
X297Y1418D02*
X322Y1418D01*
X341Y1418D02*
X365Y1418D01*
X1396Y1418D02*
X1421Y1418D01*
X1440Y1418D02*
X1465Y1418D01*
X296Y1417D02*
X320Y1417D01*
X342Y1417D02*
X366Y1417D01*
X1396Y1417D02*
X1419Y1417D01*
X1442Y1417D02*
X1465Y1417D01*
X296Y1416D02*
X319Y1416D01*
X343Y1416D02*
X366Y1416D01*
X1395Y1416D02*
X1418Y1416D01*
X1443Y1416D02*
X1466Y1416D01*
X295Y1415D02*
X318Y1415D01*
X344Y1415D02*
X367Y1415D01*
X1395Y1415D02*
X1417Y1415D01*
X1444Y1415D02*
X1466Y1415D01*
X295Y1414D02*
X317Y1414D01*
X345Y1414D02*
X367Y1414D01*
X1394Y1414D02*
X1416Y1414D01*
X1445Y1414D02*
X1466Y1414D01*
X295Y1413D02*
X316Y1413D01*
X346Y1413D02*
X367Y1413D01*
X1394Y1413D02*
X1415Y1413D01*
X1446Y1413D02*
X1467Y1413D01*
X294Y1412D02*
X315Y1412D01*
X347Y1412D02*
X368Y1412D01*
X1394Y1412D02*
X1414Y1412D01*
X1447Y1412D02*
X1467Y1412D01*
X294Y1411D02*
X314Y1411D01*
X348Y1411D02*
X368Y1411D01*
X1393Y1411D02*
X1414Y1411D01*
X1447Y1411D02*
X1467Y1411D01*
X294Y1410D02*
X314Y1410D01*
X348Y1410D02*
X368Y1410D01*
X1393Y1410D02*
X1413Y1410D01*
X1448Y1410D02*
X1468Y1410D01*
X294Y1409D02*
X313Y1409D01*
X349Y1409D02*
X369Y1409D01*
X1393Y1409D02*
X1412Y1409D01*
X1448Y1409D02*
X1468Y1409D01*
X293Y1408D02*
X313Y1408D01*
X349Y1408D02*
X369Y1408D01*
X1393Y1408D02*
X1412Y1408D01*
X1449Y1408D02*
X1468Y1408D01*
X293Y1407D02*
X312Y1407D01*
X350Y1407D02*
X369Y1407D01*
X1393Y1407D02*
X1412Y1407D01*
X1449Y1407D02*
X1468Y1407D01*
X293Y1406D02*
X312Y1406D01*
X350Y1406D02*
X369Y1406D01*
X1392Y1406D02*
X1411Y1406D01*
X1449Y1406D02*
X1468Y1406D01*
X293Y1405D02*
X312Y1405D01*
X350Y1405D02*
X369Y1405D01*
X1392Y1405D02*
X1411Y1405D01*
X1450Y1405D02*
X1469Y1405D01*
X293Y1404D02*
X312Y1404D01*
X350Y1404D02*
X369Y1404D01*
X1392Y1404D02*
X1411Y1404D01*
X1450Y1404D02*
X1469Y1404D01*
X293Y1403D02*
X312Y1403D01*
X350Y1403D02*
X369Y1403D01*
X1392Y1403D02*
X1411Y1403D01*
X1450Y1403D02*
X1469Y1403D01*
X293Y1402D02*
X312Y1402D01*
X350Y1402D02*
X369Y1402D01*
X1392Y1402D02*
X1411Y1402D01*
X1450Y1402D02*
X1469Y1402D01*
X293Y1401D02*
X312Y1401D01*
X350Y1401D02*
X369Y1401D01*
X1392Y1401D02*
X1411Y1401D01*
X1450Y1401D02*
X1469Y1401D01*
X293Y1400D02*
X312Y1400D01*
X350Y1400D02*
X369Y1400D01*
X1392Y1400D02*
X1411Y1400D01*
X1450Y1400D02*
X1469Y1400D01*
X293Y1399D02*
X312Y1399D01*
X350Y1399D02*
X369Y1399D01*
X1392Y1399D02*
X1411Y1399D01*
X1450Y1399D02*
X1469Y1399D01*
X293Y1398D02*
X312Y1398D01*
X350Y1398D02*
X369Y1398D01*
X1392Y1398D02*
X1411Y1398D01*
X1450Y1398D02*
X1469Y1398D01*
X293Y1397D02*
X312Y1397D01*
X350Y1397D02*
X369Y1397D01*
X1392Y1397D02*
X1411Y1397D01*
X1449Y1397D02*
X1468Y1397D01*
X293Y1396D02*
X312Y1396D01*
X350Y1396D02*
X369Y1396D01*
X1392Y1396D02*
X1412Y1396D01*
X1449Y1396D02*
X1468Y1396D01*
X293Y1395D02*
X313Y1395D01*
X349Y1395D02*
X369Y1395D01*
X1393Y1395D02*
X1412Y1395D01*
X1449Y1395D02*
X1468Y1395D01*
X293Y1394D02*
X313Y1394D01*
X349Y1394D02*
X369Y1394D01*
X1393Y1394D02*
X1412Y1394D01*
X1449Y1394D02*
X1468Y1394D01*
X294Y1393D02*
X313Y1393D01*
X349Y1393D02*
X368Y1393D01*
X1393Y1393D02*
X1413Y1393D01*
X1448Y1393D02*
X1468Y1393D01*
X294Y1392D02*
X314Y1392D01*
X348Y1392D02*
X368Y1392D01*
X1393Y1392D02*
X1413Y1392D01*
X1448Y1392D02*
X1467Y1392D01*
X294Y1391D02*
X314Y1391D01*
X348Y1391D02*
X368Y1391D01*
X1394Y1391D02*
X1414Y1391D01*
X1447Y1391D02*
X1467Y1391D01*
X294Y1390D02*
X315Y1390D01*
X347Y1390D02*
X368Y1390D01*
X1394Y1390D02*
X1415Y1390D01*
X1446Y1390D02*
X1467Y1390D01*
X295Y1389D02*
X316Y1389D01*
X346Y1389D02*
X367Y1389D01*
X1394Y1389D02*
X1415Y1389D01*
X1445Y1389D02*
X1467Y1389D01*
X295Y1388D02*
X317Y1388D01*
X345Y1388D02*
X367Y1388D01*
X1395Y1388D02*
X1416Y1388D01*
X1444Y1388D02*
X1466Y1388D01*
X296Y1387D02*
X318Y1387D01*
X344Y1387D02*
X366Y1387D01*
X1395Y1387D02*
X1417Y1387D01*
X1443Y1387D02*
X1466Y1387D01*
X296Y1386D02*
X319Y1386D01*
X343Y1386D02*
X366Y1386D01*
X1395Y1386D02*
X1419Y1386D01*
X1442Y1386D02*
X1465Y1386D01*
X296Y1385D02*
X321Y1385D01*
X341Y1385D02*
X366Y1385D01*
X1396Y1385D02*
X1420Y1385D01*
X1441Y1385D02*
X1465Y1385D01*
X297Y1384D02*
X322Y1384D01*
X340Y1384D02*
X365Y1384D01*
X1396Y1384D02*
X1422Y1384D01*
X1439Y1384D02*
X1465Y1384D01*
X297Y1383D02*
X325Y1383D01*
X337Y1383D02*
X365Y1383D01*
X1397Y1383D02*
X1424Y1383D01*
X1436Y1383D02*
X1464Y1383D01*
X298Y1382D02*
X364Y1382D01*
X1397Y1382D02*
X1464Y1382D01*
X299Y1381D02*
X364Y1381D01*
X1398Y1381D02*
X1463Y1381D01*
X299Y1380D02*
X363Y1380D01*
X1398Y1380D02*
X1462Y1380D01*
X300Y1379D02*
X362Y1379D01*
X1399Y1379D02*
X1462Y1379D01*
X300Y1378D02*
X362Y1378D01*
X1400Y1378D02*
X1461Y1378D01*
X301Y1377D02*
X361Y1377D01*
X1401Y1377D02*
X1460Y1377D01*
X302Y1376D02*
X360Y1376D01*
X1401Y1376D02*
X1459Y1376D01*
X303Y1375D02*
X359Y1375D01*
X1402Y1375D02*
X1459Y1375D01*
X304Y1374D02*
X358Y1374D01*
X1403Y1374D02*
X1458Y1374D01*
X305Y1373D02*
X357Y1373D01*
X1404Y1373D02*
X1457Y1373D01*
X306Y1372D02*
X356Y1372D01*
X1405Y1372D02*
X1455Y1372D01*
X307Y1371D02*
X355Y1371D01*
X1407Y1371D02*
X1454Y1371D01*
X309Y1370D02*
X354Y1370D01*
X1408Y1370D02*
X1453Y1370D01*
X310Y1369D02*
X352Y1369D01*
X1409Y1369D02*
X1451Y1369D01*
X312Y1368D02*
X350Y1368D01*
X1411Y1368D02*
X1450Y1368D01*
X313Y1367D02*
X349Y1367D01*
X1413Y1367D02*
X1448Y1367D01*
X316Y1366D02*
X347Y1366D01*
X1415Y1366D02*
X1446Y1366D01*
X318Y1365D02*
X344Y1365D01*
X1417Y1365D02*
X1443Y1365D01*
X321Y1364D02*
X341Y1364D01*
X1420Y1364D02*
X1441Y1364D01*
X325Y1363D02*
X337Y1363D01*
X1424Y1363D02*
X1436Y1363D01*
X328Y1340D02*
X334Y1340D01*
X1428Y1340D02*
X1433Y1340D01*
X323Y1339D02*
X339Y1339D01*
X1422Y1339D02*
X1439Y1339D01*
X319Y1338D02*
X343Y1338D01*
X1419Y1338D02*
X1442Y1338D01*
X317Y1337D02*
X345Y1337D01*
X1416Y1337D02*
X1445Y1337D01*
X314Y1336D02*
X348Y1336D01*
X1414Y1336D02*
X1447Y1336D01*
X312Y1335D02*
X350Y1335D01*
X1412Y1335D02*
X1449Y1335D01*
X311Y1334D02*
X351Y1334D01*
X1410Y1334D02*
X1451Y1334D01*
X309Y1333D02*
X353Y1333D01*
X1409Y1333D02*
X1452Y1333D01*
X308Y1332D02*
X354Y1332D01*
X1407Y1332D02*
X1454Y1332D01*
X306Y1331D02*
X356Y1331D01*
X1406Y1331D02*
X1455Y1331D01*
X305Y1330D02*
X357Y1330D01*
X1405Y1330D02*
X1456Y1330D01*
X304Y1329D02*
X358Y1329D01*
X1404Y1329D02*
X1457Y1329D01*
X303Y1328D02*
X359Y1328D01*
X1403Y1328D02*
X1458Y1328D01*
X302Y1327D02*
X360Y1327D01*
X1402Y1327D02*
X1459Y1327D01*
X302Y1326D02*
X360Y1326D01*
X1401Y1326D02*
X1460Y1326D01*
X301Y1325D02*
X361Y1325D01*
X1400Y1325D02*
X1461Y1325D01*
X300Y1324D02*
X362Y1324D01*
X1399Y1324D02*
X1461Y1324D01*
X299Y1323D02*
X363Y1323D01*
X1399Y1323D02*
X1462Y1323D01*
X299Y1322D02*
X363Y1322D01*
X1398Y1322D02*
X1463Y1322D01*
X298Y1321D02*
X364Y1321D01*
X1398Y1321D02*
X1463Y1321D01*
X298Y1320D02*
X327Y1320D01*
X335Y1320D02*
X364Y1320D01*
X1397Y1320D02*
X1427Y1320D01*
X1434Y1320D02*
X1464Y1320D01*
X297Y1319D02*
X323Y1319D01*
X339Y1319D02*
X365Y1319D01*
X1396Y1319D02*
X1423Y1319D01*
X1438Y1319D02*
X1464Y1319D01*
X297Y1318D02*
X321Y1318D01*
X341Y1318D02*
X365Y1318D01*
X1396Y1318D02*
X1421Y1318D01*
X1440Y1318D02*
X1465Y1318D01*
X296Y1317D02*
X320Y1317D01*
X342Y1317D02*
X366Y1317D01*
X1396Y1317D02*
X1419Y1317D01*
X1442Y1317D02*
X1465Y1317D01*
X296Y1316D02*
X319Y1316D01*
X343Y1316D02*
X366Y1316D01*
X1395Y1316D02*
X1418Y1316D01*
X1443Y1316D02*
X1466Y1316D01*
X295Y1315D02*
X317Y1315D01*
X345Y1315D02*
X367Y1315D01*
X1395Y1315D02*
X1417Y1315D01*
X1444Y1315D02*
X1466Y1315D01*
X295Y1314D02*
X317Y1314D01*
X346Y1314D02*
X367Y1314D01*
X1394Y1314D02*
X1416Y1314D01*
X1445Y1314D02*
X1466Y1314D01*
X295Y1313D02*
X316Y1313D01*
X346Y1313D02*
X367Y1313D01*
X1394Y1313D02*
X1415Y1313D01*
X1446Y1313D02*
X1467Y1313D01*
X294Y1312D02*
X315Y1312D01*
X347Y1312D02*
X368Y1312D01*
X1394Y1312D02*
X1414Y1312D01*
X1447Y1312D02*
X1467Y1312D01*
X294Y1311D02*
X314Y1311D01*
X348Y1311D02*
X368Y1311D01*
X1393Y1311D02*
X1414Y1311D01*
X1447Y1311D02*
X1467Y1311D01*
X294Y1310D02*
X314Y1310D01*
X348Y1310D02*
X368Y1310D01*
X1393Y1310D02*
X1413Y1310D01*
X1448Y1310D02*
X1468Y1310D01*
X294Y1309D02*
X313Y1309D01*
X349Y1309D02*
X369Y1309D01*
X1393Y1309D02*
X1412Y1309D01*
X1448Y1309D02*
X1468Y1309D01*
X293Y1308D02*
X313Y1308D01*
X349Y1308D02*
X369Y1308D01*
X1393Y1308D02*
X1412Y1308D01*
X1449Y1308D02*
X1468Y1308D01*
X293Y1307D02*
X312Y1307D01*
X350Y1307D02*
X369Y1307D01*
X1393Y1307D02*
X1412Y1307D01*
X1449Y1307D02*
X1468Y1307D01*
X293Y1306D02*
X312Y1306D01*
X350Y1306D02*
X369Y1306D01*
X1392Y1306D02*
X1411Y1306D01*
X1449Y1306D02*
X1468Y1306D01*
X293Y1305D02*
X312Y1305D01*
X350Y1305D02*
X369Y1305D01*
X1392Y1305D02*
X1411Y1305D01*
X1450Y1305D02*
X1469Y1305D01*
X293Y1304D02*
X312Y1304D01*
X350Y1304D02*
X369Y1304D01*
X1392Y1304D02*
X1411Y1304D01*
X1450Y1304D02*
X1469Y1304D01*
X293Y1303D02*
X312Y1303D01*
X350Y1303D02*
X369Y1303D01*
X1392Y1303D02*
X1411Y1303D01*
X1450Y1303D02*
X1469Y1303D01*
X293Y1302D02*
X312Y1302D01*
X350Y1302D02*
X369Y1302D01*
X1392Y1302D02*
X1411Y1302D01*
X1450Y1302D02*
X1469Y1302D01*
X293Y1301D02*
X312Y1301D01*
X350Y1301D02*
X369Y1301D01*
X1392Y1301D02*
X1411Y1301D01*
X1450Y1301D02*
X1469Y1301D01*
X293Y1300D02*
X312Y1300D01*
X350Y1300D02*
X369Y1300D01*
X1392Y1300D02*
X1411Y1300D01*
X1450Y1300D02*
X1469Y1300D01*
X293Y1299D02*
X312Y1299D01*
X350Y1299D02*
X369Y1299D01*
X1392Y1299D02*
X1411Y1299D01*
X1450Y1299D02*
X1469Y1299D01*
X293Y1298D02*
X312Y1298D01*
X350Y1298D02*
X369Y1298D01*
X1392Y1298D02*
X1411Y1298D01*
X1450Y1298D02*
X1469Y1298D01*
X293Y1297D02*
X312Y1297D01*
X350Y1297D02*
X369Y1297D01*
X1392Y1297D02*
X1411Y1297D01*
X1449Y1297D02*
X1468Y1297D01*
X293Y1296D02*
X312Y1296D01*
X350Y1296D02*
X369Y1296D01*
X1392Y1296D02*
X1412Y1296D01*
X1449Y1296D02*
X1468Y1296D01*
X293Y1295D02*
X313Y1295D01*
X349Y1295D02*
X369Y1295D01*
X1393Y1295D02*
X1412Y1295D01*
X1449Y1295D02*
X1468Y1295D01*
X293Y1294D02*
X313Y1294D01*
X349Y1294D02*
X369Y1294D01*
X1393Y1294D02*
X1412Y1294D01*
X1449Y1294D02*
X1468Y1294D01*
X294Y1293D02*
X313Y1293D01*
X349Y1293D02*
X368Y1293D01*
X1393Y1293D02*
X1413Y1293D01*
X1448Y1293D02*
X1468Y1293D01*
X294Y1292D02*
X314Y1292D01*
X348Y1292D02*
X368Y1292D01*
X1393Y1292D02*
X1413Y1292D01*
X1447Y1292D02*
X1467Y1292D01*
X294Y1291D02*
X315Y1291D01*
X348Y1291D02*
X368Y1291D01*
X1394Y1291D02*
X1414Y1291D01*
X1447Y1291D02*
X1467Y1291D01*
X294Y1290D02*
X315Y1290D01*
X347Y1290D02*
X368Y1290D01*
X1394Y1290D02*
X1415Y1290D01*
X1446Y1290D02*
X1467Y1290D01*
X295Y1289D02*
X316Y1289D01*
X346Y1289D02*
X367Y1289D01*
X1394Y1289D02*
X1416Y1289D01*
X1445Y1289D02*
X1467Y1289D01*
X295Y1288D02*
X317Y1288D01*
X345Y1288D02*
X367Y1288D01*
X1395Y1288D02*
X1416Y1288D01*
X1444Y1288D02*
X1466Y1288D01*
X296Y1287D02*
X318Y1287D01*
X344Y1287D02*
X366Y1287D01*
X1395Y1287D02*
X1418Y1287D01*
X1443Y1287D02*
X1466Y1287D01*
X296Y1286D02*
X319Y1286D01*
X343Y1286D02*
X366Y1286D01*
X1395Y1286D02*
X1419Y1286D01*
X1442Y1286D02*
X1465Y1286D01*
X296Y1285D02*
X321Y1285D01*
X341Y1285D02*
X366Y1285D01*
X1396Y1285D02*
X1420Y1285D01*
X1441Y1285D02*
X1465Y1285D01*
X297Y1284D02*
X322Y1284D01*
X340Y1284D02*
X365Y1284D01*
X1396Y1284D02*
X1422Y1284D01*
X1439Y1284D02*
X1465Y1284D01*
X297Y1283D02*
X325Y1283D01*
X337Y1283D02*
X365Y1283D01*
X1397Y1283D02*
X1425Y1283D01*
X1436Y1283D02*
X1464Y1283D01*
X298Y1282D02*
X364Y1282D01*
X1397Y1282D02*
X1463Y1282D01*
X299Y1281D02*
X364Y1281D01*
X1398Y1281D02*
X1463Y1281D01*
X299Y1280D02*
X363Y1280D01*
X1399Y1280D02*
X1462Y1280D01*
X300Y1279D02*
X362Y1279D01*
X1399Y1279D02*
X1462Y1279D01*
X301Y1278D02*
X362Y1278D01*
X1400Y1278D02*
X1461Y1278D01*
X301Y1277D02*
X361Y1277D01*
X1401Y1277D02*
X1460Y1277D01*
X302Y1276D02*
X360Y1276D01*
X1401Y1276D02*
X1459Y1276D01*
X303Y1275D02*
X359Y1275D01*
X1402Y1275D02*
X1459Y1275D01*
X304Y1274D02*
X358Y1274D01*
X1403Y1274D02*
X1458Y1274D01*
X305Y1273D02*
X357Y1273D01*
X1404Y1273D02*
X1457Y1273D01*
X306Y1272D02*
X356Y1272D01*
X1405Y1272D02*
X1455Y1272D01*
X307Y1271D02*
X355Y1271D01*
X1407Y1271D02*
X1454Y1271D01*
X309Y1270D02*
X353Y1270D01*
X1408Y1270D02*
X1453Y1270D01*
X310Y1269D02*
X352Y1269D01*
X1409Y1269D02*
X1451Y1269D01*
X312Y1268D02*
X350Y1268D01*
X1411Y1268D02*
X1450Y1268D01*
X314Y1267D02*
X349Y1267D01*
X1413Y1267D02*
X1448Y1267D01*
X316Y1266D02*
X346Y1266D01*
X1415Y1266D02*
X1446Y1266D01*
X318Y1265D02*
X344Y1265D01*
X1417Y1265D02*
X1443Y1265D01*
X321Y1264D02*
X341Y1264D01*
X1420Y1264D02*
X1440Y1264D01*
X325Y1263D02*
X337Y1263D01*
X1425Y1263D02*
X1436Y1263D01*
X328Y1240D02*
X335Y1240D01*
X1427Y1240D02*
X1434Y1240D01*
X322Y1239D02*
X340Y1239D01*
X1422Y1239D02*
X1439Y1239D01*
X319Y1238D02*
X343Y1238D01*
X1418Y1238D02*
X1442Y1238D01*
X316Y1237D02*
X346Y1237D01*
X1416Y1237D02*
X1445Y1237D01*
X314Y1236D02*
X348Y1236D01*
X1414Y1236D02*
X1447Y1236D01*
X312Y1235D02*
X350Y1235D01*
X1412Y1235D02*
X1449Y1235D01*
X311Y1234D02*
X351Y1234D01*
X1410Y1234D02*
X1451Y1234D01*
X309Y1233D02*
X353Y1233D01*
X1408Y1233D02*
X1452Y1233D01*
X308Y1232D02*
X354Y1232D01*
X1407Y1232D02*
X1454Y1232D01*
X306Y1231D02*
X356Y1231D01*
X1406Y1231D02*
X1455Y1231D01*
X305Y1230D02*
X357Y1230D01*
X1405Y1230D02*
X1456Y1230D01*
X304Y1229D02*
X358Y1229D01*
X1404Y1229D02*
X1457Y1229D01*
X303Y1228D02*
X359Y1228D01*
X1403Y1228D02*
X1458Y1228D01*
X302Y1227D02*
X360Y1227D01*
X1402Y1227D02*
X1459Y1227D01*
X302Y1226D02*
X361Y1226D01*
X1401Y1226D02*
X1460Y1226D01*
X301Y1225D02*
X361Y1225D01*
X1400Y1225D02*
X1461Y1225D01*
X300Y1224D02*
X362Y1224D01*
X1399Y1224D02*
X1461Y1224D01*
X299Y1223D02*
X363Y1223D01*
X1399Y1223D02*
X1462Y1223D01*
X299Y1222D02*
X363Y1222D01*
X1398Y1222D02*
X1463Y1222D01*
X298Y1221D02*
X364Y1221D01*
X1398Y1221D02*
X1463Y1221D01*
X298Y1220D02*
X327Y1220D01*
X335Y1220D02*
X364Y1220D01*
X1397Y1220D02*
X1426Y1220D01*
X1435Y1220D02*
X1464Y1220D01*
X297Y1219D02*
X323Y1219D01*
X339Y1219D02*
X365Y1219D01*
X1396Y1219D02*
X1423Y1219D01*
X1438Y1219D02*
X1464Y1219D01*
X297Y1218D02*
X321Y1218D01*
X341Y1218D02*
X365Y1218D01*
X1396Y1218D02*
X1421Y1218D01*
X1440Y1218D02*
X1465Y1218D01*
X296Y1217D02*
X320Y1217D01*
X342Y1217D02*
X366Y1217D01*
X1396Y1217D02*
X1419Y1217D01*
X1442Y1217D02*
X1465Y1217D01*
X296Y1216D02*
X319Y1216D01*
X343Y1216D02*
X366Y1216D01*
X1395Y1216D02*
X1418Y1216D01*
X1443Y1216D02*
X1466Y1216D01*
X295Y1215D02*
X317Y1215D01*
X345Y1215D02*
X367Y1215D01*
X1395Y1215D02*
X1417Y1215D01*
X1444Y1215D02*
X1466Y1215D01*
X295Y1214D02*
X316Y1214D01*
X346Y1214D02*
X367Y1214D01*
X1394Y1214D02*
X1416Y1214D01*
X1445Y1214D02*
X1466Y1214D01*
X295Y1213D02*
X316Y1213D01*
X346Y1213D02*
X367Y1213D01*
X1394Y1213D02*
X1415Y1213D01*
X1446Y1213D02*
X1467Y1213D01*
X294Y1212D02*
X315Y1212D01*
X347Y1212D02*
X368Y1212D01*
X1394Y1212D02*
X1414Y1212D01*
X1447Y1212D02*
X1467Y1212D01*
X294Y1211D02*
X314Y1211D01*
X348Y1211D02*
X368Y1211D01*
X1393Y1211D02*
X1414Y1211D01*
X1447Y1211D02*
X1467Y1211D01*
X294Y1210D02*
X314Y1210D01*
X348Y1210D02*
X368Y1210D01*
X1393Y1210D02*
X1413Y1210D01*
X1448Y1210D02*
X1468Y1210D01*
X294Y1209D02*
X313Y1209D01*
X349Y1209D02*
X369Y1209D01*
X1393Y1209D02*
X1412Y1209D01*
X1448Y1209D02*
X1468Y1209D01*
X293Y1208D02*
X313Y1208D01*
X349Y1208D02*
X369Y1208D01*
X1393Y1208D02*
X1412Y1208D01*
X1449Y1208D02*
X1468Y1208D01*
X293Y1207D02*
X312Y1207D01*
X350Y1207D02*
X369Y1207D01*
X1393Y1207D02*
X1412Y1207D01*
X1449Y1207D02*
X1468Y1207D01*
X293Y1206D02*
X312Y1206D01*
X350Y1206D02*
X369Y1206D01*
X1392Y1206D02*
X1411Y1206D01*
X1449Y1206D02*
X1468Y1206D01*
X293Y1205D02*
X312Y1205D01*
X350Y1205D02*
X369Y1205D01*
X1392Y1205D02*
X1411Y1205D01*
X1450Y1205D02*
X1469Y1205D01*
X293Y1204D02*
X312Y1204D01*
X350Y1204D02*
X369Y1204D01*
X1392Y1204D02*
X1411Y1204D01*
X1450Y1204D02*
X1469Y1204D01*
X293Y1203D02*
X312Y1203D01*
X350Y1203D02*
X369Y1203D01*
X1392Y1203D02*
X1411Y1203D01*
X1450Y1203D02*
X1469Y1203D01*
X293Y1202D02*
X312Y1202D01*
X350Y1202D02*
X369Y1202D01*
X1392Y1202D02*
X1411Y1202D01*
X1450Y1202D02*
X1469Y1202D01*
X293Y1201D02*
X312Y1201D01*
X350Y1201D02*
X369Y1201D01*
X1392Y1201D02*
X1411Y1201D01*
X1450Y1201D02*
X1469Y1201D01*
X293Y1200D02*
X312Y1200D01*
X350Y1200D02*
X369Y1200D01*
X1392Y1200D02*
X1411Y1200D01*
X1450Y1200D02*
X1469Y1200D01*
X293Y1199D02*
X312Y1199D01*
X350Y1199D02*
X369Y1199D01*
X1392Y1199D02*
X1411Y1199D01*
X1450Y1199D02*
X1469Y1199D01*
X293Y1198D02*
X312Y1198D01*
X350Y1198D02*
X369Y1198D01*
X1392Y1198D02*
X1411Y1198D01*
X1450Y1198D02*
X1469Y1198D01*
X293Y1197D02*
X312Y1197D01*
X350Y1197D02*
X369Y1197D01*
X1392Y1197D02*
X1411Y1197D01*
X1449Y1197D02*
X1468Y1197D01*
X293Y1196D02*
X312Y1196D01*
X350Y1196D02*
X369Y1196D01*
X1392Y1196D02*
X1412Y1196D01*
X1449Y1196D02*
X1468Y1196D01*
X293Y1195D02*
X313Y1195D01*
X349Y1195D02*
X369Y1195D01*
X1393Y1195D02*
X1412Y1195D01*
X1449Y1195D02*
X1468Y1195D01*
X293Y1194D02*
X313Y1194D01*
X349Y1194D02*
X369Y1194D01*
X1393Y1194D02*
X1412Y1194D01*
X1449Y1194D02*
X1468Y1194D01*
X294Y1193D02*
X313Y1193D01*
X349Y1193D02*
X368Y1193D01*
X1393Y1193D02*
X1413Y1193D01*
X1448Y1193D02*
X1468Y1193D01*
X294Y1192D02*
X314Y1192D01*
X348Y1192D02*
X368Y1192D01*
X1393Y1192D02*
X1413Y1192D01*
X1447Y1192D02*
X1467Y1192D01*
X294Y1191D02*
X315Y1191D01*
X348Y1191D02*
X368Y1191D01*
X1394Y1191D02*
X1414Y1191D01*
X1447Y1191D02*
X1467Y1191D01*
X294Y1190D02*
X315Y1190D01*
X347Y1190D02*
X368Y1190D01*
X1394Y1190D02*
X1415Y1190D01*
X1446Y1190D02*
X1467Y1190D01*
X295Y1189D02*
X316Y1189D01*
X346Y1189D02*
X367Y1189D01*
X1394Y1189D02*
X1416Y1189D01*
X1445Y1189D02*
X1467Y1189D01*
X295Y1188D02*
X317Y1188D01*
X345Y1188D02*
X367Y1188D01*
X1395Y1188D02*
X1416Y1188D01*
X1444Y1188D02*
X1466Y1188D01*
X296Y1187D02*
X318Y1187D01*
X344Y1187D02*
X366Y1187D01*
X1395Y1187D02*
X1418Y1187D01*
X1443Y1187D02*
X1466Y1187D01*
X296Y1186D02*
X319Y1186D01*
X343Y1186D02*
X366Y1186D01*
X1395Y1186D02*
X1419Y1186D01*
X1442Y1186D02*
X1465Y1186D01*
X296Y1185D02*
X321Y1185D01*
X341Y1185D02*
X366Y1185D01*
X1396Y1185D02*
X1420Y1185D01*
X1441Y1185D02*
X1465Y1185D01*
X297Y1184D02*
X323Y1184D01*
X340Y1184D02*
X365Y1184D01*
X1396Y1184D02*
X1422Y1184D01*
X1439Y1184D02*
X1464Y1184D01*
X297Y1183D02*
X325Y1183D01*
X337Y1183D02*
X365Y1183D01*
X1397Y1183D02*
X1425Y1183D01*
X1436Y1183D02*
X1464Y1183D01*
X298Y1182D02*
X364Y1182D01*
X1397Y1182D02*
X1463Y1182D01*
X299Y1181D02*
X363Y1181D01*
X1398Y1181D02*
X1463Y1181D01*
X299Y1180D02*
X363Y1180D01*
X1399Y1180D02*
X1462Y1180D01*
X300Y1179D02*
X362Y1179D01*
X1399Y1179D02*
X1462Y1179D01*
X301Y1178D02*
X362Y1178D01*
X1400Y1178D02*
X1461Y1178D01*
X301Y1177D02*
X361Y1177D01*
X1401Y1177D02*
X1460Y1177D01*
X302Y1176D02*
X360Y1176D01*
X1401Y1176D02*
X1459Y1176D01*
X303Y1175D02*
X359Y1175D01*
X1402Y1175D02*
X1458Y1175D01*
X304Y1174D02*
X358Y1174D01*
X1403Y1174D02*
X1458Y1174D01*
X305Y1173D02*
X357Y1173D01*
X1404Y1173D02*
X1456Y1173D01*
X306Y1172D02*
X356Y1172D01*
X1405Y1172D02*
X1455Y1172D01*
X307Y1171D02*
X355Y1171D01*
X1407Y1171D02*
X1454Y1171D01*
X309Y1170D02*
X353Y1170D01*
X1408Y1170D02*
X1453Y1170D01*
X310Y1169D02*
X352Y1169D01*
X1409Y1169D02*
X1451Y1169D01*
X312Y1168D02*
X350Y1168D01*
X1411Y1168D02*
X1450Y1168D01*
X314Y1167D02*
X348Y1167D01*
X1413Y1167D02*
X1448Y1167D01*
X316Y1166D02*
X346Y1166D01*
X1415Y1166D02*
X1446Y1166D01*
X318Y1165D02*
X344Y1165D01*
X1418Y1165D02*
X1443Y1165D01*
X321Y1164D02*
X341Y1164D01*
X1421Y1164D02*
X1440Y1164D01*
X326Y1163D02*
X337Y1163D01*
X1425Y1163D02*
X1436Y1163D01*
X327Y1140D02*
X335Y1140D01*
X1427Y1140D02*
X1434Y1140D01*
X322Y1139D02*
X340Y1139D01*
X1422Y1139D02*
X1439Y1139D01*
X319Y1138D02*
X343Y1138D01*
X1418Y1138D02*
X1442Y1138D01*
X316Y1137D02*
X346Y1137D01*
X1416Y1137D02*
X1445Y1137D01*
X314Y1136D02*
X348Y1136D01*
X1414Y1136D02*
X1447Y1136D01*
X312Y1135D02*
X350Y1135D01*
X1412Y1135D02*
X1449Y1135D01*
X311Y1134D02*
X351Y1134D01*
X1410Y1134D02*
X1451Y1134D01*
X309Y1133D02*
X353Y1133D01*
X1408Y1133D02*
X1452Y1133D01*
X308Y1132D02*
X354Y1132D01*
X1407Y1132D02*
X1454Y1132D01*
X306Y1131D02*
X356Y1131D01*
X1406Y1131D02*
X1455Y1131D01*
X305Y1130D02*
X357Y1130D01*
X1405Y1130D02*
X1456Y1130D01*
X304Y1129D02*
X358Y1129D01*
X1404Y1129D02*
X1457Y1129D01*
X303Y1128D02*
X359Y1128D01*
X1403Y1128D02*
X1458Y1128D01*
X302Y1127D02*
X360Y1127D01*
X1402Y1127D02*
X1459Y1127D01*
X301Y1126D02*
X361Y1126D01*
X1401Y1126D02*
X1460Y1126D01*
X301Y1125D02*
X361Y1125D01*
X1400Y1125D02*
X1461Y1125D01*
X300Y1124D02*
X362Y1124D01*
X1399Y1124D02*
X1461Y1124D01*
X299Y1123D02*
X363Y1123D01*
X1399Y1123D02*
X1462Y1123D01*
X299Y1122D02*
X363Y1122D01*
X1398Y1122D02*
X1463Y1122D01*
X298Y1121D02*
X364Y1121D01*
X1398Y1121D02*
X1463Y1121D01*
X298Y1120D02*
X327Y1120D01*
X336Y1120D02*
X364Y1120D01*
X1397Y1120D02*
X1426Y1120D01*
X1435Y1120D02*
X1464Y1120D01*
X297Y1119D02*
X323Y1119D01*
X339Y1119D02*
X365Y1119D01*
X1396Y1119D02*
X1422Y1119D01*
X1438Y1119D02*
X1464Y1119D01*
X297Y1118D02*
X321Y1118D01*
X341Y1118D02*
X365Y1118D01*
X1396Y1118D02*
X1421Y1118D01*
X1440Y1118D02*
X1465Y1118D01*
X296Y1117D02*
X320Y1117D01*
X342Y1117D02*
X366Y1117D01*
X1396Y1117D02*
X1419Y1117D01*
X1442Y1117D02*
X1465Y1117D01*
X296Y1116D02*
X319Y1116D01*
X344Y1116D02*
X366Y1116D01*
X1395Y1116D02*
X1418Y1116D01*
X1443Y1116D02*
X1466Y1116D01*
X295Y1115D02*
X317Y1115D01*
X345Y1115D02*
X367Y1115D01*
X1395Y1115D02*
X1417Y1115D01*
X1444Y1115D02*
X1466Y1115D01*
X295Y1114D02*
X316Y1114D01*
X346Y1114D02*
X367Y1114D01*
X1394Y1114D02*
X1416Y1114D01*
X1445Y1114D02*
X1466Y1114D01*
X295Y1113D02*
X316Y1113D01*
X346Y1113D02*
X367Y1113D01*
X1394Y1113D02*
X1415Y1113D01*
X1446Y1113D02*
X1467Y1113D01*
X294Y1112D02*
X315Y1112D01*
X347Y1112D02*
X368Y1112D01*
X1394Y1112D02*
X1414Y1112D01*
X1447Y1112D02*
X1467Y1112D01*
X294Y1111D02*
X314Y1111D01*
X348Y1111D02*
X368Y1111D01*
X1393Y1111D02*
X1413Y1111D01*
X1447Y1111D02*
X1467Y1111D01*
X294Y1110D02*
X314Y1110D01*
X348Y1110D02*
X368Y1110D01*
X1393Y1110D02*
X1413Y1110D01*
X1448Y1110D02*
X1468Y1110D01*
X294Y1109D02*
X313Y1109D01*
X349Y1109D02*
X369Y1109D01*
X1393Y1109D02*
X1412Y1109D01*
X1448Y1109D02*
X1468Y1109D01*
X293Y1108D02*
X313Y1108D01*
X349Y1108D02*
X369Y1108D01*
X1393Y1108D02*
X1412Y1108D01*
X1449Y1108D02*
X1468Y1108D01*
X293Y1107D02*
X312Y1107D01*
X350Y1107D02*
X369Y1107D01*
X1393Y1107D02*
X1412Y1107D01*
X1449Y1107D02*
X1468Y1107D01*
X293Y1106D02*
X312Y1106D01*
X350Y1106D02*
X369Y1106D01*
X1392Y1106D02*
X1411Y1106D01*
X1449Y1106D02*
X1468Y1106D01*
X293Y1105D02*
X312Y1105D01*
X350Y1105D02*
X369Y1105D01*
X1392Y1105D02*
X1411Y1105D01*
X1450Y1105D02*
X1469Y1105D01*
X293Y1104D02*
X312Y1104D01*
X350Y1104D02*
X369Y1104D01*
X1392Y1104D02*
X1411Y1104D01*
X1450Y1104D02*
X1469Y1104D01*
X293Y1103D02*
X312Y1103D01*
X350Y1103D02*
X369Y1103D01*
X1392Y1103D02*
X1411Y1103D01*
X1450Y1103D02*
X1469Y1103D01*
X293Y1102D02*
X312Y1102D01*
X350Y1102D02*
X369Y1102D01*
X1392Y1102D02*
X1411Y1102D01*
X1450Y1102D02*
X1469Y1102D01*
X293Y1101D02*
X312Y1101D01*
X350Y1101D02*
X369Y1101D01*
X1392Y1101D02*
X1411Y1101D01*
X1450Y1101D02*
X1469Y1101D01*
X293Y1100D02*
X312Y1100D01*
X350Y1100D02*
X369Y1100D01*
X1392Y1100D02*
X1411Y1100D01*
X1450Y1100D02*
X1469Y1100D01*
X293Y1099D02*
X312Y1099D01*
X350Y1099D02*
X369Y1099D01*
X1392Y1099D02*
X1411Y1099D01*
X1450Y1099D02*
X1469Y1099D01*
X293Y1098D02*
X312Y1098D01*
X350Y1098D02*
X369Y1098D01*
X1392Y1098D02*
X1411Y1098D01*
X1450Y1098D02*
X1469Y1098D01*
X293Y1097D02*
X312Y1097D01*
X350Y1097D02*
X369Y1097D01*
X1392Y1097D02*
X1411Y1097D01*
X1449Y1097D02*
X1468Y1097D01*
X293Y1096D02*
X312Y1096D01*
X350Y1096D02*
X369Y1096D01*
X1392Y1096D02*
X1412Y1096D01*
X1449Y1096D02*
X1468Y1096D01*
X293Y1095D02*
X313Y1095D01*
X349Y1095D02*
X369Y1095D01*
X1393Y1095D02*
X1412Y1095D01*
X1449Y1095D02*
X1468Y1095D01*
X293Y1094D02*
X313Y1094D01*
X349Y1094D02*
X369Y1094D01*
X1393Y1094D02*
X1412Y1094D01*
X1449Y1094D02*
X1468Y1094D01*
X294Y1093D02*
X313Y1093D01*
X349Y1093D02*
X368Y1093D01*
X1393Y1093D02*
X1413Y1093D01*
X1448Y1093D02*
X1468Y1093D01*
X294Y1092D02*
X314Y1092D01*
X348Y1092D02*
X368Y1092D01*
X1393Y1092D02*
X1413Y1092D01*
X1447Y1092D02*
X1467Y1092D01*
X294Y1091D02*
X315Y1091D01*
X347Y1091D02*
X368Y1091D01*
X1394Y1091D02*
X1414Y1091D01*
X1447Y1091D02*
X1467Y1091D01*
X295Y1090D02*
X315Y1090D01*
X347Y1090D02*
X368Y1090D01*
X1394Y1090D02*
X1415Y1090D01*
X1446Y1090D02*
X1467Y1090D01*
X295Y1089D02*
X316Y1089D01*
X346Y1089D02*
X367Y1089D01*
X1394Y1089D02*
X1416Y1089D01*
X1445Y1089D02*
X1467Y1089D01*
X295Y1088D02*
X317Y1088D01*
X345Y1088D02*
X367Y1088D01*
X1395Y1088D02*
X1417Y1088D01*
X1444Y1088D02*
X1466Y1088D01*
X296Y1087D02*
X318Y1087D01*
X344Y1087D02*
X366Y1087D01*
X1395Y1087D02*
X1418Y1087D01*
X1443Y1087D02*
X1466Y1087D01*
X296Y1086D02*
X319Y1086D01*
X343Y1086D02*
X366Y1086D01*
X1395Y1086D02*
X1419Y1086D01*
X1442Y1086D02*
X1465Y1086D01*
X296Y1085D02*
X321Y1085D01*
X341Y1085D02*
X366Y1085D01*
X1396Y1085D02*
X1420Y1085D01*
X1441Y1085D02*
X1465Y1085D01*
X297Y1084D02*
X323Y1084D01*
X339Y1084D02*
X365Y1084D01*
X1396Y1084D02*
X1422Y1084D01*
X1439Y1084D02*
X1464Y1084D01*
X297Y1083D02*
X326Y1083D01*
X336Y1083D02*
X365Y1083D01*
X1397Y1083D02*
X1425Y1083D01*
X1436Y1083D02*
X1464Y1083D01*
X298Y1082D02*
X364Y1082D01*
X1397Y1082D02*
X1463Y1082D01*
X299Y1081D02*
X363Y1081D01*
X1398Y1081D02*
X1463Y1081D01*
X299Y1080D02*
X363Y1080D01*
X1399Y1080D02*
X1462Y1080D01*
X300Y1079D02*
X362Y1079D01*
X1399Y1079D02*
X1462Y1079D01*
X301Y1078D02*
X361Y1078D01*
X1400Y1078D02*
X1461Y1078D01*
X301Y1077D02*
X361Y1077D01*
X1401Y1077D02*
X1460Y1077D01*
X302Y1076D02*
X360Y1076D01*
X1401Y1076D02*
X1459Y1076D01*
X303Y1075D02*
X359Y1075D01*
X1402Y1075D02*
X1458Y1075D01*
X304Y1074D02*
X358Y1074D01*
X1403Y1074D02*
X1458Y1074D01*
X305Y1073D02*
X357Y1073D01*
X1404Y1073D02*
X1456Y1073D01*
X306Y1072D02*
X356Y1072D01*
X1405Y1072D02*
X1455Y1072D01*
X307Y1071D02*
X355Y1071D01*
X1407Y1071D02*
X1454Y1071D01*
X309Y1070D02*
X353Y1070D01*
X1408Y1070D02*
X1453Y1070D01*
X310Y1069D02*
X352Y1069D01*
X1410Y1069D02*
X1451Y1069D01*
X312Y1068D02*
X350Y1068D01*
X1411Y1068D02*
X1450Y1068D01*
X314Y1067D02*
X348Y1067D01*
X1413Y1067D02*
X1448Y1067D01*
X316Y1066D02*
X346Y1066D01*
X1415Y1066D02*
X1446Y1066D01*
X318Y1065D02*
X344Y1065D01*
X1418Y1065D02*
X1443Y1065D01*
X321Y1064D02*
X341Y1064D01*
X1421Y1064D02*
X1440Y1064D01*
X326Y1063D02*
X336Y1063D01*
X1425Y1063D02*
X1436Y1063D01*
X327Y1040D02*
X335Y1040D01*
X1426Y1040D02*
X1434Y1040D01*
X322Y1039D02*
X340Y1039D01*
X1421Y1039D02*
X1439Y1039D01*
X319Y1038D02*
X343Y1038D01*
X1418Y1038D02*
X1443Y1038D01*
X316Y1037D02*
X346Y1037D01*
X1416Y1037D02*
X1445Y1037D01*
X314Y1036D02*
X348Y1036D01*
X1414Y1036D02*
X1447Y1036D01*
X312Y1035D02*
X350Y1035D01*
X1412Y1035D02*
X1449Y1035D01*
X311Y1034D02*
X352Y1034D01*
X1410Y1034D02*
X1451Y1034D01*
X309Y1033D02*
X353Y1033D01*
X1408Y1033D02*
X1452Y1033D01*
X308Y1032D02*
X354Y1032D01*
X1407Y1032D02*
X1454Y1032D01*
X306Y1031D02*
X356Y1031D01*
X1406Y1031D02*
X1455Y1031D01*
X305Y1030D02*
X357Y1030D01*
X1405Y1030D02*
X1456Y1030D01*
X304Y1029D02*
X358Y1029D01*
X1403Y1029D02*
X1457Y1029D01*
X303Y1028D02*
X359Y1028D01*
X1403Y1028D02*
X1458Y1028D01*
X302Y1027D02*
X360Y1027D01*
X1402Y1027D02*
X1459Y1027D01*
X301Y1026D02*
X361Y1026D01*
X1401Y1026D02*
X1460Y1026D01*
X301Y1025D02*
X361Y1025D01*
X1400Y1025D02*
X1461Y1025D01*
X300Y1024D02*
X362Y1024D01*
X1399Y1024D02*
X1461Y1024D01*
X299Y1023D02*
X363Y1023D01*
X1399Y1023D02*
X1462Y1023D01*
X299Y1022D02*
X363Y1022D01*
X1398Y1022D02*
X1463Y1022D01*
X298Y1021D02*
X364Y1021D01*
X1397Y1021D02*
X1463Y1021D01*
X298Y1020D02*
X326Y1020D01*
X336Y1020D02*
X365Y1020D01*
X1397Y1020D02*
X1426Y1020D01*
X1435Y1020D02*
X1464Y1020D01*
X297Y1019D02*
X323Y1019D01*
X339Y1019D02*
X365Y1019D01*
X1396Y1019D02*
X1422Y1019D01*
X1438Y1019D02*
X1464Y1019D01*
X297Y1018D02*
X321Y1018D01*
X341Y1018D02*
X365Y1018D01*
X1396Y1018D02*
X1421Y1018D01*
X1440Y1018D02*
X1465Y1018D01*
X296Y1017D02*
X320Y1017D01*
X342Y1017D02*
X366Y1017D01*
X1395Y1017D02*
X1419Y1017D01*
X1442Y1017D02*
X1465Y1017D01*
X296Y1016D02*
X318Y1016D01*
X344Y1016D02*
X366Y1016D01*
X1395Y1016D02*
X1418Y1016D01*
X1443Y1016D02*
X1466Y1016D01*
X295Y1015D02*
X317Y1015D01*
X345Y1015D02*
X367Y1015D01*
X1395Y1015D02*
X1417Y1015D01*
X1444Y1015D02*
X1466Y1015D01*
X295Y1014D02*
X316Y1014D01*
X346Y1014D02*
X367Y1014D01*
X1394Y1014D02*
X1416Y1014D01*
X1445Y1014D02*
X1466Y1014D01*
X295Y1013D02*
X316Y1013D01*
X346Y1013D02*
X367Y1013D01*
X1394Y1013D02*
X1415Y1013D01*
X1446Y1013D02*
X1467Y1013D01*
X294Y1012D02*
X315Y1012D01*
X347Y1012D02*
X368Y1012D01*
X1394Y1012D02*
X1414Y1012D01*
X1447Y1012D02*
X1467Y1012D01*
X294Y1011D02*
X314Y1011D01*
X348Y1011D02*
X368Y1011D01*
X1393Y1011D02*
X1413Y1011D01*
X1447Y1011D02*
X1467Y1011D01*
X294Y1010D02*
X314Y1010D01*
X349Y1010D02*
X368Y1010D01*
X1393Y1010D02*
X1413Y1010D01*
X1448Y1010D02*
X1468Y1010D01*
X293Y1009D02*
X313Y1009D01*
X349Y1009D02*
X369Y1009D01*
X1393Y1009D02*
X1412Y1009D01*
X1448Y1009D02*
X1468Y1009D01*
X293Y1008D02*
X313Y1008D01*
X349Y1008D02*
X369Y1008D01*
X1393Y1008D02*
X1412Y1008D01*
X1449Y1008D02*
X1468Y1008D01*
X293Y1007D02*
X312Y1007D01*
X350Y1007D02*
X369Y1007D01*
X1393Y1007D02*
X1412Y1007D01*
X1449Y1007D02*
X1468Y1007D01*
X293Y1006D02*
X312Y1006D01*
X350Y1006D02*
X369Y1006D01*
X1392Y1006D02*
X1411Y1006D01*
X1449Y1006D02*
X1468Y1006D01*
X293Y1005D02*
X312Y1005D01*
X350Y1005D02*
X369Y1005D01*
X1392Y1005D02*
X1411Y1005D01*
X1450Y1005D02*
X1469Y1005D01*
X293Y1004D02*
X312Y1004D01*
X350Y1004D02*
X369Y1004D01*
X1392Y1004D02*
X1411Y1004D01*
X1450Y1004D02*
X1469Y1004D01*
X293Y1003D02*
X312Y1003D01*
X350Y1003D02*
X369Y1003D01*
X1392Y1003D02*
X1411Y1003D01*
X1450Y1003D02*
X1469Y1003D01*
X293Y1002D02*
X312Y1002D01*
X350Y1002D02*
X369Y1002D01*
X1392Y1002D02*
X1411Y1002D01*
X1450Y1002D02*
X1469Y1002D01*
X293Y1001D02*
X312Y1001D01*
X350Y1001D02*
X369Y1001D01*
X1392Y1001D02*
X1411Y1001D01*
X1450Y1001D02*
X1469Y1001D01*
X293Y1000D02*
X312Y1000D01*
X350Y1000D02*
X369Y1000D01*
X1392Y1000D02*
X1411Y1000D01*
X1450Y1000D02*
X1469Y1000D01*
X293Y999D02*
X312Y999D01*
X350Y999D02*
X369Y999D01*
X1392Y999D02*
X1411Y999D01*
X1450Y999D02*
X1469Y999D01*
X293Y998D02*
X312Y998D01*
X350Y998D02*
X369Y998D01*
X1392Y998D02*
X1411Y998D01*
X1450Y998D02*
X1469Y998D01*
X293Y997D02*
X312Y997D01*
X350Y997D02*
X369Y997D01*
X1392Y997D02*
X1411Y997D01*
X1449Y997D02*
X1468Y997D01*
X293Y996D02*
X312Y996D01*
X350Y996D02*
X369Y996D01*
X1392Y996D02*
X1412Y996D01*
X1449Y996D02*
X1468Y996D01*
X293Y995D02*
X313Y995D01*
X349Y995D02*
X369Y995D01*
X1393Y995D02*
X1412Y995D01*
X1449Y995D02*
X1468Y995D01*
X293Y994D02*
X313Y994D01*
X349Y994D02*
X369Y994D01*
X1393Y994D02*
X1412Y994D01*
X1448Y994D02*
X1468Y994D01*
X294Y993D02*
X313Y993D01*
X349Y993D02*
X368Y993D01*
X1393Y993D02*
X1413Y993D01*
X1448Y993D02*
X1468Y993D01*
X294Y992D02*
X314Y992D01*
X348Y992D02*
X368Y992D01*
X1393Y992D02*
X1413Y992D01*
X1447Y992D02*
X1467Y992D01*
X294Y991D02*
X315Y991D01*
X347Y991D02*
X368Y991D01*
X1394Y991D02*
X1414Y991D01*
X1447Y991D02*
X1467Y991D01*
X295Y990D02*
X315Y990D01*
X347Y990D02*
X368Y990D01*
X1394Y990D02*
X1415Y990D01*
X1446Y990D02*
X1467Y990D01*
X295Y989D02*
X316Y989D01*
X346Y989D02*
X367Y989D01*
X1394Y989D02*
X1416Y989D01*
X1445Y989D02*
X1467Y989D01*
X295Y988D02*
X317Y988D01*
X345Y988D02*
X367Y988D01*
X1395Y988D02*
X1417Y988D01*
X1444Y988D02*
X1466Y988D01*
X296Y987D02*
X318Y987D01*
X344Y987D02*
X366Y987D01*
X1395Y987D02*
X1418Y987D01*
X1443Y987D02*
X1466Y987D01*
X296Y986D02*
X319Y986D01*
X343Y986D02*
X366Y986D01*
X1395Y986D02*
X1419Y986D01*
X1442Y986D02*
X1465Y986D01*
X297Y985D02*
X321Y985D01*
X341Y985D02*
X366Y985D01*
X1396Y985D02*
X1420Y985D01*
X1440Y985D02*
X1465Y985D01*
X297Y984D02*
X323Y984D01*
X339Y984D02*
X365Y984D01*
X1396Y984D02*
X1422Y984D01*
X1439Y984D02*
X1464Y984D01*
X297Y983D02*
X326Y983D01*
X336Y983D02*
X365Y983D01*
X1397Y983D02*
X1425Y983D01*
X1436Y983D02*
X1464Y983D01*
X298Y982D02*
X364Y982D01*
X1397Y982D02*
X1463Y982D01*
X299Y981D02*
X363Y981D01*
X1398Y981D02*
X1463Y981D01*
X299Y980D02*
X363Y980D01*
X1399Y980D02*
X1462Y980D01*
X300Y979D02*
X362Y979D01*
X1399Y979D02*
X1462Y979D01*
X301Y978D02*
X361Y978D01*
X1400Y978D02*
X1461Y978D01*
X301Y977D02*
X361Y977D01*
X1401Y977D02*
X1460Y977D01*
X302Y976D02*
X360Y976D01*
X1402Y976D02*
X1459Y976D01*
X303Y975D02*
X359Y975D01*
X1402Y975D02*
X1458Y975D01*
X304Y974D02*
X358Y974D01*
X1403Y974D02*
X1457Y974D01*
X305Y973D02*
X357Y973D01*
X1404Y973D02*
X1456Y973D01*
X306Y972D02*
X356Y972D01*
X1406Y972D02*
X1455Y972D01*
X307Y971D02*
X355Y971D01*
X1407Y971D02*
X1454Y971D01*
X309Y970D02*
X353Y970D01*
X1408Y970D02*
X1453Y970D01*
X310Y969D02*
X352Y969D01*
X1410Y969D02*
X1451Y969D01*
X312Y968D02*
X350Y968D01*
X1411Y968D02*
X1449Y968D01*
X314Y967D02*
X348Y967D01*
X1413Y967D02*
X1448Y967D01*
X316Y966D02*
X346Y966D01*
X1415Y966D02*
X1445Y966D01*
X319Y965D02*
X344Y965D01*
X1418Y965D02*
X1443Y965D01*
X322Y964D02*
X340Y964D01*
X1421Y964D02*
X1440Y964D01*
X326Y963D02*
X336Y963D01*
X1426Y963D02*
X1435Y963D01*
X327Y940D02*
X335Y940D01*
X1426Y940D02*
X1435Y940D01*
X322Y939D02*
X340Y939D01*
X1421Y939D02*
X1440Y939D01*
X319Y938D02*
X343Y938D01*
X1418Y938D02*
X1443Y938D01*
X316Y937D02*
X346Y937D01*
X1415Y937D02*
X1445Y937D01*
X314Y936D02*
X348Y936D01*
X1413Y936D02*
X1447Y936D01*
X312Y935D02*
X350Y935D01*
X1411Y935D02*
X1449Y935D01*
X310Y934D02*
X352Y934D01*
X1410Y934D02*
X1451Y934D01*
X309Y933D02*
X353Y933D01*
X1408Y933D02*
X1453Y933D01*
X308Y932D02*
X355Y932D01*
X1407Y932D02*
X1454Y932D01*
X306Y931D02*
X356Y931D01*
X1406Y931D02*
X1455Y931D01*
X305Y930D02*
X357Y930D01*
X1405Y930D02*
X1456Y930D01*
X304Y929D02*
X358Y929D01*
X1403Y929D02*
X1457Y929D01*
X303Y928D02*
X359Y928D01*
X1403Y928D02*
X1458Y928D01*
X302Y927D02*
X360Y927D01*
X1402Y927D02*
X1459Y927D01*
X301Y926D02*
X361Y926D01*
X1401Y926D02*
X1460Y926D01*
X301Y925D02*
X361Y925D01*
X1400Y925D02*
X1461Y925D01*
X300Y924D02*
X362Y924D01*
X1399Y924D02*
X1461Y924D01*
X299Y923D02*
X363Y923D01*
X1399Y923D02*
X1462Y923D01*
X299Y922D02*
X363Y922D01*
X1398Y922D02*
X1463Y922D01*
X298Y921D02*
X364Y921D01*
X1397Y921D02*
X1463Y921D01*
X298Y920D02*
X326Y920D01*
X336Y920D02*
X365Y920D01*
X1397Y920D02*
X1425Y920D01*
X1435Y920D02*
X1464Y920D01*
X297Y919D02*
X323Y919D01*
X339Y919D02*
X365Y919D01*
X1396Y919D02*
X1422Y919D01*
X1439Y919D02*
X1464Y919D01*
X297Y918D02*
X321Y918D01*
X341Y918D02*
X366Y918D01*
X1396Y918D02*
X1420Y918D01*
X1440Y918D02*
X1465Y918D01*
X296Y917D02*
X320Y917D01*
X342Y917D02*
X366Y917D01*
X1395Y917D02*
X1419Y917D01*
X1442Y917D02*
X1465Y917D01*
X296Y916D02*
X318Y916D01*
X344Y916D02*
X366Y916D01*
X1395Y916D02*
X1418Y916D01*
X1443Y916D02*
X1466Y916D01*
X295Y915D02*
X317Y915D01*
X345Y915D02*
X367Y915D01*
X1395Y915D02*
X1417Y915D01*
X1444Y915D02*
X1466Y915D01*
X295Y914D02*
X316Y914D01*
X346Y914D02*
X367Y914D01*
X1394Y914D02*
X1416Y914D01*
X1445Y914D02*
X1467Y914D01*
X295Y913D02*
X316Y913D01*
X347Y913D02*
X367Y913D01*
X1394Y913D02*
X1415Y913D01*
X1446Y913D02*
X1467Y913D01*
X294Y912D02*
X315Y912D01*
X347Y912D02*
X368Y912D01*
X1394Y912D02*
X1414Y912D01*
X1447Y912D02*
X1467Y912D01*
X294Y911D02*
X314Y911D01*
X348Y911D02*
X368Y911D01*
X1393Y911D02*
X1413Y911D01*
X1447Y911D02*
X1467Y911D01*
X294Y910D02*
X314Y910D01*
X349Y910D02*
X368Y910D01*
X1393Y910D02*
X1413Y910D01*
X1448Y910D02*
X1468Y910D01*
X293Y909D02*
X313Y909D01*
X349Y909D02*
X369Y909D01*
X1393Y909D02*
X1412Y909D01*
X1448Y909D02*
X1468Y909D01*
X293Y908D02*
X313Y908D01*
X349Y908D02*
X369Y908D01*
X1393Y908D02*
X1412Y908D01*
X1449Y908D02*
X1468Y908D01*
X293Y907D02*
X312Y907D01*
X350Y907D02*
X369Y907D01*
X1393Y907D02*
X1412Y907D01*
X1449Y907D02*
X1468Y907D01*
X293Y906D02*
X312Y906D01*
X350Y906D02*
X369Y906D01*
X1392Y906D02*
X1411Y906D01*
X1449Y906D02*
X1468Y906D01*
X293Y905D02*
X312Y905D01*
X350Y905D02*
X369Y905D01*
X1392Y905D02*
X1411Y905D01*
X1450Y905D02*
X1469Y905D01*
X293Y904D02*
X312Y904D01*
X350Y904D02*
X369Y904D01*
X1392Y904D02*
X1411Y904D01*
X1450Y904D02*
X1469Y904D01*
X293Y903D02*
X312Y903D01*
X350Y903D02*
X369Y903D01*
X1392Y903D02*
X1411Y903D01*
X1450Y903D02*
X1469Y903D01*
X293Y902D02*
X312Y902D01*
X350Y902D02*
X369Y902D01*
X1392Y902D02*
X1411Y902D01*
X1450Y902D02*
X1469Y902D01*
X293Y901D02*
X312Y901D01*
X350Y901D02*
X369Y901D01*
X1392Y901D02*
X1411Y901D01*
X1450Y901D02*
X1469Y901D01*
X293Y900D02*
X312Y900D01*
X350Y900D02*
X369Y900D01*
X1392Y900D02*
X1411Y900D01*
X1450Y900D02*
X1469Y900D01*
X293Y899D02*
X312Y899D01*
X350Y899D02*
X369Y899D01*
X1392Y899D02*
X1411Y899D01*
X1450Y899D02*
X1469Y899D01*
X293Y898D02*
X312Y898D01*
X350Y898D02*
X369Y898D01*
X1392Y898D02*
X1411Y898D01*
X1450Y898D02*
X1469Y898D01*
X293Y897D02*
X312Y897D01*
X350Y897D02*
X369Y897D01*
X1392Y897D02*
X1411Y897D01*
X1449Y897D02*
X1468Y897D01*
X293Y896D02*
X312Y896D01*
X350Y896D02*
X369Y896D01*
X1393Y896D02*
X1412Y896D01*
X1449Y896D02*
X1468Y896D01*
X293Y895D02*
X313Y895D01*
X349Y895D02*
X369Y895D01*
X1393Y895D02*
X1412Y895D01*
X1449Y895D02*
X1468Y895D01*
X293Y894D02*
X313Y894D01*
X349Y894D02*
X369Y894D01*
X1393Y894D02*
X1412Y894D01*
X1448Y894D02*
X1468Y894D01*
X294Y893D02*
X313Y893D01*
X349Y893D02*
X368Y893D01*
X1393Y893D02*
X1413Y893D01*
X1448Y893D02*
X1468Y893D01*
X294Y892D02*
X314Y892D01*
X348Y892D02*
X368Y892D01*
X1393Y892D02*
X1413Y892D01*
X1447Y892D02*
X1467Y892D01*
X294Y891D02*
X315Y891D01*
X347Y891D02*
X368Y891D01*
X1394Y891D02*
X1414Y891D01*
X1447Y891D02*
X1467Y891D01*
X295Y890D02*
X315Y890D01*
X347Y890D02*
X368Y890D01*
X1394Y890D02*
X1415Y890D01*
X1446Y890D02*
X1467Y890D01*
X295Y889D02*
X316Y889D01*
X346Y889D02*
X367Y889D01*
X1394Y889D02*
X1416Y889D01*
X1445Y889D02*
X1467Y889D01*
X295Y888D02*
X317Y888D01*
X345Y888D02*
X367Y888D01*
X1395Y888D02*
X1417Y888D01*
X1444Y888D02*
X1466Y888D01*
X296Y887D02*
X318Y887D01*
X344Y887D02*
X366Y887D01*
X1395Y887D02*
X1418Y887D01*
X1443Y887D02*
X1466Y887D01*
X296Y886D02*
X320Y886D01*
X343Y886D02*
X366Y886D01*
X1395Y886D02*
X1419Y886D01*
X1442Y886D02*
X1465Y886D01*
X297Y885D02*
X321Y885D01*
X341Y885D02*
X366Y885D01*
X1396Y885D02*
X1420Y885D01*
X1440Y885D02*
X1465Y885D01*
X297Y884D02*
X323Y884D01*
X339Y884D02*
X365Y884D01*
X1396Y884D02*
X1422Y884D01*
X1439Y884D02*
X1464Y884D01*
X298Y883D02*
X326Y883D01*
X336Y883D02*
X365Y883D01*
X1397Y883D02*
X1425Y883D01*
X1435Y883D02*
X1464Y883D01*
X298Y882D02*
X364Y882D01*
X1397Y882D02*
X1463Y882D01*
X299Y881D02*
X363Y881D01*
X1398Y881D02*
X1463Y881D01*
X299Y880D02*
X363Y880D01*
X1399Y880D02*
X1462Y880D01*
X300Y879D02*
X362Y879D01*
X1399Y879D02*
X1461Y879D01*
X301Y878D02*
X361Y878D01*
X1400Y878D02*
X1461Y878D01*
X301Y877D02*
X361Y877D01*
X1401Y877D02*
X1460Y877D01*
X302Y876D02*
X360Y876D01*
X1402Y876D02*
X1459Y876D01*
X303Y875D02*
X359Y875D01*
X1402Y875D02*
X1458Y875D01*
X304Y874D02*
X358Y874D01*
X1403Y874D02*
X1457Y874D01*
X305Y873D02*
X357Y873D01*
X1404Y873D02*
X1456Y873D01*
X306Y872D02*
X356Y872D01*
X1406Y872D02*
X1455Y872D01*
X308Y871D02*
X355Y871D01*
X1407Y871D02*
X1454Y871D01*
X309Y870D02*
X353Y870D01*
X1408Y870D02*
X1453Y870D01*
X310Y869D02*
X352Y869D01*
X1410Y869D02*
X1451Y869D01*
X312Y868D02*
X350Y868D01*
X1411Y868D02*
X1449Y868D01*
X314Y867D02*
X348Y867D01*
X1413Y867D02*
X1447Y867D01*
X316Y866D02*
X346Y866D01*
X1415Y866D02*
X1445Y866D01*
X319Y865D02*
X343Y865D01*
X1418Y865D02*
X1443Y865D01*
X322Y864D02*
X340Y864D01*
X1421Y864D02*
X1440Y864D01*
X326Y863D02*
X336Y863D01*
X1426Y863D02*
X1435Y863D01*
X326Y840D02*
X336Y840D01*
X1426Y840D02*
X1435Y840D01*
X322Y839D02*
X340Y839D01*
X1421Y839D02*
X1440Y839D01*
X319Y838D02*
X343Y838D01*
X1418Y838D02*
X1443Y838D01*
X316Y837D02*
X346Y837D01*
X1415Y837D02*
X1445Y837D01*
X314Y836D02*
X348Y836D01*
X1413Y836D02*
X1448Y836D01*
X312Y835D02*
X350Y835D01*
X1411Y835D02*
X1449Y835D01*
X310Y834D02*
X352Y834D01*
X1410Y834D02*
X1451Y834D01*
X309Y833D02*
X353Y833D01*
X1408Y833D02*
X1453Y833D01*
X307Y832D02*
X355Y832D01*
X1407Y832D02*
X1454Y832D01*
X306Y831D02*
X356Y831D01*
X1406Y831D02*
X1455Y831D01*
X305Y830D02*
X357Y830D01*
X1404Y830D02*
X1456Y830D01*
X304Y829D02*
X358Y829D01*
X1403Y829D02*
X1457Y829D01*
X303Y828D02*
X359Y828D01*
X1402Y828D02*
X1458Y828D01*
X302Y827D02*
X360Y827D01*
X1402Y827D02*
X1459Y827D01*
X301Y826D02*
X361Y826D01*
X1401Y826D02*
X1460Y826D01*
X301Y825D02*
X361Y825D01*
X1400Y825D02*
X1461Y825D01*
X300Y824D02*
X362Y824D01*
X1399Y824D02*
X1462Y824D01*
X299Y823D02*
X363Y823D01*
X1399Y823D02*
X1462Y823D01*
X299Y822D02*
X363Y822D01*
X1398Y822D02*
X1463Y822D01*
X298Y821D02*
X364Y821D01*
X1397Y821D02*
X1463Y821D01*
X297Y820D02*
X326Y820D01*
X336Y820D02*
X365Y820D01*
X1397Y820D02*
X1425Y820D01*
X1436Y820D02*
X1464Y820D01*
X297Y819D02*
X323Y819D01*
X339Y819D02*
X365Y819D01*
X1396Y819D02*
X1422Y819D01*
X1439Y819D02*
X1464Y819D01*
X297Y818D02*
X321Y818D01*
X341Y818D02*
X366Y818D01*
X1396Y818D02*
X1420Y818D01*
X1440Y818D02*
X1465Y818D01*
X296Y817D02*
X320Y817D01*
X343Y817D02*
X366Y817D01*
X1395Y817D02*
X1419Y817D01*
X1442Y817D02*
X1465Y817D01*
X296Y816D02*
X318Y816D01*
X344Y816D02*
X366Y816D01*
X1395Y816D02*
X1418Y816D01*
X1443Y816D02*
X1466Y816D01*
X295Y815D02*
X317Y815D01*
X345Y815D02*
X367Y815D01*
X1395Y815D02*
X1417Y815D01*
X1444Y815D02*
X1466Y815D01*
X295Y814D02*
X316Y814D01*
X346Y814D02*
X367Y814D01*
X1394Y814D02*
X1416Y814D01*
X1445Y814D02*
X1467Y814D01*
X295Y813D02*
X315Y813D01*
X347Y813D02*
X368Y813D01*
X1394Y813D02*
X1415Y813D01*
X1446Y813D02*
X1467Y813D01*
X294Y812D02*
X315Y812D01*
X347Y812D02*
X368Y812D01*
X1394Y812D02*
X1414Y812D01*
X1447Y812D02*
X1467Y812D01*
X294Y811D02*
X314Y811D01*
X348Y811D02*
X368Y811D01*
X1393Y811D02*
X1413Y811D01*
X1447Y811D02*
X1467Y811D01*
X294Y810D02*
X313Y810D01*
X349Y810D02*
X368Y810D01*
X1393Y810D02*
X1413Y810D01*
X1448Y810D02*
X1468Y810D01*
X293Y809D02*
X313Y809D01*
X349Y809D02*
X369Y809D01*
X1393Y809D02*
X1412Y809D01*
X1448Y809D02*
X1468Y809D01*
X293Y808D02*
X313Y808D01*
X349Y808D02*
X369Y808D01*
X1393Y808D02*
X1412Y808D01*
X1449Y808D02*
X1468Y808D01*
X293Y807D02*
X312Y807D01*
X350Y807D02*
X369Y807D01*
X1393Y807D02*
X1412Y807D01*
X1449Y807D02*
X1468Y807D01*
X293Y806D02*
X312Y806D01*
X350Y806D02*
X369Y806D01*
X1392Y806D02*
X1411Y806D01*
X1449Y806D02*
X1468Y806D01*
X293Y805D02*
X312Y805D01*
X350Y805D02*
X369Y805D01*
X1392Y805D02*
X1411Y805D01*
X1450Y805D02*
X1469Y805D01*
X293Y804D02*
X312Y804D01*
X350Y804D02*
X369Y804D01*
X1392Y804D02*
X1411Y804D01*
X1450Y804D02*
X1469Y804D01*
X293Y803D02*
X312Y803D01*
X350Y803D02*
X369Y803D01*
X1392Y803D02*
X1411Y803D01*
X1450Y803D02*
X1469Y803D01*
X293Y802D02*
X312Y802D01*
X350Y802D02*
X369Y802D01*
X1392Y802D02*
X1411Y802D01*
X1450Y802D02*
X1469Y802D01*
X293Y801D02*
X312Y801D01*
X350Y801D02*
X369Y801D01*
X1392Y801D02*
X1411Y801D01*
X1450Y801D02*
X1469Y801D01*
X293Y800D02*
X312Y800D01*
X350Y800D02*
X369Y800D01*
X1392Y800D02*
X1411Y800D01*
X1450Y800D02*
X1469Y800D01*
X293Y799D02*
X312Y799D01*
X350Y799D02*
X369Y799D01*
X1392Y799D02*
X1411Y799D01*
X1450Y799D02*
X1469Y799D01*
X293Y798D02*
X312Y798D01*
X350Y798D02*
X369Y798D01*
X1392Y798D02*
X1411Y798D01*
X1450Y798D02*
X1469Y798D01*
X293Y797D02*
X312Y797D01*
X350Y797D02*
X369Y797D01*
X1392Y797D02*
X1411Y797D01*
X1449Y797D02*
X1468Y797D01*
X293Y796D02*
X312Y796D01*
X350Y796D02*
X369Y796D01*
X1393Y796D02*
X1412Y796D01*
X1449Y796D02*
X1468Y796D01*
X293Y795D02*
X313Y795D01*
X349Y795D02*
X369Y795D01*
X1393Y795D02*
X1412Y795D01*
X1449Y795D02*
X1468Y795D01*
X293Y794D02*
X313Y794D01*
X349Y794D02*
X369Y794D01*
X1393Y794D02*
X1412Y794D01*
X1448Y794D02*
X1468Y794D01*
X294Y793D02*
X314Y793D01*
X349Y793D02*
X368Y793D01*
X1393Y793D02*
X1413Y793D01*
X1448Y793D02*
X1468Y793D01*
X294Y792D02*
X314Y792D01*
X348Y792D02*
X368Y792D01*
X1393Y792D02*
X1413Y792D01*
X1447Y792D02*
X1467Y792D01*
X294Y791D02*
X315Y791D01*
X347Y791D02*
X368Y791D01*
X1394Y791D02*
X1414Y791D01*
X1447Y791D02*
X1467Y791D01*
X295Y790D02*
X316Y790D01*
X347Y790D02*
X367Y790D01*
X1394Y790D02*
X1415Y790D01*
X1446Y790D02*
X1467Y790D01*
X295Y789D02*
X316Y789D01*
X346Y789D02*
X367Y789D01*
X1394Y789D02*
X1416Y789D01*
X1445Y789D02*
X1466Y789D01*
X295Y788D02*
X317Y788D01*
X345Y788D02*
X367Y788D01*
X1395Y788D02*
X1417Y788D01*
X1444Y788D02*
X1466Y788D01*
X296Y787D02*
X318Y787D01*
X344Y787D02*
X366Y787D01*
X1395Y787D02*
X1418Y787D01*
X1443Y787D02*
X1466Y787D01*
X296Y786D02*
X320Y786D01*
X342Y786D02*
X366Y786D01*
X1395Y786D02*
X1419Y786D01*
X1442Y786D02*
X1465Y786D01*
X297Y785D02*
X321Y785D01*
X341Y785D02*
X365Y785D01*
X1396Y785D02*
X1421Y785D01*
X1440Y785D02*
X1465Y785D01*
X297Y784D02*
X323Y784D01*
X339Y784D02*
X365Y784D01*
X1396Y784D02*
X1422Y784D01*
X1439Y784D02*
X1464Y784D01*
X298Y783D02*
X326Y783D01*
X336Y783D02*
X365Y783D01*
X1397Y783D02*
X1426Y783D01*
X1435Y783D02*
X1464Y783D01*
X298Y782D02*
X364Y782D01*
X1397Y782D02*
X1463Y782D01*
X299Y781D02*
X363Y781D01*
X1398Y781D02*
X1463Y781D01*
X299Y780D02*
X363Y780D01*
X1399Y780D02*
X1462Y780D01*
X300Y779D02*
X362Y779D01*
X1399Y779D02*
X1461Y779D01*
X301Y778D02*
X361Y778D01*
X1400Y778D02*
X1461Y778D01*
X301Y777D02*
X361Y777D01*
X1401Y777D02*
X1460Y777D01*
X302Y776D02*
X360Y776D01*
X1402Y776D02*
X1459Y776D01*
X303Y775D02*
X359Y775D01*
X1403Y775D02*
X1458Y775D01*
X304Y774D02*
X358Y774D01*
X1403Y774D02*
X1457Y774D01*
X305Y773D02*
X357Y773D01*
X1405Y773D02*
X1456Y773D01*
X306Y772D02*
X356Y772D01*
X1406Y772D02*
X1455Y772D01*
X308Y771D02*
X354Y771D01*
X1407Y771D02*
X1454Y771D01*
X309Y770D02*
X353Y770D01*
X1408Y770D02*
X1452Y770D01*
X310Y769D02*
X352Y769D01*
X1410Y769D02*
X1451Y769D01*
X312Y768D02*
X350Y768D01*
X1412Y768D02*
X1449Y768D01*
X314Y767D02*
X348Y767D01*
X1413Y767D02*
X1447Y767D01*
X316Y766D02*
X346Y766D01*
X1416Y766D02*
X1445Y766D01*
X319Y765D02*
X343Y765D01*
X1418Y765D02*
X1443Y765D01*
X322Y764D02*
X340Y764D01*
X1421Y764D02*
X1439Y764D01*
X327Y763D02*
X335Y763D01*
X1426Y763D02*
X1435Y763D01*
X326Y740D02*
X336Y740D01*
X1425Y740D02*
X1435Y740D01*
X321Y739D02*
X341Y739D01*
X1421Y739D02*
X1440Y739D01*
X318Y738D02*
X344Y738D01*
X1418Y738D02*
X1443Y738D01*
X316Y737D02*
X346Y737D01*
X1415Y737D02*
X1446Y737D01*
X314Y736D02*
X348Y736D01*
X1413Y736D02*
X1448Y736D01*
X312Y735D02*
X350Y735D01*
X1411Y735D02*
X1449Y735D01*
X310Y734D02*
X352Y734D01*
X1410Y734D02*
X1451Y734D01*
X309Y733D02*
X353Y733D01*
X1408Y733D02*
X1453Y733D01*
X307Y732D02*
X355Y732D01*
X1407Y732D02*
X1454Y732D01*
X306Y731D02*
X356Y731D01*
X1406Y731D02*
X1455Y731D01*
X305Y730D02*
X357Y730D01*
X1404Y730D02*
X1456Y730D01*
X304Y729D02*
X358Y729D01*
X1403Y729D02*
X1457Y729D01*
X303Y728D02*
X359Y728D01*
X1402Y728D02*
X1458Y728D01*
X302Y727D02*
X360Y727D01*
X1402Y727D02*
X1459Y727D01*
X301Y726D02*
X361Y726D01*
X1401Y726D02*
X1460Y726D01*
X301Y725D02*
X361Y725D01*
X1400Y725D02*
X1461Y725D01*
X300Y724D02*
X362Y724D01*
X1399Y724D02*
X1462Y724D01*
X299Y723D02*
X363Y723D01*
X1399Y723D02*
X1462Y723D01*
X299Y722D02*
X363Y722D01*
X1398Y722D02*
X1463Y722D01*
X298Y721D02*
X364Y721D01*
X1397Y721D02*
X1463Y721D01*
X297Y720D02*
X326Y720D01*
X336Y720D02*
X365Y720D01*
X1397Y720D02*
X1425Y720D01*
X1436Y720D02*
X1464Y720D01*
X297Y719D02*
X323Y719D01*
X339Y719D02*
X365Y719D01*
X1396Y719D02*
X1422Y719D01*
X1439Y719D02*
X1464Y719D01*
X297Y718D02*
X321Y718D01*
X341Y718D02*
X366Y718D01*
X1396Y718D02*
X1420Y718D01*
X1441Y718D02*
X1465Y718D01*
X296Y717D02*
X319Y717D01*
X343Y717D02*
X366Y717D01*
X1395Y717D02*
X1419Y717D01*
X1442Y717D02*
X1465Y717D01*
X296Y716D02*
X318Y716D01*
X344Y716D02*
X366Y716D01*
X1395Y716D02*
X1418Y716D01*
X1443Y716D02*
X1466Y716D01*
X295Y715D02*
X317Y715D01*
X345Y715D02*
X367Y715D01*
X1395Y715D02*
X1417Y715D01*
X1444Y715D02*
X1466Y715D01*
X295Y714D02*
X316Y714D01*
X346Y714D02*
X367Y714D01*
X1394Y714D02*
X1416Y714D01*
X1445Y714D02*
X1467Y714D01*
X295Y713D02*
X315Y713D01*
X347Y713D02*
X368Y713D01*
X1394Y713D02*
X1415Y713D01*
X1446Y713D02*
X1467Y713D01*
X294Y712D02*
X315Y712D01*
X347Y712D02*
X368Y712D01*
X1394Y712D02*
X1414Y712D01*
X1447Y712D02*
X1467Y712D01*
X294Y711D02*
X314Y711D01*
X348Y711D02*
X368Y711D01*
X1393Y711D02*
X1413Y711D01*
X1447Y711D02*
X1467Y711D01*
X294Y710D02*
X313Y710D01*
X349Y710D02*
X368Y710D01*
X1393Y710D02*
X1413Y710D01*
X1448Y710D02*
X1468Y710D01*
X293Y709D02*
X313Y709D01*
X349Y709D02*
X369Y709D01*
X1393Y709D02*
X1412Y709D01*
X1448Y709D02*
X1468Y709D01*
X293Y708D02*
X313Y708D01*
X349Y708D02*
X369Y708D01*
X1393Y708D02*
X1412Y708D01*
X1449Y708D02*
X1468Y708D01*
X293Y707D02*
X312Y707D01*
X350Y707D02*
X369Y707D01*
X1392Y707D02*
X1412Y707D01*
X1449Y707D02*
X1468Y707D01*
X293Y706D02*
X312Y706D01*
X350Y706D02*
X369Y706D01*
X1392Y706D02*
X1411Y706D01*
X1449Y706D02*
X1468Y706D01*
X293Y705D02*
X312Y705D01*
X350Y705D02*
X369Y705D01*
X1392Y705D02*
X1411Y705D01*
X1450Y705D02*
X1469Y705D01*
X293Y704D02*
X312Y704D01*
X350Y704D02*
X369Y704D01*
X1392Y704D02*
X1411Y704D01*
X1450Y704D02*
X1469Y704D01*
X293Y703D02*
X312Y703D01*
X350Y703D02*
X369Y703D01*
X1392Y703D02*
X1411Y703D01*
X1450Y703D02*
X1469Y703D01*
X293Y702D02*
X312Y702D01*
X350Y702D02*
X369Y702D01*
X1392Y702D02*
X1411Y702D01*
X1450Y702D02*
X1469Y702D01*
X293Y701D02*
X312Y701D01*
X350Y701D02*
X369Y701D01*
X1392Y701D02*
X1411Y701D01*
X1450Y701D02*
X1469Y701D01*
X293Y700D02*
X312Y700D01*
X350Y700D02*
X369Y700D01*
X1392Y700D02*
X1411Y700D01*
X1450Y700D02*
X1469Y700D01*
X293Y699D02*
X312Y699D01*
X350Y699D02*
X369Y699D01*
X1392Y699D02*
X1411Y699D01*
X1450Y699D02*
X1469Y699D01*
X293Y698D02*
X312Y698D01*
X350Y698D02*
X369Y698D01*
X1392Y698D02*
X1411Y698D01*
X1450Y698D02*
X1469Y698D01*
X293Y697D02*
X312Y697D01*
X350Y697D02*
X369Y697D01*
X1392Y697D02*
X1411Y697D01*
X1449Y697D02*
X1468Y697D01*
X293Y696D02*
X312Y696D01*
X350Y696D02*
X369Y696D01*
X1393Y696D02*
X1412Y696D01*
X1449Y696D02*
X1468Y696D01*
X293Y695D02*
X313Y695D01*
X349Y695D02*
X369Y695D01*
X1393Y695D02*
X1412Y695D01*
X1449Y695D02*
X1468Y695D01*
X293Y694D02*
X313Y694D01*
X349Y694D02*
X369Y694D01*
X1393Y694D02*
X1412Y694D01*
X1448Y694D02*
X1468Y694D01*
X294Y693D02*
X314Y693D01*
X348Y693D02*
X368Y693D01*
X1393Y693D02*
X1413Y693D01*
X1448Y693D02*
X1468Y693D01*
X294Y692D02*
X314Y692D01*
X348Y692D02*
X368Y692D01*
X1393Y692D02*
X1413Y692D01*
X1447Y692D02*
X1467Y692D01*
X294Y691D02*
X315Y691D01*
X347Y691D02*
X368Y691D01*
X1394Y691D02*
X1414Y691D01*
X1447Y691D02*
X1467Y691D01*
X295Y690D02*
X316Y690D01*
X346Y690D02*
X367Y690D01*
X1394Y690D02*
X1415Y690D01*
X1446Y690D02*
X1467Y690D01*
X295Y689D02*
X316Y689D01*
X346Y689D02*
X367Y689D01*
X1394Y689D02*
X1416Y689D01*
X1445Y689D02*
X1466Y689D01*
X295Y688D02*
X317Y688D01*
X345Y688D02*
X367Y688D01*
X1395Y688D02*
X1417Y688D01*
X1444Y688D02*
X1466Y688D01*
X296Y687D02*
X319Y687D01*
X344Y687D02*
X366Y687D01*
X1395Y687D02*
X1418Y687D01*
X1443Y687D02*
X1466Y687D01*
X296Y686D02*
X320Y686D01*
X342Y686D02*
X366Y686D01*
X1395Y686D02*
X1419Y686D01*
X1442Y686D02*
X1465Y686D01*
X297Y685D02*
X321Y685D01*
X341Y685D02*
X365Y685D01*
X1396Y685D02*
X1421Y685D01*
X1440Y685D02*
X1465Y685D01*
X297Y684D02*
X323Y684D01*
X339Y684D02*
X365Y684D01*
X1396Y684D02*
X1422Y684D01*
X1438Y684D02*
X1464Y684D01*
X298Y683D02*
X326Y683D01*
X336Y683D02*
X364Y683D01*
X1397Y683D02*
X1426Y683D01*
X1435Y683D02*
X1464Y683D01*
X298Y682D02*
X364Y682D01*
X1398Y682D02*
X1463Y682D01*
X299Y681D02*
X363Y681D01*
X1398Y681D02*
X1463Y681D01*
X299Y680D02*
X363Y680D01*
X1399Y680D02*
X1462Y680D01*
X300Y679D02*
X362Y679D01*
X1399Y679D02*
X1461Y679D01*
X301Y678D02*
X361Y678D01*
X1400Y678D02*
X1461Y678D01*
X301Y677D02*
X361Y677D01*
X1401Y677D02*
X1460Y677D01*
X302Y676D02*
X360Y676D01*
X1402Y676D02*
X1459Y676D01*
X303Y675D02*
X359Y675D01*
X1403Y675D02*
X1458Y675D01*
X304Y674D02*
X358Y674D01*
X1404Y674D02*
X1457Y674D01*
X305Y673D02*
X357Y673D01*
X1405Y673D02*
X1456Y673D01*
X306Y672D02*
X356Y672D01*
X1406Y672D02*
X1455Y672D01*
X308Y671D02*
X354Y671D01*
X1407Y671D02*
X1454Y671D01*
X309Y670D02*
X353Y670D01*
X1408Y670D02*
X1452Y670D01*
X311Y669D02*
X351Y669D01*
X1410Y669D02*
X1451Y669D01*
X312Y668D02*
X350Y668D01*
X1412Y668D02*
X1449Y668D01*
X314Y667D02*
X348Y667D01*
X1414Y667D02*
X1447Y667D01*
X316Y666D02*
X346Y666D01*
X1416Y666D02*
X1445Y666D01*
X319Y665D02*
X343Y665D01*
X1418Y665D02*
X1443Y665D01*
X322Y664D02*
X340Y664D01*
X1422Y664D02*
X1439Y664D01*
X327Y663D02*
X335Y663D01*
X1427Y663D02*
X1434Y663D01*
X326Y640D02*
X336Y640D01*
X1425Y640D02*
X1436Y640D01*
X321Y639D02*
X341Y639D01*
X1421Y639D02*
X1440Y639D01*
X318Y638D02*
X344Y638D01*
X1418Y638D02*
X1443Y638D01*
X316Y637D02*
X346Y637D01*
X1415Y637D02*
X1446Y637D01*
X314Y636D02*
X348Y636D01*
X1413Y636D02*
X1448Y636D01*
X312Y635D02*
X350Y635D01*
X1411Y635D02*
X1450Y635D01*
X310Y634D02*
X352Y634D01*
X1410Y634D02*
X1451Y634D01*
X309Y633D02*
X353Y633D01*
X1408Y633D02*
X1453Y633D01*
X307Y632D02*
X355Y632D01*
X1407Y632D02*
X1454Y632D01*
X306Y631D02*
X356Y631D01*
X1405Y631D02*
X1455Y631D01*
X305Y630D02*
X357Y630D01*
X1404Y630D02*
X1456Y630D01*
X304Y629D02*
X358Y629D01*
X1403Y629D02*
X1458Y629D01*
X303Y628D02*
X359Y628D01*
X1402Y628D02*
X1458Y628D01*
X302Y627D02*
X360Y627D01*
X1401Y627D02*
X1459Y627D01*
X301Y626D02*
X361Y626D01*
X1401Y626D02*
X1460Y626D01*
X301Y625D02*
X361Y625D01*
X1400Y625D02*
X1461Y625D01*
X300Y624D02*
X362Y624D01*
X1399Y624D02*
X1462Y624D01*
X299Y623D02*
X363Y623D01*
X1399Y623D02*
X1462Y623D01*
X299Y622D02*
X363Y622D01*
X1398Y622D02*
X1463Y622D01*
X298Y621D02*
X364Y621D01*
X1397Y621D02*
X1463Y621D01*
X297Y620D02*
X325Y620D01*
X337Y620D02*
X365Y620D01*
X1397Y620D02*
X1425Y620D01*
X1436Y620D02*
X1464Y620D01*
X297Y619D02*
X323Y619D01*
X339Y619D02*
X365Y619D01*
X1396Y619D02*
X1422Y619D01*
X1439Y619D02*
X1464Y619D01*
X296Y618D02*
X321Y618D01*
X341Y618D02*
X366Y618D01*
X1396Y618D02*
X1420Y618D01*
X1441Y618D02*
X1465Y618D01*
X296Y617D02*
X319Y617D01*
X343Y617D02*
X366Y617D01*
X1395Y617D02*
X1419Y617D01*
X1442Y617D02*
X1465Y617D01*
X296Y616D02*
X318Y616D01*
X344Y616D02*
X366Y616D01*
X1395Y616D02*
X1418Y616D01*
X1443Y616D02*
X1466Y616D01*
X295Y615D02*
X317Y615D01*
X345Y615D02*
X367Y615D01*
X1395Y615D02*
X1416Y615D01*
X1444Y615D02*
X1466Y615D01*
X295Y614D02*
X316Y614D01*
X346Y614D02*
X367Y614D01*
X1394Y614D02*
X1416Y614D01*
X1445Y614D02*
X1467Y614D01*
X295Y613D02*
X315Y613D01*
X347Y613D02*
X368Y613D01*
X1394Y613D02*
X1415Y613D01*
X1446Y613D02*
X1467Y613D01*
X294Y612D02*
X315Y612D01*
X347Y612D02*
X368Y612D01*
X1394Y612D02*
X1414Y612D01*
X1447Y612D02*
X1467Y612D01*
X294Y611D02*
X314Y611D01*
X348Y611D02*
X368Y611D01*
X1393Y611D02*
X1413Y611D01*
X1447Y611D02*
X1467Y611D01*
X294Y610D02*
X313Y610D01*
X349Y610D02*
X368Y610D01*
X1393Y610D02*
X1413Y610D01*
X1448Y610D02*
X1468Y610D01*
X293Y609D02*
X313Y609D01*
X349Y609D02*
X369Y609D01*
X1393Y609D02*
X1412Y609D01*
X1449Y609D02*
X1468Y609D01*
X293Y608D02*
X313Y608D01*
X349Y608D02*
X369Y608D01*
X1393Y608D02*
X1412Y608D01*
X1449Y608D02*
X1468Y608D01*
X293Y607D02*
X312Y607D01*
X350Y607D02*
X369Y607D01*
X1392Y607D02*
X1412Y607D01*
X1449Y607D02*
X1468Y607D01*
X293Y606D02*
X312Y606D01*
X350Y606D02*
X369Y606D01*
X1392Y606D02*
X1411Y606D01*
X1449Y606D02*
X1468Y606D01*
X293Y605D02*
X312Y605D01*
X350Y605D02*
X369Y605D01*
X1392Y605D02*
X1411Y605D01*
X1450Y605D02*
X1469Y605D01*
X293Y604D02*
X312Y604D01*
X350Y604D02*
X369Y604D01*
X1392Y604D02*
X1411Y604D01*
X1450Y604D02*
X1469Y604D01*
X293Y603D02*
X312Y603D01*
X350Y603D02*
X369Y603D01*
X1392Y603D02*
X1411Y603D01*
X1450Y603D02*
X1469Y603D01*
X293Y602D02*
X312Y602D01*
X350Y602D02*
X369Y602D01*
X1392Y602D02*
X1411Y602D01*
X1450Y602D02*
X1469Y602D01*
X293Y601D02*
X312Y601D01*
X350Y601D02*
X369Y601D01*
X1392Y601D02*
X1411Y601D01*
X1450Y601D02*
X1469Y601D01*
X293Y600D02*
X312Y600D01*
X350Y600D02*
X369Y600D01*
X1392Y600D02*
X1411Y600D01*
X1450Y600D02*
X1469Y600D01*
X293Y599D02*
X312Y599D01*
X350Y599D02*
X369Y599D01*
X1392Y599D02*
X1411Y599D01*
X1450Y599D02*
X1469Y599D01*
X293Y598D02*
X312Y598D01*
X350Y598D02*
X369Y598D01*
X1392Y598D02*
X1411Y598D01*
X1450Y598D02*
X1469Y598D01*
X293Y597D02*
X312Y597D01*
X350Y597D02*
X369Y597D01*
X1392Y597D02*
X1411Y597D01*
X1449Y597D02*
X1468Y597D01*
X293Y596D02*
X312Y596D01*
X350Y596D02*
X369Y596D01*
X1393Y596D02*
X1412Y596D01*
X1449Y596D02*
X1468Y596D01*
X293Y595D02*
X313Y595D01*
X349Y595D02*
X369Y595D01*
X1393Y595D02*
X1412Y595D01*
X1449Y595D02*
X1468Y595D01*
X294Y594D02*
X313Y594D01*
X349Y594D02*
X369Y594D01*
X1393Y594D02*
X1412Y594D01*
X1448Y594D02*
X1468Y594D01*
X294Y593D02*
X314Y593D01*
X348Y593D02*
X368Y593D01*
X1393Y593D02*
X1413Y593D01*
X1448Y593D02*
X1468Y593D01*
X294Y592D02*
X314Y592D01*
X348Y592D02*
X368Y592D01*
X1393Y592D02*
X1414Y592D01*
X1447Y592D02*
X1467Y592D01*
X294Y591D02*
X315Y591D01*
X347Y591D02*
X368Y591D01*
X1394Y591D02*
X1414Y591D01*
X1447Y591D02*
X1467Y591D01*
X295Y590D02*
X316Y590D01*
X346Y590D02*
X367Y590D01*
X1394Y590D02*
X1415Y590D01*
X1446Y590D02*
X1467Y590D01*
X295Y589D02*
X316Y589D01*
X346Y589D02*
X367Y589D01*
X1394Y589D02*
X1416Y589D01*
X1445Y589D02*
X1466Y589D01*
X295Y588D02*
X317Y588D01*
X345Y588D02*
X367Y588D01*
X1395Y588D02*
X1417Y588D01*
X1444Y588D02*
X1466Y588D01*
X296Y587D02*
X319Y587D01*
X343Y587D02*
X366Y587D01*
X1395Y587D02*
X1418Y587D01*
X1443Y587D02*
X1466Y587D01*
X296Y586D02*
X320Y586D01*
X342Y586D02*
X366Y586D01*
X1396Y586D02*
X1419Y586D01*
X1442Y586D02*
X1465Y586D01*
X297Y585D02*
X321Y585D01*
X341Y585D02*
X365Y585D01*
X1396Y585D02*
X1421Y585D01*
X1440Y585D02*
X1465Y585D01*
X297Y584D02*
X323Y584D01*
X339Y584D02*
X365Y584D01*
X1396Y584D02*
X1423Y584D01*
X1438Y584D02*
X1464Y584D01*
X298Y583D02*
X327Y583D01*
X335Y583D02*
X364Y583D01*
X1397Y583D02*
X1426Y583D01*
X1435Y583D02*
X1464Y583D01*
X298Y582D02*
X364Y582D01*
X1398Y582D02*
X1463Y582D01*
X299Y581D02*
X363Y581D01*
X1398Y581D02*
X1463Y581D01*
X299Y580D02*
X363Y580D01*
X1399Y580D02*
X1462Y580D01*
X300Y579D02*
X362Y579D01*
X1399Y579D02*
X1461Y579D01*
X301Y578D02*
X361Y578D01*
X1400Y578D02*
X1461Y578D01*
X302Y577D02*
X361Y577D01*
X1401Y577D02*
X1460Y577D01*
X302Y576D02*
X360Y576D01*
X1402Y576D02*
X1459Y576D01*
X303Y575D02*
X359Y575D01*
X1403Y575D02*
X1458Y575D01*
X304Y574D02*
X358Y574D01*
X1404Y574D02*
X1457Y574D01*
X305Y573D02*
X357Y573D01*
X1405Y573D02*
X1456Y573D01*
X306Y572D02*
X356Y572D01*
X1406Y572D02*
X1455Y572D01*
X308Y571D02*
X354Y571D01*
X1407Y571D02*
X1454Y571D01*
X309Y570D02*
X353Y570D01*
X1408Y570D02*
X1452Y570D01*
X311Y569D02*
X351Y569D01*
X1410Y569D02*
X1451Y569D01*
X312Y568D02*
X350Y568D01*
X1412Y568D02*
X1449Y568D01*
X314Y567D02*
X348Y567D01*
X1414Y567D02*
X1447Y567D01*
X316Y566D02*
X346Y566D01*
X1416Y566D02*
X1445Y566D01*
X319Y565D02*
X343Y565D01*
X1418Y565D02*
X1442Y565D01*
X322Y564D02*
X340Y564D01*
X1422Y564D02*
X1439Y564D01*
X327Y563D02*
X335Y563D01*
X1427Y563D02*
X1434Y563D01*
X325Y540D02*
X337Y540D01*
X1425Y540D02*
X1436Y540D01*
X321Y539D02*
X341Y539D01*
X1420Y539D02*
X1440Y539D01*
X318Y538D02*
X344Y538D01*
X1418Y538D02*
X1443Y538D01*
X316Y537D02*
X346Y537D01*
X1415Y537D02*
X1446Y537D01*
X314Y536D02*
X348Y536D01*
X1413Y536D02*
X1448Y536D01*
X312Y535D02*
X350Y535D01*
X1411Y535D02*
X1450Y535D01*
X310Y534D02*
X352Y534D01*
X1409Y534D02*
X1451Y534D01*
X309Y533D02*
X353Y533D01*
X1408Y533D02*
X1453Y533D01*
X307Y532D02*
X355Y532D01*
X1407Y532D02*
X1454Y532D01*
X306Y531D02*
X356Y531D01*
X1405Y531D02*
X1455Y531D01*
X305Y530D02*
X357Y530D01*
X1404Y530D02*
X1457Y530D01*
X304Y529D02*
X358Y529D01*
X1403Y529D02*
X1458Y529D01*
X303Y528D02*
X359Y528D01*
X1402Y528D02*
X1458Y528D01*
X302Y527D02*
X360Y527D01*
X1401Y527D02*
X1459Y527D01*
X301Y526D02*
X361Y526D01*
X1401Y526D02*
X1460Y526D01*
X301Y525D02*
X362Y525D01*
X1400Y525D02*
X1461Y525D01*
X300Y524D02*
X362Y524D01*
X1399Y524D02*
X1462Y524D01*
X299Y523D02*
X363Y523D01*
X1399Y523D02*
X1462Y523D01*
X299Y522D02*
X363Y522D01*
X1398Y522D02*
X1463Y522D01*
X298Y521D02*
X364Y521D01*
X1397Y521D02*
X1463Y521D01*
X297Y520D02*
X325Y520D01*
X337Y520D02*
X365Y520D01*
X1397Y520D02*
X1425Y520D01*
X1436Y520D02*
X1464Y520D01*
X297Y519D02*
X322Y519D01*
X340Y519D02*
X365Y519D01*
X1396Y519D02*
X1422Y519D01*
X1439Y519D02*
X1464Y519D01*
X296Y518D02*
X321Y518D01*
X341Y518D02*
X366Y518D01*
X1396Y518D02*
X1420Y518D01*
X1441Y518D02*
X1465Y518D01*
X296Y517D02*
X319Y517D01*
X343Y517D02*
X366Y517D01*
X1395Y517D02*
X1419Y517D01*
X1442Y517D02*
X1465Y517D01*
X296Y516D02*
X318Y516D01*
X344Y516D02*
X366Y516D01*
X1395Y516D02*
X1418Y516D01*
X1443Y516D02*
X1466Y516D01*
X295Y515D02*
X317Y515D01*
X345Y515D02*
X367Y515D01*
X1395Y515D02*
X1416Y515D01*
X1444Y515D02*
X1466Y515D01*
X295Y514D02*
X316Y514D01*
X346Y514D02*
X367Y514D01*
X1394Y514D02*
X1416Y514D01*
X1445Y514D02*
X1467Y514D01*
X294Y513D02*
X315Y513D01*
X347Y513D02*
X368Y513D01*
X1394Y513D02*
X1415Y513D01*
X1446Y513D02*
X1467Y513D01*
X294Y512D02*
X315Y512D01*
X348Y512D02*
X368Y512D01*
X1394Y512D02*
X1414Y512D01*
X1447Y512D02*
X1467Y512D01*
X294Y511D02*
X314Y511D01*
X348Y511D02*
X368Y511D01*
X1393Y511D02*
X1413Y511D01*
X1447Y511D02*
X1467Y511D01*
X294Y510D02*
X313Y510D01*
X349Y510D02*
X368Y510D01*
X1393Y510D02*
X1413Y510D01*
X1448Y510D02*
X1468Y510D01*
X293Y509D02*
X313Y509D01*
X349Y509D02*
X369Y509D01*
X1393Y509D02*
X1412Y509D01*
X1449Y509D02*
X1468Y509D01*
X293Y508D02*
X313Y508D01*
X349Y508D02*
X369Y508D01*
X1393Y508D02*
X1412Y508D01*
X1449Y508D02*
X1468Y508D01*
X293Y507D02*
X312Y507D01*
X350Y507D02*
X369Y507D01*
X1392Y507D02*
X1412Y507D01*
X1449Y507D02*
X1468Y507D01*
X293Y506D02*
X312Y506D01*
X350Y506D02*
X369Y506D01*
X1392Y506D02*
X1411Y506D01*
X1449Y506D02*
X1468Y506D01*
X293Y505D02*
X312Y505D01*
X350Y505D02*
X369Y505D01*
X1392Y505D02*
X1411Y505D01*
X1450Y505D02*
X1469Y505D01*
X293Y504D02*
X312Y504D01*
X350Y504D02*
X369Y504D01*
X1392Y504D02*
X1411Y504D01*
X1450Y504D02*
X1469Y504D01*
X293Y503D02*
X312Y503D01*
X350Y503D02*
X369Y503D01*
X1392Y503D02*
X1411Y503D01*
X1450Y503D02*
X1469Y503D01*
X293Y502D02*
X312Y502D01*
X350Y502D02*
X369Y502D01*
X1392Y502D02*
X1411Y502D01*
X1450Y502D02*
X1469Y502D01*
X293Y501D02*
X312Y501D01*
X350Y501D02*
X369Y501D01*
X1392Y501D02*
X1411Y501D01*
X1450Y501D02*
X1469Y501D01*
X293Y500D02*
X312Y500D01*
X350Y500D02*
X369Y500D01*
X1392Y500D02*
X1411Y500D01*
X1450Y500D02*
X1469Y500D01*
X293Y499D02*
X312Y499D01*
X350Y499D02*
X369Y499D01*
X1392Y499D02*
X1411Y499D01*
X1450Y499D02*
X1469Y499D01*
X293Y498D02*
X312Y498D01*
X350Y498D02*
X369Y498D01*
X1392Y498D02*
X1411Y498D01*
X1450Y498D02*
X1469Y498D01*
X293Y497D02*
X312Y497D01*
X350Y497D02*
X369Y497D01*
X1392Y497D02*
X1411Y497D01*
X1449Y497D02*
X1468Y497D01*
X293Y496D02*
X312Y496D01*
X350Y496D02*
X369Y496D01*
X1393Y496D02*
X1412Y496D01*
X1449Y496D02*
X1468Y496D01*
X293Y495D02*
X313Y495D01*
X349Y495D02*
X369Y495D01*
X1393Y495D02*
X1412Y495D01*
X1449Y495D02*
X1468Y495D01*
X294Y494D02*
X313Y494D01*
X349Y494D02*
X369Y494D01*
X1393Y494D02*
X1412Y494D01*
X1448Y494D02*
X1468Y494D01*
X294Y493D02*
X314Y493D01*
X348Y493D02*
X368Y493D01*
X1393Y493D02*
X1413Y493D01*
X1448Y493D02*
X1468Y493D01*
X294Y492D02*
X314Y492D01*
X348Y492D02*
X368Y492D01*
X1393Y492D02*
X1414Y492D01*
X1447Y492D02*
X1467Y492D01*
X294Y491D02*
X315Y491D01*
X347Y491D02*
X368Y491D01*
X1394Y491D02*
X1414Y491D01*
X1447Y491D02*
X1467Y491D01*
X295Y490D02*
X316Y490D01*
X346Y490D02*
X367Y490D01*
X1394Y490D02*
X1415Y490D01*
X1446Y490D02*
X1467Y490D01*
X295Y489D02*
X317Y489D01*
X346Y489D02*
X367Y489D01*
X1394Y489D02*
X1416Y489D01*
X1445Y489D02*
X1466Y489D01*
X295Y488D02*
X317Y488D01*
X345Y488D02*
X367Y488D01*
X1395Y488D02*
X1417Y488D01*
X1444Y488D02*
X1466Y488D01*
X296Y487D02*
X319Y487D01*
X343Y487D02*
X366Y487D01*
X1395Y487D02*
X1418Y487D01*
X1443Y487D02*
X1466Y487D01*
X296Y486D02*
X320Y486D01*
X342Y486D02*
X366Y486D01*
X1396Y486D02*
X1419Y486D01*
X1442Y486D02*
X1465Y486D01*
X297Y485D02*
X321Y485D01*
X341Y485D02*
X365Y485D01*
X1396Y485D02*
X1421Y485D01*
X1440Y485D02*
X1465Y485D01*
X297Y484D02*
X323Y484D01*
X339Y484D02*
X365Y484D01*
X1396Y484D02*
X1423Y484D01*
X1438Y484D02*
X1464Y484D01*
X298Y483D02*
X327Y483D01*
X335Y483D02*
X364Y483D01*
X1397Y483D02*
X1426Y483D01*
X1434Y483D02*
X1464Y483D01*
X298Y482D02*
X364Y482D01*
X1398Y482D02*
X1463Y482D01*
X299Y481D02*
X363Y481D01*
X1398Y481D02*
X1463Y481D01*
X299Y480D02*
X363Y480D01*
X1399Y480D02*
X1462Y480D01*
X300Y479D02*
X362Y479D01*
X1399Y479D02*
X1461Y479D01*
X301Y478D02*
X361Y478D01*
X1400Y478D02*
X1461Y478D01*
X302Y477D02*
X361Y477D01*
X1401Y477D02*
X1460Y477D01*
X302Y476D02*
X360Y476D01*
X1402Y476D02*
X1459Y476D01*
X303Y475D02*
X359Y475D01*
X1403Y475D02*
X1458Y475D01*
X304Y474D02*
X358Y474D01*
X1404Y474D02*
X1457Y474D01*
X305Y473D02*
X357Y473D01*
X1405Y473D02*
X1456Y473D01*
X306Y472D02*
X356Y472D01*
X1406Y472D02*
X1455Y472D01*
X308Y471D02*
X354Y471D01*
X1407Y471D02*
X1454Y471D01*
X309Y470D02*
X353Y470D01*
X1409Y470D02*
X1452Y470D01*
X311Y469D02*
X351Y469D01*
X1410Y469D02*
X1451Y469D01*
X312Y468D02*
X350Y468D01*
X1412Y468D02*
X1449Y468D01*
X314Y467D02*
X348Y467D01*
X1414Y467D02*
X1447Y467D01*
X317Y466D02*
X346Y466D01*
X1416Y466D02*
X1445Y466D01*
X319Y465D02*
X343Y465D01*
X1419Y465D02*
X1442Y465D01*
X323Y464D02*
X340Y464D01*
X1422Y464D02*
X1439Y464D01*
X328Y463D02*
X334Y463D01*
X1427Y463D02*
X1434Y463D01*
X328Y440D02*
X334Y440D01*
X1428Y440D02*
X1433Y440D01*
X323Y439D02*
X339Y439D01*
X1422Y439D02*
X1439Y439D01*
X319Y438D02*
X343Y438D01*
X1419Y438D02*
X1442Y438D01*
X317Y437D02*
X345Y437D01*
X1416Y437D02*
X1445Y437D01*
X314Y436D02*
X348Y436D01*
X1414Y436D02*
X1447Y436D01*
X312Y435D02*
X350Y435D01*
X1412Y435D02*
X1449Y435D01*
X311Y434D02*
X351Y434D01*
X1410Y434D02*
X1451Y434D01*
X309Y433D02*
X353Y433D01*
X1409Y433D02*
X1452Y433D01*
X308Y432D02*
X354Y432D01*
X1407Y432D02*
X1454Y432D01*
X306Y431D02*
X356Y431D01*
X1406Y431D02*
X1455Y431D01*
X305Y430D02*
X357Y430D01*
X1405Y430D02*
X1456Y430D01*
X304Y429D02*
X358Y429D01*
X1404Y429D02*
X1457Y429D01*
X303Y428D02*
X359Y428D01*
X1403Y428D02*
X1458Y428D01*
X302Y427D02*
X360Y427D01*
X1402Y427D02*
X1459Y427D01*
X302Y426D02*
X360Y426D01*
X1401Y426D02*
X1460Y426D01*
X301Y425D02*
X361Y425D01*
X1400Y425D02*
X1461Y425D01*
X300Y424D02*
X362Y424D01*
X1399Y424D02*
X1461Y424D01*
X299Y423D02*
X363Y423D01*
X1399Y423D02*
X1462Y423D01*
X299Y422D02*
X363Y422D01*
X1398Y422D02*
X1463Y422D01*
X298Y421D02*
X364Y421D01*
X1398Y421D02*
X1463Y421D01*
X298Y420D02*
X327Y420D01*
X335Y420D02*
X364Y420D01*
X1397Y420D02*
X1427Y420D01*
X1434Y420D02*
X1464Y420D01*
X297Y419D02*
X323Y419D01*
X339Y419D02*
X365Y419D01*
X1396Y419D02*
X1423Y419D01*
X1438Y419D02*
X1464Y419D01*
X297Y418D02*
X321Y418D01*
X341Y418D02*
X365Y418D01*
X1396Y418D02*
X1421Y418D01*
X1440Y418D02*
X1465Y418D01*
X296Y417D02*
X320Y417D01*
X342Y417D02*
X366Y417D01*
X1396Y417D02*
X1419Y417D01*
X1442Y417D02*
X1465Y417D01*
X296Y416D02*
X319Y416D01*
X343Y416D02*
X366Y416D01*
X1395Y416D02*
X1418Y416D01*
X1443Y416D02*
X1466Y416D01*
X295Y415D02*
X317Y415D01*
X345Y415D02*
X367Y415D01*
X1395Y415D02*
X1417Y415D01*
X1444Y415D02*
X1466Y415D01*
X295Y414D02*
X317Y414D01*
X346Y414D02*
X367Y414D01*
X1394Y414D02*
X1416Y414D01*
X1445Y414D02*
X1466Y414D01*
X295Y413D02*
X316Y413D01*
X346Y413D02*
X367Y413D01*
X1394Y413D02*
X1415Y413D01*
X1446Y413D02*
X1467Y413D01*
X294Y412D02*
X315Y412D01*
X347Y412D02*
X368Y412D01*
X1394Y412D02*
X1414Y412D01*
X1447Y412D02*
X1467Y412D01*
X294Y411D02*
X314Y411D01*
X348Y411D02*
X368Y411D01*
X1393Y411D02*
X1414Y411D01*
X1447Y411D02*
X1467Y411D01*
X294Y410D02*
X314Y410D01*
X348Y410D02*
X368Y410D01*
X1393Y410D02*
X1413Y410D01*
X1448Y410D02*
X1468Y410D01*
X294Y409D02*
X313Y409D01*
X349Y409D02*
X369Y409D01*
X1393Y409D02*
X1412Y409D01*
X1448Y409D02*
X1468Y409D01*
X293Y408D02*
X313Y408D01*
X349Y408D02*
X369Y408D01*
X1393Y408D02*
X1412Y408D01*
X1449Y408D02*
X1468Y408D01*
X293Y407D02*
X312Y407D01*
X350Y407D02*
X369Y407D01*
X1393Y407D02*
X1412Y407D01*
X1449Y407D02*
X1468Y407D01*
X293Y406D02*
X312Y406D01*
X350Y406D02*
X369Y406D01*
X1392Y406D02*
X1411Y406D01*
X1449Y406D02*
X1468Y406D01*
X293Y405D02*
X312Y405D01*
X350Y405D02*
X369Y405D01*
X1392Y405D02*
X1411Y405D01*
X1450Y405D02*
X1469Y405D01*
X293Y404D02*
X312Y404D01*
X350Y404D02*
X369Y404D01*
X1392Y404D02*
X1411Y404D01*
X1450Y404D02*
X1469Y404D01*
X293Y403D02*
X312Y403D01*
X350Y403D02*
X369Y403D01*
X1392Y403D02*
X1411Y403D01*
X1450Y403D02*
X1469Y403D01*
X293Y402D02*
X312Y402D01*
X350Y402D02*
X369Y402D01*
X1392Y402D02*
X1411Y402D01*
X1450Y402D02*
X1469Y402D01*
X293Y401D02*
X312Y401D01*
X350Y401D02*
X369Y401D01*
X1392Y401D02*
X1411Y401D01*
X1450Y401D02*
X1469Y401D01*
X293Y400D02*
X312Y400D01*
X350Y400D02*
X369Y400D01*
X1392Y400D02*
X1411Y400D01*
X1450Y400D02*
X1469Y400D01*
X293Y399D02*
X312Y399D01*
X350Y399D02*
X369Y399D01*
X1392Y399D02*
X1411Y399D01*
X1450Y399D02*
X1469Y399D01*
X293Y398D02*
X312Y398D01*
X350Y398D02*
X369Y398D01*
X1392Y398D02*
X1411Y398D01*
X1450Y398D02*
X1469Y398D01*
X293Y397D02*
X312Y397D01*
X350Y397D02*
X369Y397D01*
X1392Y397D02*
X1411Y397D01*
X1449Y397D02*
X1468Y397D01*
X293Y396D02*
X312Y396D01*
X350Y396D02*
X369Y396D01*
X1392Y396D02*
X1412Y396D01*
X1449Y396D02*
X1468Y396D01*
X293Y395D02*
X313Y395D01*
X349Y395D02*
X369Y395D01*
X1393Y395D02*
X1412Y395D01*
X1449Y395D02*
X1468Y395D01*
X293Y394D02*
X313Y394D01*
X349Y394D02*
X369Y394D01*
X1393Y394D02*
X1412Y394D01*
X1449Y394D02*
X1468Y394D01*
X294Y393D02*
X313Y393D01*
X349Y393D02*
X368Y393D01*
X1393Y393D02*
X1413Y393D01*
X1448Y393D02*
X1468Y393D01*
X294Y392D02*
X314Y392D01*
X348Y392D02*
X368Y392D01*
X1393Y392D02*
X1413Y392D01*
X1447Y392D02*
X1467Y392D01*
X294Y391D02*
X315Y391D01*
X348Y391D02*
X368Y391D01*
X1394Y391D02*
X1414Y391D01*
X1447Y391D02*
X1467Y391D01*
X294Y390D02*
X315Y390D01*
X347Y390D02*
X368Y390D01*
X1394Y390D02*
X1415Y390D01*
X1446Y390D02*
X1467Y390D01*
X295Y389D02*
X316Y389D01*
X346Y389D02*
X367Y389D01*
X1394Y389D02*
X1416Y389D01*
X1445Y389D02*
X1467Y389D01*
X295Y388D02*
X317Y388D01*
X345Y388D02*
X367Y388D01*
X1395Y388D02*
X1416Y388D01*
X1444Y388D02*
X1466Y388D01*
X296Y387D02*
X318Y387D01*
X344Y387D02*
X366Y387D01*
X1395Y387D02*
X1418Y387D01*
X1443Y387D02*
X1466Y387D01*
X296Y386D02*
X319Y386D01*
X343Y386D02*
X366Y386D01*
X1395Y386D02*
X1419Y386D01*
X1442Y386D02*
X1465Y386D01*
X296Y385D02*
X321Y385D01*
X341Y385D02*
X366Y385D01*
X1396Y385D02*
X1420Y385D01*
X1441Y385D02*
X1465Y385D01*
X297Y384D02*
X322Y384D01*
X340Y384D02*
X365Y384D01*
X1396Y384D02*
X1422Y384D01*
X1439Y384D02*
X1465Y384D01*
X297Y383D02*
X325Y383D01*
X337Y383D02*
X365Y383D01*
X1397Y383D02*
X1425Y383D01*
X1436Y383D02*
X1464Y383D01*
X298Y382D02*
X364Y382D01*
X1397Y382D02*
X1463Y382D01*
X299Y381D02*
X364Y381D01*
X1398Y381D02*
X1463Y381D01*
X299Y380D02*
X363Y380D01*
X1399Y380D02*
X1462Y380D01*
X300Y379D02*
X362Y379D01*
X1399Y379D02*
X1462Y379D01*
X301Y378D02*
X362Y378D01*
X1400Y378D02*
X1461Y378D01*
X301Y377D02*
X361Y377D01*
X1401Y377D02*
X1460Y377D01*
X302Y376D02*
X360Y376D01*
X1401Y376D02*
X1459Y376D01*
X303Y375D02*
X359Y375D01*
X1402Y375D02*
X1459Y375D01*
X304Y374D02*
X358Y374D01*
X1403Y374D02*
X1458Y374D01*
X305Y373D02*
X357Y373D01*
X1404Y373D02*
X1457Y373D01*
X306Y372D02*
X356Y372D01*
X1405Y372D02*
X1455Y372D01*
X307Y371D02*
X355Y371D01*
X1407Y371D02*
X1454Y371D01*
X309Y370D02*
X353Y370D01*
X1408Y370D02*
X1453Y370D01*
X310Y369D02*
X352Y369D01*
X1409Y369D02*
X1451Y369D01*
X312Y368D02*
X350Y368D01*
X1411Y368D02*
X1450Y368D01*
X314Y367D02*
X349Y367D01*
X1413Y367D02*
X1448Y367D01*
X316Y366D02*
X346Y366D01*
X1415Y366D02*
X1446Y366D01*
X318Y365D02*
X344Y365D01*
X1417Y365D02*
X1443Y365D01*
X321Y364D02*
X341Y364D01*
X1420Y364D02*
X1440Y364D01*
X325Y363D02*
X337Y363D01*
X1425Y363D02*
X1436Y363D01*
X327Y340D02*
X335Y340D01*
X1426Y340D02*
X1435Y340D01*
X322Y339D02*
X340Y339D01*
X1421Y339D02*
X1440Y339D01*
X319Y338D02*
X343Y338D01*
X1418Y338D02*
X1443Y338D01*
X316Y337D02*
X346Y337D01*
X1416Y337D02*
X1445Y337D01*
X314Y336D02*
X348Y336D01*
X1413Y336D02*
X1447Y336D01*
X312Y335D02*
X350Y335D01*
X1411Y335D02*
X1449Y335D01*
X310Y334D02*
X352Y334D01*
X1410Y334D02*
X1451Y334D01*
X309Y333D02*
X353Y333D01*
X1408Y333D02*
X1453Y333D01*
X308Y332D02*
X355Y332D01*
X1407Y332D02*
X1454Y332D01*
X306Y331D02*
X356Y331D01*
X1406Y331D02*
X1455Y331D01*
X305Y330D02*
X357Y330D01*
X1405Y330D02*
X1456Y330D01*
X304Y329D02*
X358Y329D01*
X1403Y329D02*
X1457Y329D01*
X303Y328D02*
X359Y328D01*
X1403Y328D02*
X1458Y328D01*
X302Y327D02*
X360Y327D01*
X1402Y327D02*
X1459Y327D01*
X301Y326D02*
X361Y326D01*
X1401Y326D02*
X1460Y326D01*
X301Y325D02*
X361Y325D01*
X1400Y325D02*
X1461Y325D01*
X300Y324D02*
X362Y324D01*
X1399Y324D02*
X1461Y324D01*
X299Y323D02*
X363Y323D01*
X1399Y323D02*
X1462Y323D01*
X299Y322D02*
X363Y322D01*
X1398Y322D02*
X1463Y322D01*
X298Y321D02*
X364Y321D01*
X1397Y321D02*
X1463Y321D01*
X298Y320D02*
X326Y320D01*
X336Y320D02*
X365Y320D01*
X1397Y320D02*
X1425Y320D01*
X1435Y320D02*
X1464Y320D01*
X297Y319D02*
X323Y319D01*
X339Y319D02*
X365Y319D01*
X1396Y319D02*
X1422Y319D01*
X1439Y319D02*
X1464Y319D01*
X297Y318D02*
X321Y318D01*
X341Y318D02*
X365Y318D01*
X1396Y318D02*
X1420Y318D01*
X1440Y318D02*
X1465Y318D01*
X296Y317D02*
X320Y317D01*
X342Y317D02*
X366Y317D01*
X1395Y317D02*
X1419Y317D01*
X1442Y317D02*
X1465Y317D01*
X296Y316D02*
X318Y316D01*
X344Y316D02*
X366Y316D01*
X1395Y316D02*
X1418Y316D01*
X1443Y316D02*
X1466Y316D01*
X295Y315D02*
X317Y315D01*
X345Y315D02*
X367Y315D01*
X1395Y315D02*
X1417Y315D01*
X1444Y315D02*
X1466Y315D01*
X295Y314D02*
X316Y314D01*
X346Y314D02*
X367Y314D01*
X1394Y314D02*
X1416Y314D01*
X1445Y314D02*
X1467Y314D01*
X295Y313D02*
X316Y313D01*
X347Y313D02*
X367Y313D01*
X1394Y313D02*
X1415Y313D01*
X1446Y313D02*
X1467Y313D01*
X294Y312D02*
X315Y312D01*
X347Y312D02*
X368Y312D01*
X1394Y312D02*
X1414Y312D01*
X1447Y312D02*
X1467Y312D01*
X294Y311D02*
X314Y311D01*
X348Y311D02*
X368Y311D01*
X1393Y311D02*
X1413Y311D01*
X1447Y311D02*
X1467Y311D01*
X294Y310D02*
X314Y310D01*
X349Y310D02*
X368Y310D01*
X1393Y310D02*
X1413Y310D01*
X1448Y310D02*
X1468Y310D01*
X293Y309D02*
X313Y309D01*
X349Y309D02*
X369Y309D01*
X1393Y309D02*
X1412Y309D01*
X1448Y309D02*
X1468Y309D01*
X293Y308D02*
X313Y308D01*
X349Y308D02*
X369Y308D01*
X1393Y308D02*
X1412Y308D01*
X1449Y308D02*
X1468Y308D01*
X293Y307D02*
X312Y307D01*
X350Y307D02*
X369Y307D01*
X1393Y307D02*
X1412Y307D01*
X1449Y307D02*
X1468Y307D01*
X293Y306D02*
X312Y306D01*
X350Y306D02*
X369Y306D01*
X1392Y306D02*
X1411Y306D01*
X1449Y306D02*
X1468Y306D01*
X293Y305D02*
X312Y305D01*
X350Y305D02*
X369Y305D01*
X1392Y305D02*
X1411Y305D01*
X1450Y305D02*
X1469Y305D01*
X293Y304D02*
X312Y304D01*
X350Y304D02*
X369Y304D01*
X1392Y304D02*
X1411Y304D01*
X1450Y304D02*
X1469Y304D01*
X293Y303D02*
X312Y303D01*
X350Y303D02*
X369Y303D01*
X1392Y303D02*
X1411Y303D01*
X1450Y303D02*
X1469Y303D01*
X293Y302D02*
X312Y302D01*
X350Y302D02*
X369Y302D01*
X1392Y302D02*
X1411Y302D01*
X1450Y302D02*
X1469Y302D01*
X293Y301D02*
X312Y301D01*
X350Y301D02*
X369Y301D01*
X1392Y301D02*
X1411Y301D01*
X1450Y301D02*
X1469Y301D01*
X293Y300D02*
X312Y300D01*
X350Y300D02*
X369Y300D01*
X1392Y300D02*
X1411Y300D01*
X1450Y300D02*
X1469Y300D01*
X293Y299D02*
X312Y299D01*
X350Y299D02*
X369Y299D01*
X1392Y299D02*
X1411Y299D01*
X1450Y299D02*
X1469Y299D01*
X293Y298D02*
X312Y298D01*
X350Y298D02*
X369Y298D01*
X1392Y298D02*
X1411Y298D01*
X1450Y298D02*
X1469Y298D01*
X293Y297D02*
X312Y297D01*
X350Y297D02*
X369Y297D01*
X1392Y297D02*
X1411Y297D01*
X1449Y297D02*
X1468Y297D01*
X293Y296D02*
X312Y296D01*
X350Y296D02*
X369Y296D01*
X1393Y296D02*
X1412Y296D01*
X1449Y296D02*
X1468Y296D01*
X293Y295D02*
X313Y295D01*
X349Y295D02*
X369Y295D01*
X1393Y295D02*
X1412Y295D01*
X1449Y295D02*
X1468Y295D01*
X293Y294D02*
X313Y294D01*
X349Y294D02*
X369Y294D01*
X1393Y294D02*
X1412Y294D01*
X1448Y294D02*
X1468Y294D01*
X294Y293D02*
X313Y293D01*
X349Y293D02*
X368Y293D01*
X1393Y293D02*
X1413Y293D01*
X1448Y293D02*
X1468Y293D01*
X294Y292D02*
X314Y292D01*
X348Y292D02*
X368Y292D01*
X1393Y292D02*
X1413Y292D01*
X1447Y292D02*
X1467Y292D01*
X294Y291D02*
X315Y291D01*
X347Y291D02*
X368Y291D01*
X1394Y291D02*
X1414Y291D01*
X1447Y291D02*
X1467Y291D01*
X295Y290D02*
X315Y290D01*
X347Y290D02*
X368Y290D01*
X1394Y290D02*
X1415Y290D01*
X1446Y290D02*
X1467Y290D01*
X295Y289D02*
X316Y289D01*
X346Y289D02*
X367Y289D01*
X1394Y289D02*
X1416Y289D01*
X1445Y289D02*
X1467Y289D01*
X295Y288D02*
X317Y288D01*
X345Y288D02*
X367Y288D01*
X1395Y288D02*
X1417Y288D01*
X1444Y288D02*
X1466Y288D01*
X296Y287D02*
X318Y287D01*
X344Y287D02*
X366Y287D01*
X1395Y287D02*
X1418Y287D01*
X1443Y287D02*
X1466Y287D01*
X296Y286D02*
X320Y286D01*
X343Y286D02*
X366Y286D01*
X1395Y286D02*
X1419Y286D01*
X1442Y286D02*
X1465Y286D01*
X297Y285D02*
X321Y285D01*
X341Y285D02*
X366Y285D01*
X1396Y285D02*
X1420Y285D01*
X1440Y285D02*
X1465Y285D01*
X297Y284D02*
X323Y284D01*
X339Y284D02*
X365Y284D01*
X1396Y284D02*
X1422Y284D01*
X1439Y284D02*
X1464Y284D01*
X298Y283D02*
X326Y283D01*
X336Y283D02*
X365Y283D01*
X1397Y283D02*
X1425Y283D01*
X1435Y283D02*
X1464Y283D01*
X298Y282D02*
X364Y282D01*
X1397Y282D02*
X1463Y282D01*
X299Y281D02*
X363Y281D01*
X1398Y281D02*
X1463Y281D01*
X299Y280D02*
X363Y280D01*
X1399Y280D02*
X1462Y280D01*
X300Y279D02*
X362Y279D01*
X1399Y279D02*
X1461Y279D01*
X301Y278D02*
X361Y278D01*
X1400Y278D02*
X1461Y278D01*
X301Y277D02*
X361Y277D01*
X1401Y277D02*
X1460Y277D01*
X302Y276D02*
X360Y276D01*
X1402Y276D02*
X1459Y276D01*
X303Y275D02*
X359Y275D01*
X1402Y275D02*
X1458Y275D01*
X304Y274D02*
X358Y274D01*
X1403Y274D02*
X1457Y274D01*
X305Y273D02*
X357Y273D01*
X1404Y273D02*
X1456Y273D01*
X306Y272D02*
X356Y272D01*
X1406Y272D02*
X1455Y272D01*
X308Y271D02*
X355Y271D01*
X1407Y271D02*
X1454Y271D01*
X309Y270D02*
X353Y270D01*
X1408Y270D02*
X1453Y270D01*
X310Y269D02*
X352Y269D01*
X1410Y269D02*
X1451Y269D01*
X312Y268D02*
X350Y268D01*
X1411Y268D02*
X1449Y268D01*
X314Y267D02*
X348Y267D01*
X1413Y267D02*
X1447Y267D01*
X316Y266D02*
X346Y266D01*
X1415Y266D02*
X1445Y266D01*
X319Y265D02*
X343Y265D01*
X1418Y265D02*
X1443Y265D01*
X322Y264D02*
X340Y264D01*
X1421Y264D02*
X1440Y264D01*
X326Y263D02*
X336Y263D01*
X1426Y263D02*
X1435Y263D01*
X325Y240D02*
X337Y240D01*
X1425Y240D02*
X1436Y240D01*
X321Y239D02*
X341Y239D01*
X1420Y239D02*
X1440Y239D01*
X318Y238D02*
X344Y238D01*
X1418Y238D02*
X1443Y238D01*
X316Y237D02*
X346Y237D01*
X1415Y237D02*
X1446Y237D01*
X314Y236D02*
X348Y236D01*
X1413Y236D02*
X1448Y236D01*
X312Y235D02*
X350Y235D01*
X1411Y235D02*
X1450Y235D01*
X310Y234D02*
X352Y234D01*
X1409Y234D02*
X1451Y234D01*
X309Y233D02*
X353Y233D01*
X1408Y233D02*
X1453Y233D01*
X307Y232D02*
X355Y232D01*
X1407Y232D02*
X1454Y232D01*
X306Y231D02*
X356Y231D01*
X1405Y231D02*
X1455Y231D01*
X305Y230D02*
X357Y230D01*
X1404Y230D02*
X1457Y230D01*
X304Y229D02*
X358Y229D01*
X1403Y229D02*
X1458Y229D01*
X303Y228D02*
X359Y228D01*
X1402Y228D02*
X1458Y228D01*
X302Y227D02*
X360Y227D01*
X1401Y227D02*
X1459Y227D01*
X301Y226D02*
X361Y226D01*
X1401Y226D02*
X1460Y226D01*
X301Y225D02*
X362Y225D01*
X1400Y225D02*
X1461Y225D01*
X300Y224D02*
X362Y224D01*
X1399Y224D02*
X1462Y224D01*
X299Y223D02*
X363Y223D01*
X1399Y223D02*
X1462Y223D01*
X299Y222D02*
X363Y222D01*
X1398Y222D02*
X1463Y222D01*
X298Y221D02*
X364Y221D01*
X1397Y221D02*
X1463Y221D01*
X297Y220D02*
X325Y220D01*
X337Y220D02*
X365Y220D01*
X1397Y220D02*
X1425Y220D01*
X1436Y220D02*
X1464Y220D01*
X297Y219D02*
X322Y219D01*
X340Y219D02*
X365Y219D01*
X1396Y219D02*
X1422Y219D01*
X1439Y219D02*
X1464Y219D01*
X296Y218D02*
X321Y218D01*
X341Y218D02*
X366Y218D01*
X1396Y218D02*
X1420Y218D01*
X1441Y218D02*
X1465Y218D01*
X296Y217D02*
X319Y217D01*
X343Y217D02*
X366Y217D01*
X1395Y217D02*
X1419Y217D01*
X1442Y217D02*
X1465Y217D01*
X296Y216D02*
X318Y216D01*
X344Y216D02*
X366Y216D01*
X1395Y216D02*
X1418Y216D01*
X1443Y216D02*
X1466Y216D01*
X295Y215D02*
X317Y215D01*
X345Y215D02*
X367Y215D01*
X1395Y215D02*
X1416Y215D01*
X1444Y215D02*
X1466Y215D01*
X295Y214D02*
X316Y214D01*
X346Y214D02*
X367Y214D01*
X1394Y214D02*
X1416Y214D01*
X1445Y214D02*
X1467Y214D01*
X294Y213D02*
X315Y213D01*
X347Y213D02*
X368Y213D01*
X1394Y213D02*
X1415Y213D01*
X1446Y213D02*
X1467Y213D01*
X294Y212D02*
X315Y212D01*
X348Y212D02*
X368Y212D01*
X1394Y212D02*
X1414Y212D01*
X1447Y212D02*
X1467Y212D01*
X294Y211D02*
X314Y211D01*
X348Y211D02*
X368Y211D01*
X1393Y211D02*
X1413Y211D01*
X1447Y211D02*
X1467Y211D01*
X294Y210D02*
X313Y210D01*
X349Y210D02*
X368Y210D01*
X1393Y210D02*
X1413Y210D01*
X1448Y210D02*
X1468Y210D01*
X293Y209D02*
X313Y209D01*
X349Y209D02*
X369Y209D01*
X1393Y209D02*
X1412Y209D01*
X1449Y209D02*
X1468Y209D01*
X293Y208D02*
X313Y208D01*
X349Y208D02*
X369Y208D01*
X1393Y208D02*
X1412Y208D01*
X1449Y208D02*
X1468Y208D01*
X293Y207D02*
X312Y207D01*
X350Y207D02*
X369Y207D01*
X1392Y207D02*
X1412Y207D01*
X1449Y207D02*
X1468Y207D01*
X293Y206D02*
X312Y206D01*
X350Y206D02*
X369Y206D01*
X1392Y206D02*
X1411Y206D01*
X1449Y206D02*
X1468Y206D01*
X293Y205D02*
X312Y205D01*
X350Y205D02*
X369Y205D01*
X1392Y205D02*
X1411Y205D01*
X1450Y205D02*
X1469Y205D01*
X293Y204D02*
X312Y204D01*
X350Y204D02*
X369Y204D01*
X1392Y204D02*
X1411Y204D01*
X1450Y204D02*
X1469Y204D01*
X293Y203D02*
X312Y203D01*
X350Y203D02*
X369Y203D01*
X1392Y203D02*
X1411Y203D01*
X1450Y203D02*
X1469Y203D01*
X293Y202D02*
X312Y202D01*
X350Y202D02*
X369Y202D01*
X1392Y202D02*
X1411Y202D01*
X1450Y202D02*
X1469Y202D01*
X293Y201D02*
X312Y201D01*
X350Y201D02*
X369Y201D01*
X1392Y201D02*
X1411Y201D01*
X1450Y201D02*
X1469Y201D01*
X293Y200D02*
X312Y200D01*
X350Y200D02*
X369Y200D01*
X1392Y200D02*
X1411Y200D01*
X1450Y200D02*
X1469Y200D01*
X293Y199D02*
X312Y199D01*
X350Y199D02*
X369Y199D01*
X1392Y199D02*
X1411Y199D01*
X1450Y199D02*
X1469Y199D01*
X293Y198D02*
X312Y198D01*
X350Y198D02*
X369Y198D01*
X1392Y198D02*
X1411Y198D01*
X1450Y198D02*
X1469Y198D01*
X293Y197D02*
X312Y197D01*
X350Y197D02*
X369Y197D01*
X1392Y197D02*
X1411Y197D01*
X1449Y197D02*
X1468Y197D01*
X293Y196D02*
X312Y196D01*
X350Y196D02*
X369Y196D01*
X1393Y196D02*
X1412Y196D01*
X1449Y196D02*
X1468Y196D01*
X293Y195D02*
X313Y195D01*
X349Y195D02*
X369Y195D01*
X1393Y195D02*
X1412Y195D01*
X1449Y195D02*
X1468Y195D01*
X294Y194D02*
X313Y194D01*
X349Y194D02*
X369Y194D01*
X1393Y194D02*
X1412Y194D01*
X1448Y194D02*
X1468Y194D01*
X294Y193D02*
X314Y193D01*
X348Y193D02*
X368Y193D01*
X1393Y193D02*
X1413Y193D01*
X1448Y193D02*
X1468Y193D01*
X294Y192D02*
X314Y192D01*
X348Y192D02*
X368Y192D01*
X1393Y192D02*
X1414Y192D01*
X1447Y192D02*
X1467Y192D01*
X294Y191D02*
X315Y191D01*
X347Y191D02*
X368Y191D01*
X1394Y191D02*
X1414Y191D01*
X1447Y191D02*
X1467Y191D01*
X295Y190D02*
X316Y190D01*
X346Y190D02*
X367Y190D01*
X1394Y190D02*
X1415Y190D01*
X1446Y190D02*
X1467Y190D01*
X295Y189D02*
X317Y189D01*
X346Y189D02*
X367Y189D01*
X1394Y189D02*
X1416Y189D01*
X1445Y189D02*
X1466Y189D01*
X295Y188D02*
X317Y188D01*
X345Y188D02*
X367Y188D01*
X1395Y188D02*
X1417Y188D01*
X1444Y188D02*
X1466Y188D01*
X296Y187D02*
X319Y187D01*
X343Y187D02*
X366Y187D01*
X1395Y187D02*
X1418Y187D01*
X1443Y187D02*
X1466Y187D01*
X296Y186D02*
X320Y186D01*
X342Y186D02*
X366Y186D01*
X1396Y186D02*
X1419Y186D01*
X1442Y186D02*
X1465Y186D01*
X297Y185D02*
X321Y185D01*
X341Y185D02*
X365Y185D01*
X1396Y185D02*
X1421Y185D01*
X1440Y185D02*
X1465Y185D01*
X297Y184D02*
X323Y184D01*
X339Y184D02*
X365Y184D01*
X1396Y184D02*
X1423Y184D01*
X1438Y184D02*
X1464Y184D01*
X298Y183D02*
X327Y183D01*
X335Y183D02*
X364Y183D01*
X1397Y183D02*
X1426Y183D01*
X1434Y183D02*
X1464Y183D01*
X298Y182D02*
X364Y182D01*
X1398Y182D02*
X1463Y182D01*
X299Y181D02*
X363Y181D01*
X1398Y181D02*
X1463Y181D01*
X299Y180D02*
X363Y180D01*
X1399Y180D02*
X1462Y180D01*
X300Y179D02*
X362Y179D01*
X1399Y179D02*
X1461Y179D01*
X301Y178D02*
X361Y178D01*
X1400Y178D02*
X1461Y178D01*
X302Y177D02*
X361Y177D01*
X1401Y177D02*
X1460Y177D01*
X302Y176D02*
X360Y176D01*
X1402Y176D02*
X1459Y176D01*
X303Y175D02*
X359Y175D01*
X1403Y175D02*
X1458Y175D01*
X304Y174D02*
X358Y174D01*
X1404Y174D02*
X1457Y174D01*
X305Y173D02*
X357Y173D01*
X1405Y173D02*
X1456Y173D01*
X306Y172D02*
X356Y172D01*
X1406Y172D02*
X1455Y172D01*
X308Y171D02*
X354Y171D01*
X1407Y171D02*
X1454Y171D01*
X309Y170D02*
X353Y170D01*
X1409Y170D02*
X1452Y170D01*
X311Y169D02*
X351Y169D01*
X1410Y169D02*
X1451Y169D01*
X312Y168D02*
X350Y168D01*
X1412Y168D02*
X1449Y168D01*
X314Y167D02*
X348Y167D01*
X1414Y167D02*
X1447Y167D01*
X316Y166D02*
X346Y166D01*
X1416Y166D02*
X1445Y166D01*
X319Y165D02*
X343Y165D01*
X1419Y165D02*
X1442Y165D01*
X323Y164D02*
X340Y164D01*
X1422Y164D02*
X1439Y164D01*
X328Y163D02*
X334Y163D01*
X1427Y163D02*
X1434Y163D01*
X324Y140D02*
X338Y140D01*
X1424Y140D02*
X1437Y140D01*
X320Y139D02*
X342Y139D01*
X1420Y139D02*
X1441Y139D01*
X318Y138D02*
X344Y138D01*
X1417Y138D02*
X1444Y138D01*
X315Y137D02*
X347Y137D01*
X1415Y137D02*
X1446Y137D01*
X313Y136D02*
X349Y136D01*
X1413Y136D02*
X1448Y136D01*
X311Y135D02*
X351Y135D01*
X1411Y135D02*
X1450Y135D01*
X310Y134D02*
X352Y134D01*
X1409Y134D02*
X1452Y134D01*
X308Y133D02*
X354Y133D01*
X1408Y133D02*
X1453Y133D01*
X307Y132D02*
X355Y132D01*
X1406Y132D02*
X1454Y132D01*
X306Y131D02*
X356Y131D01*
X1405Y131D02*
X1456Y131D01*
X305Y130D02*
X357Y130D01*
X1404Y130D02*
X1457Y130D01*
X304Y129D02*
X358Y129D01*
X1403Y129D02*
X1458Y129D01*
X303Y128D02*
X359Y128D01*
X1402Y128D02*
X1459Y128D01*
X302Y127D02*
X360Y127D01*
X1401Y127D02*
X1460Y127D01*
X301Y126D02*
X361Y126D01*
X1400Y126D02*
X1460Y126D01*
X300Y125D02*
X362Y125D01*
X1400Y125D02*
X1461Y125D01*
X300Y124D02*
X362Y124D01*
X1399Y124D02*
X1462Y124D01*
X299Y123D02*
X363Y123D01*
X1398Y123D02*
X1462Y123D01*
X298Y122D02*
X364Y122D01*
X1398Y122D02*
X1463Y122D01*
X298Y121D02*
X364Y121D01*
X1397Y121D02*
X1464Y121D01*
X297Y120D02*
X325Y120D01*
X337Y120D02*
X365Y120D01*
X1397Y120D02*
X1424Y120D01*
X1437Y120D02*
X1464Y120D01*
X297Y119D02*
X322Y119D01*
X340Y119D02*
X365Y119D01*
X1396Y119D02*
X1421Y119D01*
X1439Y119D02*
X1465Y119D01*
X296Y118D02*
X320Y118D01*
X342Y118D02*
X366Y118D01*
X1396Y118D02*
X1420Y118D01*
X1441Y118D02*
X1465Y118D01*
X296Y117D02*
X319Y117D01*
X343Y117D02*
X366Y117D01*
X1395Y117D02*
X1418Y117D01*
X1442Y117D02*
X1466Y117D01*
X296Y116D02*
X318Y116D01*
X344Y116D02*
X367Y116D01*
X1395Y116D02*
X1417Y116D01*
X1443Y116D02*
X1466Y116D01*
X295Y115D02*
X317Y115D01*
X345Y115D02*
X367Y115D01*
X1395Y115D02*
X1416Y115D01*
X1445Y115D02*
X1466Y115D01*
X295Y114D02*
X316Y114D01*
X346Y114D02*
X367Y114D01*
X1394Y114D02*
X1415Y114D01*
X1445Y114D02*
X1467Y114D01*
X294Y113D02*
X315Y113D01*
X347Y113D02*
X368Y113D01*
X1394Y113D02*
X1415Y113D01*
X1446Y113D02*
X1467Y113D01*
X294Y112D02*
X314Y112D01*
X348Y112D02*
X368Y112D01*
X1394Y112D02*
X1414Y112D01*
X1447Y112D02*
X1467Y112D01*
X294Y111D02*
X314Y111D01*
X348Y111D02*
X368Y111D01*
X1393Y111D02*
X1413Y111D01*
X1448Y111D02*
X1468Y111D01*
X294Y110D02*
X313Y110D01*
X349Y110D02*
X368Y110D01*
X1393Y110D02*
X1413Y110D01*
X1448Y110D02*
X1468Y110D01*
X293Y109D02*
X313Y109D01*
X349Y109D02*
X369Y109D01*
X1393Y109D02*
X1412Y109D01*
X1449Y109D02*
X1468Y109D01*
X293Y108D02*
X313Y108D01*
X350Y108D02*
X369Y108D01*
X1393Y108D02*
X1412Y108D01*
X1449Y108D02*
X1468Y108D01*
X293Y107D02*
X312Y107D01*
X350Y107D02*
X369Y107D01*
X1392Y107D02*
X1412Y107D01*
X1449Y107D02*
X1468Y107D01*
X293Y106D02*
X312Y106D01*
X350Y106D02*
X369Y106D01*
X1392Y106D02*
X1411Y106D01*
X1449Y106D02*
X1469Y106D01*
X293Y105D02*
X312Y105D01*
X350Y105D02*
X369Y105D01*
X1392Y105D02*
X1411Y105D01*
X1450Y105D02*
X1469Y105D01*
X293Y104D02*
X312Y104D01*
X350Y104D02*
X369Y104D01*
X1392Y104D02*
X1411Y104D01*
X1450Y104D02*
X1469Y104D01*
X293Y103D02*
X312Y103D01*
X350Y103D02*
X369Y103D01*
X1392Y103D02*
X1411Y103D01*
X1450Y103D02*
X1469Y103D01*
X293Y102D02*
X312Y102D01*
X350Y102D02*
X369Y102D01*
X1392Y102D02*
X1411Y102D01*
X1450Y102D02*
X1469Y102D01*
X293Y101D02*
X312Y101D01*
X350Y101D02*
X369Y101D01*
X1392Y101D02*
X1411Y101D01*
X1450Y101D02*
X1469Y101D01*
X293Y100D02*
X312Y100D01*
X350Y100D02*
X369Y100D01*
X1392Y100D02*
X1411Y100D01*
X1450Y100D02*
X1469Y100D01*
X293Y99D02*
X312Y99D01*
X350Y99D02*
X369Y99D01*
X1392Y99D02*
X1411Y99D01*
X1450Y99D02*
X1469Y99D01*
X293Y98D02*
X312Y98D01*
X350Y98D02*
X369Y98D01*
X1392Y98D02*
X1411Y98D01*
X1450Y98D02*
X1469Y98D01*
X293Y97D02*
X312Y97D01*
X350Y97D02*
X369Y97D01*
X1392Y97D02*
X1412Y97D01*
X1449Y97D02*
X1468Y97D01*
X293Y96D02*
X312Y96D01*
X350Y96D02*
X369Y96D01*
X1393Y96D02*
X1412Y96D01*
X1449Y96D02*
X1468Y96D01*
X293Y95D02*
X313Y95D01*
X349Y95D02*
X369Y95D01*
X1393Y95D02*
X1412Y95D01*
X1449Y95D02*
X1468Y95D01*
X294Y94D02*
X313Y94D01*
X349Y94D02*
X368Y94D01*
X1393Y94D02*
X1413Y94D01*
X1448Y94D02*
X1468Y94D01*
X294Y93D02*
X314Y93D01*
X348Y93D02*
X368Y93D01*
X1393Y93D02*
X1413Y93D01*
X1448Y93D02*
X1468Y93D01*
X294Y92D02*
X314Y92D01*
X348Y92D02*
X368Y92D01*
X1393Y92D02*
X1414Y92D01*
X1447Y92D02*
X1467Y92D01*
X294Y91D02*
X315Y91D01*
X347Y91D02*
X368Y91D01*
X1394Y91D02*
X1414Y91D01*
X1446Y91D02*
X1467Y91D01*
X295Y90D02*
X316Y90D01*
X346Y90D02*
X367Y90D01*
X1394Y90D02*
X1415Y90D01*
X1446Y90D02*
X1467Y90D01*
X295Y89D02*
X317Y89D01*
X345Y89D02*
X367Y89D01*
X1394Y89D02*
X1416Y89D01*
X1445Y89D02*
X1466Y89D01*
X295Y88D02*
X318Y88D01*
X344Y88D02*
X367Y88D01*
X1395Y88D02*
X1417Y88D01*
X1444Y88D02*
X1466Y88D01*
X296Y87D02*
X319Y87D01*
X343Y87D02*
X366Y87D01*
X1395Y87D02*
X1418Y87D01*
X1443Y87D02*
X1466Y87D01*
X296Y86D02*
X320Y86D01*
X342Y86D02*
X366Y86D01*
X1396Y86D02*
X1419Y86D01*
X1441Y86D02*
X1465Y86D01*
X297Y85D02*
X322Y85D01*
X340Y85D02*
X365Y85D01*
X1396Y85D02*
X1421Y85D01*
X1440Y85D02*
X1465Y85D01*
X297Y84D02*
X324Y84D01*
X338Y84D02*
X365Y84D01*
X1397Y84D02*
X1423Y84D01*
X1437Y84D02*
X1464Y84D01*
X298Y83D02*
X330Y83D01*
X332Y83D02*
X364Y83D01*
X1397Y83D02*
X1429Y83D01*
X1432Y83D02*
X1464Y83D01*
X298Y82D02*
X364Y82D01*
X1398Y82D02*
X1463Y82D01*
X299Y81D02*
X363Y81D01*
X1398Y81D02*
X1463Y81D01*
X300Y80D02*
X363Y80D01*
X1399Y80D02*
X1462Y80D01*
X300Y79D02*
X362Y79D01*
X1400Y79D02*
X1461Y79D01*
X301Y78D02*
X361Y78D01*
X1400Y78D02*
X1460Y78D01*
X302Y77D02*
X360Y77D01*
X1401Y77D02*
X1460Y77D01*
X303Y76D02*
X359Y76D01*
X1402Y76D02*
X1459Y76D01*
X303Y75D02*
X359Y75D01*
X1403Y75D02*
X1458Y75D01*
X304Y74D02*
X358Y74D01*
X1404Y74D02*
X1457Y74D01*
X306Y73D02*
X356Y73D01*
X1405Y73D02*
X1456Y73D01*
X307Y72D02*
X355Y72D01*
X1406Y72D02*
X1455Y72D01*
X308Y71D02*
X354Y71D01*
X1407Y71D02*
X1453Y71D01*
X309Y70D02*
X353Y70D01*
X1409Y70D02*
X1452Y70D01*
X311Y69D02*
X351Y69D01*
X1410Y69D02*
X1450Y69D01*
X313Y68D02*
X349Y68D01*
X1412Y68D02*
X1449Y68D01*
X315Y67D02*
X347Y67D01*
X1414Y67D02*
X1447Y67D01*
X317Y66D02*
X345Y66D01*
X1416Y66D02*
X1444Y66D01*
X320Y65D02*
X342Y65D01*
X1419Y65D02*
X1442Y65D01*
X323Y64D02*
X339Y64D01*
X1423Y64D02*
X1438Y64D01*
X331Y63D02*
X331Y63D01*
D02*
G04 End of Copper1*
M02*