; NON-PLATED HOLES START AT T1
; THROUGH (PLATED) HOLES START AT T100
M48
INCH
T1C0.125984
T100C0.040157
T101C0.039370
T102C0.015748
T103C0.052000
T104C0.098425
T105C0.121818
%
T1
X001311Y000999
X016311Y013999
X016311Y000999
T100
X009311Y011999
X009311Y015011
X009311Y010995
X009311Y013003
X009311Y014007
X009311Y009991
T101
X006311Y013999
X006311Y009999
X010311Y005999
X006311Y011999
X010311Y006999
X006311Y012999
X010311Y004999
X006311Y010999
X006311Y008999
X010311Y002999
X006311Y014999
X006311Y007999
X010311Y003999
T102
X013080Y010348
X010200Y013468
X007800Y011308
X015311Y012999
T103
X016311Y008999
X016311Y011999
T104
X001311Y014499
X001311Y008499
T105
X015780Y006689
X015780Y003477
T00
M30
