G04 MADE WITH FRITZING*
G04 WWW.FRITZING.ORG*
G04 DOUBLE SIDED*
G04 HOLES PLATED*
G04 CONTOUR ON CENTER OF CONTOUR VECTOR*
%ASAXBY*%
%FSLAX23Y23*%
%MOIN*%
%OFA0B0*%
%SFA1.0B1.0*%
%ADD10C,0.135984*%
%ADD11C,0.148425*%
%ADD12C,0.080000*%
%ADD13C,0.102000*%
%ADD14C,0.084291*%
%ADD15C,0.140151*%
%ADD16C,0.049370*%
%ADD17R,0.102000X0.102000*%
%ADD18R,0.001000X0.001000*%
%LNMASK0*%
G90*
G70*
G54D10*
X1631Y100D03*
X131Y100D03*
X1631Y1400D03*
G54D11*
X131Y850D03*
G54D12*
X631Y1500D03*
X631Y1400D03*
X631Y1300D03*
X631Y1200D03*
X631Y1100D03*
X631Y1000D03*
X631Y900D03*
X631Y800D03*
G54D11*
X131Y1450D03*
X131Y850D03*
G54D12*
X631Y1500D03*
X631Y1400D03*
X631Y1300D03*
X631Y1200D03*
X631Y1100D03*
X631Y1000D03*
X631Y900D03*
X631Y800D03*
G54D11*
X131Y1450D03*
G54D13*
X1631Y1200D03*
X1631Y900D03*
G54D14*
X931Y1501D03*
X931Y1401D03*
X931Y1300D03*
X931Y1200D03*
X931Y1100D03*
X931Y999D03*
X931Y1501D03*
X931Y1401D03*
X931Y1300D03*
X931Y1200D03*
X931Y1100D03*
X931Y999D03*
G54D12*
X1031Y700D03*
X1031Y600D03*
X1031Y500D03*
X1031Y400D03*
X1031Y300D03*
G54D15*
X1578Y348D03*
X1578Y669D03*
G54D12*
X1031Y700D03*
X1031Y600D03*
X1031Y500D03*
X1031Y400D03*
X1031Y300D03*
G54D15*
X1578Y348D03*
X1578Y669D03*
G54D16*
X780Y1131D03*
X1308Y1035D03*
X1020Y1347D03*
X1531Y1300D03*
G54D17*
X1631Y1200D03*
G54D18*
X330Y1545D02*
X332Y1545D01*
X1429Y1545D02*
X1432Y1545D01*
X322Y1544D02*
X340Y1544D01*
X1422Y1544D02*
X1439Y1544D01*
X318Y1543D02*
X344Y1543D01*
X1418Y1543D02*
X1443Y1543D01*
X315Y1542D02*
X347Y1542D01*
X1415Y1542D02*
X1446Y1542D01*
X313Y1541D02*
X349Y1541D01*
X1413Y1541D02*
X1448Y1541D01*
X311Y1540D02*
X351Y1540D01*
X1410Y1540D02*
X1450Y1540D01*
X309Y1539D02*
X353Y1539D01*
X1409Y1539D02*
X1452Y1539D01*
X308Y1538D02*
X354Y1538D01*
X1407Y1538D02*
X1454Y1538D01*
X306Y1537D02*
X356Y1537D01*
X1406Y1537D02*
X1455Y1537D01*
X305Y1536D02*
X357Y1536D01*
X1404Y1536D02*
X1456Y1536D01*
X304Y1535D02*
X358Y1535D01*
X1403Y1535D02*
X1458Y1535D01*
X302Y1534D02*
X360Y1534D01*
X1402Y1534D02*
X1459Y1534D01*
X301Y1533D02*
X361Y1533D01*
X1401Y1533D02*
X1460Y1533D01*
X300Y1532D02*
X362Y1532D01*
X1400Y1532D02*
X1461Y1532D01*
X299Y1531D02*
X363Y1531D01*
X1399Y1531D02*
X1462Y1531D01*
X299Y1530D02*
X364Y1530D01*
X1398Y1530D02*
X1463Y1530D01*
X298Y1529D02*
X364Y1529D01*
X1397Y1529D02*
X1464Y1529D01*
X297Y1528D02*
X365Y1528D01*
X1396Y1528D02*
X1465Y1528D01*
X296Y1527D02*
X366Y1527D01*
X1396Y1527D02*
X1465Y1527D01*
X295Y1526D02*
X367Y1526D01*
X1395Y1526D02*
X1466Y1526D01*
X295Y1525D02*
X367Y1525D01*
X1394Y1525D02*
X1467Y1525D01*
X294Y1524D02*
X368Y1524D01*
X1394Y1524D02*
X1467Y1524D01*
X294Y1523D02*
X369Y1523D01*
X1393Y1523D02*
X1468Y1523D01*
X293Y1522D02*
X369Y1522D01*
X1392Y1522D02*
X1468Y1522D01*
X292Y1521D02*
X370Y1521D01*
X1392Y1521D02*
X1469Y1521D01*
X292Y1520D02*
X370Y1520D01*
X1391Y1520D02*
X1469Y1520D01*
X291Y1519D02*
X371Y1519D01*
X1391Y1519D02*
X1470Y1519D01*
X291Y1518D02*
X371Y1518D01*
X1390Y1518D02*
X1470Y1518D01*
X291Y1517D02*
X371Y1517D01*
X1390Y1517D02*
X1471Y1517D01*
X290Y1516D02*
X372Y1516D01*
X1390Y1516D02*
X1471Y1516D01*
X290Y1515D02*
X372Y1515D01*
X1389Y1515D02*
X1471Y1515D01*
X290Y1514D02*
X372Y1514D01*
X1389Y1514D02*
X1472Y1514D01*
X289Y1513D02*
X373Y1513D01*
X1389Y1513D02*
X1472Y1513D01*
X289Y1512D02*
X373Y1512D01*
X1388Y1512D02*
X1472Y1512D01*
X289Y1511D02*
X373Y1511D01*
X1388Y1511D02*
X1473Y1511D01*
X289Y1510D02*
X373Y1510D01*
X1388Y1510D02*
X1473Y1510D01*
X288Y1509D02*
X374Y1509D01*
X1388Y1509D02*
X1473Y1509D01*
X288Y1508D02*
X374Y1508D01*
X1388Y1508D02*
X1473Y1508D01*
X288Y1507D02*
X374Y1507D01*
X1387Y1507D02*
X1473Y1507D01*
X288Y1506D02*
X374Y1506D01*
X1387Y1506D02*
X1473Y1506D01*
X288Y1505D02*
X374Y1505D01*
X1387Y1505D02*
X1474Y1505D01*
X288Y1504D02*
X374Y1504D01*
X1387Y1504D02*
X1474Y1504D01*
X288Y1503D02*
X374Y1503D01*
X1387Y1503D02*
X1474Y1503D01*
X288Y1502D02*
X374Y1502D01*
X1387Y1502D02*
X1474Y1502D01*
X288Y1501D02*
X374Y1501D01*
X1387Y1501D02*
X1474Y1501D01*
X288Y1500D02*
X374Y1500D01*
X1387Y1500D02*
X1474Y1500D01*
X288Y1499D02*
X374Y1499D01*
X1387Y1499D02*
X1474Y1499D01*
X288Y1498D02*
X374Y1498D01*
X1387Y1498D02*
X1474Y1498D01*
X288Y1497D02*
X374Y1497D01*
X1387Y1497D02*
X1474Y1497D01*
X288Y1496D02*
X374Y1496D01*
X1387Y1496D02*
X1473Y1496D01*
X288Y1495D02*
X374Y1495D01*
X1388Y1495D02*
X1473Y1495D01*
X288Y1494D02*
X374Y1494D01*
X1388Y1494D02*
X1473Y1494D01*
X288Y1493D02*
X374Y1493D01*
X1388Y1493D02*
X1473Y1493D01*
X289Y1492D02*
X373Y1492D01*
X1388Y1492D02*
X1473Y1492D01*
X289Y1491D02*
X373Y1491D01*
X1388Y1491D02*
X1472Y1491D01*
X289Y1490D02*
X373Y1490D01*
X1389Y1490D02*
X1472Y1490D01*
X289Y1489D02*
X373Y1489D01*
X1389Y1489D02*
X1472Y1489D01*
X290Y1488D02*
X372Y1488D01*
X1389Y1488D02*
X1472Y1488D01*
X290Y1487D02*
X372Y1487D01*
X1389Y1487D02*
X1471Y1487D01*
X290Y1486D02*
X372Y1486D01*
X1390Y1486D02*
X1471Y1486D01*
X291Y1485D02*
X371Y1485D01*
X1390Y1485D02*
X1471Y1485D01*
X291Y1484D02*
X371Y1484D01*
X1391Y1484D02*
X1470Y1484D01*
X292Y1483D02*
X370Y1483D01*
X1391Y1483D02*
X1470Y1483D01*
X292Y1482D02*
X370Y1482D01*
X1391Y1482D02*
X1469Y1482D01*
X293Y1481D02*
X369Y1481D01*
X1392Y1481D02*
X1469Y1481D01*
X293Y1480D02*
X369Y1480D01*
X1393Y1480D02*
X1468Y1480D01*
X294Y1479D02*
X368Y1479D01*
X1393Y1479D02*
X1468Y1479D01*
X294Y1478D02*
X368Y1478D01*
X1394Y1478D02*
X1467Y1478D01*
X295Y1477D02*
X367Y1477D01*
X1394Y1477D02*
X1466Y1477D01*
X296Y1476D02*
X366Y1476D01*
X1395Y1476D02*
X1466Y1476D01*
X296Y1475D02*
X366Y1475D01*
X1396Y1475D02*
X1465Y1475D01*
X297Y1474D02*
X365Y1474D01*
X1397Y1474D02*
X1464Y1474D01*
X298Y1473D02*
X364Y1473D01*
X1397Y1473D02*
X1463Y1473D01*
X299Y1472D02*
X363Y1472D01*
X1398Y1472D02*
X1463Y1472D01*
X300Y1471D02*
X362Y1471D01*
X1399Y1471D02*
X1462Y1471D01*
X301Y1470D02*
X361Y1470D01*
X1400Y1470D02*
X1461Y1470D01*
X302Y1469D02*
X360Y1469D01*
X1401Y1469D02*
X1460Y1469D01*
X303Y1468D02*
X359Y1468D01*
X1402Y1468D02*
X1459Y1468D01*
X304Y1467D02*
X358Y1467D01*
X1403Y1467D02*
X1457Y1467D01*
X305Y1466D02*
X357Y1466D01*
X1405Y1466D02*
X1456Y1466D01*
X307Y1465D02*
X355Y1465D01*
X1406Y1465D02*
X1455Y1465D01*
X308Y1464D02*
X354Y1464D01*
X1408Y1464D02*
X1453Y1464D01*
X310Y1463D02*
X352Y1463D01*
X1409Y1463D02*
X1451Y1463D01*
X312Y1462D02*
X350Y1462D01*
X1411Y1462D02*
X1450Y1462D01*
X314Y1461D02*
X348Y1461D01*
X1413Y1461D02*
X1448Y1461D01*
X316Y1460D02*
X346Y1460D01*
X1416Y1460D02*
X1445Y1460D01*
X320Y1459D02*
X342Y1459D01*
X1419Y1459D02*
X1442Y1459D01*
X324Y1458D02*
X338Y1458D01*
X1424Y1458D02*
X1437Y1458D01*
X329Y1445D02*
X333Y1445D01*
X1428Y1445D02*
X1432Y1445D01*
X322Y1444D02*
X340Y1444D01*
X1421Y1444D02*
X1439Y1444D01*
X318Y1443D02*
X344Y1443D01*
X1417Y1443D02*
X1443Y1443D01*
X315Y1442D02*
X347Y1442D01*
X1415Y1442D02*
X1446Y1442D01*
X313Y1441D02*
X349Y1441D01*
X1412Y1441D02*
X1448Y1441D01*
X311Y1440D02*
X351Y1440D01*
X1410Y1440D02*
X1450Y1440D01*
X309Y1439D02*
X353Y1439D01*
X1409Y1439D02*
X1452Y1439D01*
X308Y1438D02*
X354Y1438D01*
X1407Y1438D02*
X1454Y1438D01*
X306Y1437D02*
X356Y1437D01*
X1406Y1437D02*
X1455Y1437D01*
X305Y1436D02*
X357Y1436D01*
X1404Y1436D02*
X1457Y1436D01*
X304Y1435D02*
X359Y1435D01*
X1403Y1435D02*
X1458Y1435D01*
X302Y1434D02*
X360Y1434D01*
X1402Y1434D02*
X1459Y1434D01*
X301Y1433D02*
X361Y1433D01*
X1401Y1433D02*
X1460Y1433D01*
X300Y1432D02*
X362Y1432D01*
X1400Y1432D02*
X1461Y1432D01*
X299Y1431D02*
X363Y1431D01*
X1399Y1431D02*
X1462Y1431D01*
X298Y1430D02*
X364Y1430D01*
X1398Y1430D02*
X1463Y1430D01*
X298Y1429D02*
X364Y1429D01*
X1397Y1429D02*
X1464Y1429D01*
X297Y1428D02*
X365Y1428D01*
X1396Y1428D02*
X1465Y1428D01*
X296Y1427D02*
X366Y1427D01*
X1395Y1427D02*
X1465Y1427D01*
X295Y1426D02*
X367Y1426D01*
X1395Y1426D02*
X1466Y1426D01*
X295Y1425D02*
X367Y1425D01*
X1394Y1425D02*
X1467Y1425D01*
X294Y1424D02*
X368Y1424D01*
X1393Y1424D02*
X1467Y1424D01*
X294Y1423D02*
X369Y1423D01*
X1393Y1423D02*
X1468Y1423D01*
X293Y1422D02*
X369Y1422D01*
X1392Y1422D02*
X1469Y1422D01*
X292Y1421D02*
X370Y1421D01*
X1392Y1421D02*
X1469Y1421D01*
X292Y1420D02*
X370Y1420D01*
X1391Y1420D02*
X1470Y1420D01*
X291Y1419D02*
X371Y1419D01*
X1391Y1419D02*
X1470Y1419D01*
X291Y1418D02*
X371Y1418D01*
X1390Y1418D02*
X1470Y1418D01*
X291Y1417D02*
X371Y1417D01*
X1390Y1417D02*
X1471Y1417D01*
X290Y1416D02*
X372Y1416D01*
X1390Y1416D02*
X1471Y1416D01*
X290Y1415D02*
X372Y1415D01*
X1389Y1415D02*
X1472Y1415D01*
X290Y1414D02*
X372Y1414D01*
X1389Y1414D02*
X1472Y1414D01*
X289Y1413D02*
X373Y1413D01*
X1389Y1413D02*
X1472Y1413D01*
X289Y1412D02*
X373Y1412D01*
X1388Y1412D02*
X1472Y1412D01*
X289Y1411D02*
X373Y1411D01*
X1388Y1411D02*
X1473Y1411D01*
X289Y1410D02*
X373Y1410D01*
X1388Y1410D02*
X1473Y1410D01*
X288Y1409D02*
X374Y1409D01*
X1388Y1409D02*
X1473Y1409D01*
X288Y1408D02*
X374Y1408D01*
X1388Y1408D02*
X1473Y1408D01*
X288Y1407D02*
X374Y1407D01*
X1387Y1407D02*
X1473Y1407D01*
X288Y1406D02*
X374Y1406D01*
X1387Y1406D02*
X1473Y1406D01*
X288Y1405D02*
X374Y1405D01*
X1387Y1405D02*
X1474Y1405D01*
X288Y1404D02*
X374Y1404D01*
X1387Y1404D02*
X1474Y1404D01*
X288Y1403D02*
X374Y1403D01*
X1387Y1403D02*
X1474Y1403D01*
X288Y1402D02*
X374Y1402D01*
X1387Y1402D02*
X1474Y1402D01*
X288Y1401D02*
X374Y1401D01*
X1387Y1401D02*
X1474Y1401D01*
X288Y1400D02*
X374Y1400D01*
X1387Y1400D02*
X1474Y1400D01*
X288Y1399D02*
X374Y1399D01*
X1387Y1399D02*
X1474Y1399D01*
X288Y1398D02*
X374Y1398D01*
X1387Y1398D02*
X1474Y1398D01*
X288Y1397D02*
X374Y1397D01*
X1387Y1397D02*
X1474Y1397D01*
X288Y1396D02*
X374Y1396D01*
X1387Y1396D02*
X1473Y1396D01*
X288Y1395D02*
X374Y1395D01*
X1388Y1395D02*
X1473Y1395D01*
X288Y1394D02*
X374Y1394D01*
X1388Y1394D02*
X1473Y1394D01*
X289Y1393D02*
X374Y1393D01*
X1388Y1393D02*
X1473Y1393D01*
X289Y1392D02*
X373Y1392D01*
X1388Y1392D02*
X1473Y1392D01*
X289Y1391D02*
X373Y1391D01*
X1388Y1391D02*
X1472Y1391D01*
X289Y1390D02*
X373Y1390D01*
X1389Y1390D02*
X1472Y1390D01*
X289Y1389D02*
X373Y1389D01*
X1389Y1389D02*
X1472Y1389D01*
X290Y1388D02*
X372Y1388D01*
X1389Y1388D02*
X1472Y1388D01*
X290Y1387D02*
X372Y1387D01*
X1389Y1387D02*
X1471Y1387D01*
X290Y1386D02*
X372Y1386D01*
X1390Y1386D02*
X1471Y1386D01*
X291Y1385D02*
X371Y1385D01*
X1390Y1385D02*
X1471Y1385D01*
X291Y1384D02*
X371Y1384D01*
X1391Y1384D02*
X1470Y1384D01*
X292Y1383D02*
X370Y1383D01*
X1391Y1383D02*
X1470Y1383D01*
X292Y1382D02*
X370Y1382D01*
X1392Y1382D02*
X1469Y1382D01*
X293Y1381D02*
X369Y1381D01*
X1392Y1381D02*
X1469Y1381D01*
X293Y1380D02*
X369Y1380D01*
X1393Y1380D02*
X1468Y1380D01*
X294Y1379D02*
X368Y1379D01*
X1393Y1379D02*
X1468Y1379D01*
X294Y1378D02*
X368Y1378D01*
X1394Y1378D02*
X1467Y1378D01*
X295Y1377D02*
X367Y1377D01*
X1394Y1377D02*
X1466Y1377D01*
X296Y1376D02*
X366Y1376D01*
X1395Y1376D02*
X1466Y1376D01*
X296Y1375D02*
X366Y1375D01*
X1396Y1375D02*
X1465Y1375D01*
X297Y1374D02*
X365Y1374D01*
X1397Y1374D02*
X1464Y1374D01*
X298Y1373D02*
X364Y1373D01*
X1397Y1373D02*
X1463Y1373D01*
X299Y1372D02*
X363Y1372D01*
X1398Y1372D02*
X1463Y1372D01*
X300Y1371D02*
X362Y1371D01*
X1399Y1371D02*
X1462Y1371D01*
X301Y1370D02*
X361Y1370D01*
X1400Y1370D02*
X1461Y1370D01*
X302Y1369D02*
X360Y1369D01*
X1401Y1369D02*
X1460Y1369D01*
X303Y1368D02*
X359Y1368D01*
X1402Y1368D02*
X1458Y1368D01*
X304Y1367D02*
X358Y1367D01*
X1404Y1367D02*
X1457Y1367D01*
X306Y1366D02*
X357Y1366D01*
X1405Y1366D02*
X1456Y1366D01*
X307Y1365D02*
X355Y1365D01*
X1406Y1365D02*
X1455Y1365D01*
X308Y1364D02*
X354Y1364D01*
X1408Y1364D02*
X1453Y1364D01*
X310Y1363D02*
X352Y1363D01*
X1409Y1363D02*
X1451Y1363D01*
X312Y1362D02*
X350Y1362D01*
X1411Y1362D02*
X1449Y1362D01*
X314Y1361D02*
X348Y1361D01*
X1413Y1361D02*
X1447Y1361D01*
X317Y1360D02*
X345Y1360D01*
X1416Y1360D02*
X1445Y1360D01*
X320Y1359D02*
X342Y1359D01*
X1419Y1359D02*
X1442Y1359D01*
X325Y1358D02*
X338Y1358D01*
X1424Y1358D02*
X1437Y1358D01*
X328Y1345D02*
X334Y1345D01*
X1428Y1345D02*
X1433Y1345D01*
X322Y1344D02*
X340Y1344D01*
X1421Y1344D02*
X1440Y1344D01*
X318Y1343D02*
X344Y1343D01*
X1417Y1343D02*
X1443Y1343D01*
X315Y1342D02*
X347Y1342D01*
X1415Y1342D02*
X1446Y1342D01*
X313Y1341D02*
X349Y1341D01*
X1412Y1341D02*
X1448Y1341D01*
X311Y1340D02*
X351Y1340D01*
X1410Y1340D02*
X1451Y1340D01*
X309Y1339D02*
X353Y1339D01*
X1409Y1339D02*
X1452Y1339D01*
X308Y1338D02*
X354Y1338D01*
X1407Y1338D02*
X1454Y1338D01*
X306Y1337D02*
X356Y1337D01*
X1406Y1337D02*
X1455Y1337D01*
X305Y1336D02*
X357Y1336D01*
X1404Y1336D02*
X1457Y1336D01*
X303Y1335D02*
X359Y1335D01*
X1403Y1335D02*
X1458Y1335D01*
X302Y1334D02*
X360Y1334D01*
X1402Y1334D02*
X1459Y1334D01*
X301Y1333D02*
X361Y1333D01*
X1401Y1333D02*
X1460Y1333D01*
X300Y1332D02*
X362Y1332D01*
X1400Y1332D02*
X1461Y1332D01*
X299Y1331D02*
X363Y1331D01*
X1399Y1331D02*
X1462Y1331D01*
X298Y1330D02*
X364Y1330D01*
X1398Y1330D02*
X1463Y1330D01*
X298Y1329D02*
X364Y1329D01*
X1397Y1329D02*
X1464Y1329D01*
X297Y1328D02*
X365Y1328D01*
X1396Y1328D02*
X1465Y1328D01*
X296Y1327D02*
X366Y1327D01*
X1395Y1327D02*
X1465Y1327D01*
X295Y1326D02*
X367Y1326D01*
X1395Y1326D02*
X1466Y1326D01*
X295Y1325D02*
X367Y1325D01*
X1394Y1325D02*
X1467Y1325D01*
X294Y1324D02*
X368Y1324D01*
X1393Y1324D02*
X1467Y1324D01*
X293Y1323D02*
X369Y1323D01*
X1393Y1323D02*
X1468Y1323D01*
X293Y1322D02*
X369Y1322D01*
X1392Y1322D02*
X1469Y1322D01*
X292Y1321D02*
X370Y1321D01*
X1392Y1321D02*
X1469Y1321D01*
X292Y1320D02*
X370Y1320D01*
X1391Y1320D02*
X1470Y1320D01*
X291Y1319D02*
X371Y1319D01*
X1391Y1319D02*
X1470Y1319D01*
X291Y1318D02*
X371Y1318D01*
X1390Y1318D02*
X1470Y1318D01*
X291Y1317D02*
X371Y1317D01*
X1390Y1317D02*
X1471Y1317D01*
X290Y1316D02*
X372Y1316D01*
X1390Y1316D02*
X1471Y1316D01*
X290Y1315D02*
X372Y1315D01*
X1389Y1315D02*
X1472Y1315D01*
X290Y1314D02*
X372Y1314D01*
X1389Y1314D02*
X1472Y1314D01*
X289Y1313D02*
X373Y1313D01*
X1389Y1313D02*
X1472Y1313D01*
X289Y1312D02*
X373Y1312D01*
X1388Y1312D02*
X1472Y1312D01*
X289Y1311D02*
X373Y1311D01*
X1388Y1311D02*
X1473Y1311D01*
X289Y1310D02*
X373Y1310D01*
X1388Y1310D02*
X1473Y1310D01*
X288Y1309D02*
X374Y1309D01*
X1388Y1309D02*
X1473Y1309D01*
X288Y1308D02*
X374Y1308D01*
X1388Y1308D02*
X1473Y1308D01*
X288Y1307D02*
X374Y1307D01*
X1387Y1307D02*
X1473Y1307D01*
X288Y1306D02*
X374Y1306D01*
X1387Y1306D02*
X1473Y1306D01*
X288Y1305D02*
X374Y1305D01*
X1387Y1305D02*
X1474Y1305D01*
X288Y1304D02*
X374Y1304D01*
X1387Y1304D02*
X1474Y1304D01*
X288Y1303D02*
X374Y1303D01*
X1387Y1303D02*
X1474Y1303D01*
X288Y1302D02*
X374Y1302D01*
X1387Y1302D02*
X1474Y1302D01*
X288Y1301D02*
X374Y1301D01*
X1387Y1301D02*
X1474Y1301D01*
X288Y1300D02*
X374Y1300D01*
X1387Y1300D02*
X1474Y1300D01*
X288Y1299D02*
X374Y1299D01*
X1387Y1299D02*
X1474Y1299D01*
X288Y1298D02*
X374Y1298D01*
X1387Y1298D02*
X1474Y1298D01*
X288Y1297D02*
X374Y1297D01*
X1387Y1297D02*
X1474Y1297D01*
X288Y1296D02*
X374Y1296D01*
X1387Y1296D02*
X1473Y1296D01*
X288Y1295D02*
X374Y1295D01*
X1388Y1295D02*
X1473Y1295D01*
X288Y1294D02*
X374Y1294D01*
X1388Y1294D02*
X1473Y1294D01*
X289Y1293D02*
X374Y1293D01*
X1388Y1293D02*
X1473Y1293D01*
X289Y1292D02*
X373Y1292D01*
X1388Y1292D02*
X1473Y1292D01*
X289Y1291D02*
X373Y1291D01*
X1388Y1291D02*
X1472Y1291D01*
X289Y1290D02*
X373Y1290D01*
X1389Y1290D02*
X1472Y1290D01*
X289Y1289D02*
X373Y1289D01*
X1389Y1289D02*
X1472Y1289D01*
X290Y1288D02*
X372Y1288D01*
X1389Y1288D02*
X1472Y1288D01*
X290Y1287D02*
X372Y1287D01*
X1389Y1287D02*
X1471Y1287D01*
X290Y1286D02*
X372Y1286D01*
X1390Y1286D02*
X1471Y1286D01*
X291Y1285D02*
X371Y1285D01*
X1390Y1285D02*
X1471Y1285D01*
X291Y1284D02*
X371Y1284D01*
X1391Y1284D02*
X1470Y1284D01*
X292Y1283D02*
X370Y1283D01*
X1391Y1283D02*
X1470Y1283D01*
X292Y1282D02*
X370Y1282D01*
X1392Y1282D02*
X1469Y1282D01*
X293Y1281D02*
X369Y1281D01*
X1392Y1281D02*
X1469Y1281D01*
X293Y1280D02*
X369Y1280D01*
X1393Y1280D02*
X1468Y1280D01*
X294Y1279D02*
X368Y1279D01*
X1393Y1279D02*
X1468Y1279D01*
X294Y1278D02*
X368Y1278D01*
X1394Y1278D02*
X1467Y1278D01*
X295Y1277D02*
X367Y1277D01*
X1394Y1277D02*
X1466Y1277D01*
X296Y1276D02*
X366Y1276D01*
X1395Y1276D02*
X1466Y1276D01*
X296Y1275D02*
X366Y1275D01*
X1396Y1275D02*
X1465Y1275D01*
X297Y1274D02*
X365Y1274D01*
X1397Y1274D02*
X1464Y1274D01*
X298Y1273D02*
X364Y1273D01*
X1397Y1273D02*
X1463Y1273D01*
X299Y1272D02*
X363Y1272D01*
X1398Y1272D02*
X1463Y1272D01*
X300Y1271D02*
X362Y1271D01*
X1399Y1271D02*
X1462Y1271D01*
X301Y1270D02*
X361Y1270D01*
X1400Y1270D02*
X1461Y1270D01*
X302Y1269D02*
X360Y1269D01*
X1401Y1269D02*
X1460Y1269D01*
X303Y1268D02*
X359Y1268D01*
X1402Y1268D02*
X1458Y1268D01*
X304Y1267D02*
X358Y1267D01*
X1404Y1267D02*
X1457Y1267D01*
X306Y1266D02*
X356Y1266D01*
X1405Y1266D02*
X1456Y1266D01*
X307Y1265D02*
X355Y1265D01*
X1406Y1265D02*
X1454Y1265D01*
X309Y1264D02*
X354Y1264D01*
X1408Y1264D02*
X1453Y1264D01*
X310Y1263D02*
X352Y1263D01*
X1410Y1263D02*
X1451Y1263D01*
X312Y1262D02*
X350Y1262D01*
X1411Y1262D02*
X1449Y1262D01*
X314Y1261D02*
X348Y1261D01*
X1413Y1261D02*
X1447Y1261D01*
X317Y1260D02*
X345Y1260D01*
X1416Y1260D02*
X1445Y1260D01*
X320Y1259D02*
X342Y1259D01*
X1419Y1259D02*
X1441Y1259D01*
X325Y1258D02*
X337Y1258D01*
X1424Y1258D02*
X1437Y1258D01*
X327Y1245D02*
X335Y1245D01*
X1427Y1245D02*
X1434Y1245D01*
X322Y1244D02*
X340Y1244D01*
X1421Y1244D02*
X1440Y1244D01*
X318Y1243D02*
X344Y1243D01*
X1417Y1243D02*
X1444Y1243D01*
X315Y1242D02*
X347Y1242D01*
X1414Y1242D02*
X1446Y1242D01*
X313Y1241D02*
X349Y1241D01*
X1412Y1241D02*
X1449Y1241D01*
X311Y1240D02*
X351Y1240D01*
X1410Y1240D02*
X1451Y1240D01*
X309Y1239D02*
X353Y1239D01*
X1409Y1239D02*
X1452Y1239D01*
X308Y1238D02*
X355Y1238D01*
X1407Y1238D02*
X1454Y1238D01*
X306Y1237D02*
X356Y1237D01*
X1405Y1237D02*
X1455Y1237D01*
X305Y1236D02*
X357Y1236D01*
X1404Y1236D02*
X1457Y1236D01*
X303Y1235D02*
X359Y1235D01*
X1403Y1235D02*
X1458Y1235D01*
X302Y1234D02*
X360Y1234D01*
X1402Y1234D02*
X1459Y1234D01*
X301Y1233D02*
X361Y1233D01*
X1401Y1233D02*
X1460Y1233D01*
X300Y1232D02*
X362Y1232D01*
X1400Y1232D02*
X1461Y1232D01*
X299Y1231D02*
X363Y1231D01*
X1399Y1231D02*
X1462Y1231D01*
X298Y1230D02*
X364Y1230D01*
X1398Y1230D02*
X1463Y1230D01*
X298Y1229D02*
X365Y1229D01*
X1397Y1229D02*
X1464Y1229D01*
X297Y1228D02*
X365Y1228D01*
X1396Y1228D02*
X1465Y1228D01*
X296Y1227D02*
X366Y1227D01*
X1395Y1227D02*
X1465Y1227D01*
X295Y1226D02*
X367Y1226D01*
X1395Y1226D02*
X1466Y1226D01*
X295Y1225D02*
X367Y1225D01*
X1394Y1225D02*
X1467Y1225D01*
X294Y1224D02*
X368Y1224D01*
X1393Y1224D02*
X1467Y1224D01*
X293Y1223D02*
X369Y1223D01*
X1393Y1223D02*
X1468Y1223D01*
X293Y1222D02*
X369Y1222D01*
X1392Y1222D02*
X1469Y1222D01*
X292Y1221D02*
X370Y1221D01*
X1392Y1221D02*
X1469Y1221D01*
X292Y1220D02*
X370Y1220D01*
X1391Y1220D02*
X1470Y1220D01*
X291Y1219D02*
X371Y1219D01*
X1391Y1219D02*
X1470Y1219D01*
X291Y1218D02*
X371Y1218D01*
X1390Y1218D02*
X1470Y1218D01*
X291Y1217D02*
X371Y1217D01*
X1390Y1217D02*
X1471Y1217D01*
X290Y1216D02*
X372Y1216D01*
X1390Y1216D02*
X1471Y1216D01*
X290Y1215D02*
X372Y1215D01*
X1389Y1215D02*
X1472Y1215D01*
X290Y1214D02*
X372Y1214D01*
X1389Y1214D02*
X1472Y1214D01*
X289Y1213D02*
X373Y1213D01*
X1389Y1213D02*
X1472Y1213D01*
X289Y1212D02*
X373Y1212D01*
X1388Y1212D02*
X1472Y1212D01*
X289Y1211D02*
X373Y1211D01*
X1388Y1211D02*
X1473Y1211D01*
X289Y1210D02*
X373Y1210D01*
X1388Y1210D02*
X1473Y1210D01*
X288Y1209D02*
X374Y1209D01*
X1388Y1209D02*
X1473Y1209D01*
X288Y1208D02*
X374Y1208D01*
X1388Y1208D02*
X1473Y1208D01*
X288Y1207D02*
X374Y1207D01*
X1387Y1207D02*
X1473Y1207D01*
X288Y1206D02*
X374Y1206D01*
X1387Y1206D02*
X1473Y1206D01*
X288Y1205D02*
X374Y1205D01*
X1387Y1205D02*
X1474Y1205D01*
X288Y1204D02*
X374Y1204D01*
X1387Y1204D02*
X1474Y1204D01*
X288Y1203D02*
X374Y1203D01*
X1387Y1203D02*
X1474Y1203D01*
X288Y1202D02*
X374Y1202D01*
X1387Y1202D02*
X1474Y1202D01*
X288Y1201D02*
X374Y1201D01*
X1387Y1201D02*
X1474Y1201D01*
X288Y1200D02*
X374Y1200D01*
X1387Y1200D02*
X1474Y1200D01*
X288Y1199D02*
X374Y1199D01*
X1387Y1199D02*
X1474Y1199D01*
X288Y1198D02*
X374Y1198D01*
X1387Y1198D02*
X1474Y1198D01*
X288Y1197D02*
X374Y1197D01*
X1387Y1197D02*
X1474Y1197D01*
X288Y1196D02*
X374Y1196D01*
X1387Y1196D02*
X1473Y1196D01*
X288Y1195D02*
X374Y1195D01*
X1388Y1195D02*
X1473Y1195D01*
X288Y1194D02*
X374Y1194D01*
X1388Y1194D02*
X1473Y1194D01*
X289Y1193D02*
X374Y1193D01*
X1388Y1193D02*
X1473Y1193D01*
X289Y1192D02*
X373Y1192D01*
X1388Y1192D02*
X1473Y1192D01*
X289Y1191D02*
X373Y1191D01*
X1388Y1191D02*
X1472Y1191D01*
X289Y1190D02*
X373Y1190D01*
X1389Y1190D02*
X1472Y1190D01*
X289Y1189D02*
X373Y1189D01*
X1389Y1189D02*
X1472Y1189D01*
X290Y1188D02*
X372Y1188D01*
X1389Y1188D02*
X1472Y1188D01*
X290Y1187D02*
X372Y1187D01*
X1389Y1187D02*
X1471Y1187D01*
X290Y1186D02*
X372Y1186D01*
X1390Y1186D02*
X1471Y1186D01*
X291Y1185D02*
X371Y1185D01*
X1390Y1185D02*
X1471Y1185D01*
X291Y1184D02*
X371Y1184D01*
X1391Y1184D02*
X1470Y1184D01*
X292Y1183D02*
X370Y1183D01*
X1391Y1183D02*
X1470Y1183D01*
X292Y1182D02*
X370Y1182D01*
X1392Y1182D02*
X1469Y1182D01*
X293Y1181D02*
X369Y1181D01*
X1392Y1181D02*
X1469Y1181D01*
X293Y1180D02*
X369Y1180D01*
X1393Y1180D02*
X1468Y1180D01*
X294Y1179D02*
X368Y1179D01*
X1393Y1179D02*
X1468Y1179D01*
X294Y1178D02*
X368Y1178D01*
X1394Y1178D02*
X1467Y1178D01*
X295Y1177D02*
X367Y1177D01*
X1394Y1177D02*
X1466Y1177D01*
X296Y1176D02*
X366Y1176D01*
X1395Y1176D02*
X1466Y1176D01*
X297Y1175D02*
X366Y1175D01*
X1396Y1175D02*
X1465Y1175D01*
X297Y1174D02*
X365Y1174D01*
X1397Y1174D02*
X1464Y1174D01*
X298Y1173D02*
X364Y1173D01*
X1397Y1173D02*
X1463Y1173D01*
X299Y1172D02*
X363Y1172D01*
X1398Y1172D02*
X1462Y1172D01*
X300Y1171D02*
X362Y1171D01*
X1399Y1171D02*
X1462Y1171D01*
X301Y1170D02*
X361Y1170D01*
X1400Y1170D02*
X1461Y1170D01*
X302Y1169D02*
X360Y1169D01*
X1401Y1169D02*
X1459Y1169D01*
X303Y1168D02*
X359Y1168D01*
X1402Y1168D02*
X1458Y1168D01*
X304Y1167D02*
X358Y1167D01*
X1404Y1167D02*
X1457Y1167D01*
X306Y1166D02*
X356Y1166D01*
X1405Y1166D02*
X1456Y1166D01*
X307Y1165D02*
X355Y1165D01*
X1406Y1165D02*
X1454Y1165D01*
X309Y1164D02*
X353Y1164D01*
X1408Y1164D02*
X1453Y1164D01*
X310Y1163D02*
X352Y1163D01*
X1410Y1163D02*
X1451Y1163D01*
X312Y1162D02*
X350Y1162D01*
X1412Y1162D02*
X1449Y1162D01*
X314Y1161D02*
X348Y1161D01*
X1414Y1161D02*
X1447Y1161D01*
X317Y1160D02*
X345Y1160D01*
X1416Y1160D02*
X1445Y1160D01*
X320Y1159D02*
X342Y1159D01*
X1420Y1159D02*
X1441Y1159D01*
X325Y1158D02*
X337Y1158D01*
X1424Y1158D02*
X1436Y1158D01*
X327Y1145D02*
X335Y1145D01*
X1426Y1145D02*
X1434Y1145D01*
X321Y1144D02*
X341Y1144D01*
X1421Y1144D02*
X1440Y1144D01*
X318Y1143D02*
X344Y1143D01*
X1417Y1143D02*
X1444Y1143D01*
X315Y1142D02*
X347Y1142D01*
X1414Y1142D02*
X1447Y1142D01*
X313Y1141D02*
X349Y1141D01*
X1412Y1141D02*
X1449Y1141D01*
X311Y1140D02*
X351Y1140D01*
X1410Y1140D02*
X1451Y1140D01*
X309Y1139D02*
X353Y1139D01*
X1408Y1139D02*
X1452Y1139D01*
X307Y1138D02*
X355Y1138D01*
X1407Y1138D02*
X1454Y1138D01*
X306Y1137D02*
X356Y1137D01*
X1405Y1137D02*
X1455Y1137D01*
X305Y1136D02*
X357Y1136D01*
X1404Y1136D02*
X1457Y1136D01*
X303Y1135D02*
X359Y1135D01*
X1403Y1135D02*
X1458Y1135D01*
X302Y1134D02*
X360Y1134D01*
X1402Y1134D02*
X1459Y1134D01*
X301Y1133D02*
X361Y1133D01*
X1400Y1133D02*
X1460Y1133D01*
X300Y1132D02*
X362Y1132D01*
X1399Y1132D02*
X1461Y1132D01*
X299Y1131D02*
X363Y1131D01*
X1399Y1131D02*
X1462Y1131D01*
X298Y1130D02*
X364Y1130D01*
X1398Y1130D02*
X1463Y1130D01*
X297Y1129D02*
X365Y1129D01*
X1397Y1129D02*
X1464Y1129D01*
X297Y1128D02*
X365Y1128D01*
X1396Y1128D02*
X1465Y1128D01*
X296Y1127D02*
X366Y1127D01*
X1395Y1127D02*
X1465Y1127D01*
X295Y1126D02*
X367Y1126D01*
X1395Y1126D02*
X1466Y1126D01*
X295Y1125D02*
X367Y1125D01*
X1394Y1125D02*
X1467Y1125D01*
X294Y1124D02*
X368Y1124D01*
X1393Y1124D02*
X1467Y1124D01*
X293Y1123D02*
X369Y1123D01*
X1393Y1123D02*
X1468Y1123D01*
X293Y1122D02*
X369Y1122D01*
X1392Y1122D02*
X1469Y1122D01*
X292Y1121D02*
X370Y1121D01*
X1392Y1121D02*
X1469Y1121D01*
X292Y1120D02*
X370Y1120D01*
X1391Y1120D02*
X1470Y1120D01*
X291Y1119D02*
X371Y1119D01*
X1391Y1119D02*
X1470Y1119D01*
X291Y1118D02*
X371Y1118D01*
X1390Y1118D02*
X1470Y1118D01*
X291Y1117D02*
X371Y1117D01*
X1390Y1117D02*
X1471Y1117D01*
X290Y1116D02*
X372Y1116D01*
X1390Y1116D02*
X1471Y1116D01*
X290Y1115D02*
X372Y1115D01*
X1389Y1115D02*
X1472Y1115D01*
X290Y1114D02*
X372Y1114D01*
X1389Y1114D02*
X1472Y1114D01*
X289Y1113D02*
X373Y1113D01*
X1389Y1113D02*
X1472Y1113D01*
X289Y1112D02*
X373Y1112D01*
X1388Y1112D02*
X1472Y1112D01*
X289Y1111D02*
X373Y1111D01*
X1388Y1111D02*
X1473Y1111D01*
X289Y1110D02*
X373Y1110D01*
X1388Y1110D02*
X1473Y1110D01*
X288Y1109D02*
X374Y1109D01*
X1388Y1109D02*
X1473Y1109D01*
X288Y1108D02*
X374Y1108D01*
X1388Y1108D02*
X1473Y1108D01*
X288Y1107D02*
X374Y1107D01*
X1387Y1107D02*
X1473Y1107D01*
X288Y1106D02*
X374Y1106D01*
X1387Y1106D02*
X1473Y1106D01*
X288Y1105D02*
X374Y1105D01*
X1387Y1105D02*
X1474Y1105D01*
X288Y1104D02*
X374Y1104D01*
X1387Y1104D02*
X1474Y1104D01*
X288Y1103D02*
X374Y1103D01*
X1387Y1103D02*
X1474Y1103D01*
X288Y1102D02*
X374Y1102D01*
X1387Y1102D02*
X1474Y1102D01*
X288Y1101D02*
X374Y1101D01*
X1387Y1101D02*
X1474Y1101D01*
X288Y1100D02*
X374Y1100D01*
X1387Y1100D02*
X1474Y1100D01*
X288Y1099D02*
X374Y1099D01*
X1387Y1099D02*
X1474Y1099D01*
X288Y1098D02*
X374Y1098D01*
X1387Y1098D02*
X1474Y1098D01*
X288Y1097D02*
X374Y1097D01*
X1387Y1097D02*
X1474Y1097D01*
X288Y1096D02*
X374Y1096D01*
X1387Y1096D02*
X1473Y1096D01*
X288Y1095D02*
X374Y1095D01*
X1388Y1095D02*
X1473Y1095D01*
X288Y1094D02*
X374Y1094D01*
X1388Y1094D02*
X1473Y1094D01*
X289Y1093D02*
X374Y1093D01*
X1388Y1093D02*
X1473Y1093D01*
X289Y1092D02*
X373Y1092D01*
X1388Y1092D02*
X1473Y1092D01*
X289Y1091D02*
X373Y1091D01*
X1388Y1091D02*
X1472Y1091D01*
X289Y1090D02*
X373Y1090D01*
X1389Y1090D02*
X1472Y1090D01*
X289Y1089D02*
X373Y1089D01*
X1389Y1089D02*
X1472Y1089D01*
X290Y1088D02*
X372Y1088D01*
X1389Y1088D02*
X1472Y1088D01*
X290Y1087D02*
X372Y1087D01*
X1390Y1087D02*
X1471Y1087D01*
X290Y1086D02*
X372Y1086D01*
X1390Y1086D02*
X1471Y1086D01*
X291Y1085D02*
X371Y1085D01*
X1390Y1085D02*
X1471Y1085D01*
X291Y1084D02*
X371Y1084D01*
X1391Y1084D02*
X1470Y1084D01*
X292Y1083D02*
X370Y1083D01*
X1391Y1083D02*
X1470Y1083D01*
X292Y1082D02*
X370Y1082D01*
X1392Y1082D02*
X1469Y1082D01*
X293Y1081D02*
X369Y1081D01*
X1392Y1081D02*
X1469Y1081D01*
X293Y1080D02*
X369Y1080D01*
X1393Y1080D02*
X1468Y1080D01*
X294Y1079D02*
X368Y1079D01*
X1393Y1079D02*
X1468Y1079D01*
X294Y1078D02*
X368Y1078D01*
X1394Y1078D02*
X1467Y1078D01*
X295Y1077D02*
X367Y1077D01*
X1394Y1077D02*
X1466Y1077D01*
X296Y1076D02*
X366Y1076D01*
X1395Y1076D02*
X1466Y1076D01*
X297Y1075D02*
X365Y1075D01*
X1396Y1075D02*
X1465Y1075D01*
X297Y1074D02*
X365Y1074D01*
X1397Y1074D02*
X1464Y1074D01*
X298Y1073D02*
X364Y1073D01*
X1397Y1073D02*
X1463Y1073D01*
X299Y1072D02*
X363Y1072D01*
X1398Y1072D02*
X1462Y1072D01*
X300Y1071D02*
X362Y1071D01*
X1399Y1071D02*
X1462Y1071D01*
X301Y1070D02*
X361Y1070D01*
X1400Y1070D02*
X1461Y1070D01*
X302Y1069D02*
X360Y1069D01*
X1401Y1069D02*
X1459Y1069D01*
X303Y1068D02*
X359Y1068D01*
X1402Y1068D02*
X1458Y1068D01*
X304Y1067D02*
X358Y1067D01*
X1404Y1067D02*
X1457Y1067D01*
X306Y1066D02*
X356Y1066D01*
X1405Y1066D02*
X1456Y1066D01*
X307Y1065D02*
X355Y1065D01*
X1406Y1065D02*
X1454Y1065D01*
X309Y1064D02*
X353Y1064D01*
X1408Y1064D02*
X1453Y1064D01*
X310Y1063D02*
X352Y1063D01*
X1410Y1063D02*
X1451Y1063D01*
X312Y1062D02*
X350Y1062D01*
X1412Y1062D02*
X1449Y1062D01*
X314Y1061D02*
X348Y1061D01*
X1414Y1061D02*
X1447Y1061D01*
X317Y1060D02*
X345Y1060D01*
X1416Y1060D02*
X1444Y1060D01*
X320Y1059D02*
X342Y1059D01*
X1420Y1059D02*
X1441Y1059D01*
X325Y1058D02*
X337Y1058D01*
X1425Y1058D02*
X1436Y1058D01*
X327Y1045D02*
X335Y1045D01*
X1426Y1045D02*
X1435Y1045D01*
X321Y1044D02*
X341Y1044D01*
X1421Y1044D02*
X1440Y1044D01*
X318Y1043D02*
X345Y1043D01*
X1417Y1043D02*
X1444Y1043D01*
X315Y1042D02*
X347Y1042D01*
X1414Y1042D02*
X1447Y1042D01*
X313Y1041D02*
X349Y1041D01*
X1412Y1041D02*
X1449Y1041D01*
X311Y1040D02*
X351Y1040D01*
X1410Y1040D02*
X1451Y1040D01*
X309Y1039D02*
X353Y1039D01*
X1408Y1039D02*
X1452Y1039D01*
X307Y1038D02*
X355Y1038D01*
X1407Y1038D02*
X1454Y1038D01*
X306Y1037D02*
X356Y1037D01*
X1405Y1037D02*
X1455Y1037D01*
X305Y1036D02*
X357Y1036D01*
X1404Y1036D02*
X1457Y1036D01*
X303Y1035D02*
X359Y1035D01*
X1403Y1035D02*
X1458Y1035D01*
X302Y1034D02*
X360Y1034D01*
X1402Y1034D02*
X1459Y1034D01*
X301Y1033D02*
X361Y1033D01*
X1400Y1033D02*
X1460Y1033D01*
X300Y1032D02*
X362Y1032D01*
X1399Y1032D02*
X1461Y1032D01*
X299Y1031D02*
X363Y1031D01*
X1399Y1031D02*
X1462Y1031D01*
X298Y1030D02*
X364Y1030D01*
X1398Y1030D02*
X1463Y1030D01*
X297Y1029D02*
X365Y1029D01*
X1397Y1029D02*
X1464Y1029D01*
X297Y1028D02*
X365Y1028D01*
X1396Y1028D02*
X1465Y1028D01*
X296Y1027D02*
X366Y1027D01*
X1395Y1027D02*
X1465Y1027D01*
X295Y1026D02*
X367Y1026D01*
X1395Y1026D02*
X1466Y1026D01*
X295Y1025D02*
X367Y1025D01*
X1394Y1025D02*
X1467Y1025D01*
X294Y1024D02*
X368Y1024D01*
X1393Y1024D02*
X1467Y1024D01*
X293Y1023D02*
X369Y1023D01*
X1393Y1023D02*
X1468Y1023D01*
X293Y1022D02*
X369Y1022D01*
X1392Y1022D02*
X1469Y1022D01*
X292Y1021D02*
X370Y1021D01*
X1392Y1021D02*
X1469Y1021D01*
X292Y1020D02*
X370Y1020D01*
X1391Y1020D02*
X1470Y1020D01*
X291Y1019D02*
X371Y1019D01*
X1391Y1019D02*
X1470Y1019D01*
X291Y1018D02*
X371Y1018D01*
X1390Y1018D02*
X1471Y1018D01*
X291Y1017D02*
X372Y1017D01*
X1390Y1017D02*
X1471Y1017D01*
X290Y1016D02*
X372Y1016D01*
X1390Y1016D02*
X1471Y1016D01*
X290Y1015D02*
X372Y1015D01*
X1389Y1015D02*
X1472Y1015D01*
X290Y1014D02*
X373Y1014D01*
X1389Y1014D02*
X1472Y1014D01*
X289Y1013D02*
X373Y1013D01*
X1389Y1013D02*
X1472Y1013D01*
X289Y1012D02*
X373Y1012D01*
X1388Y1012D02*
X1472Y1012D01*
X289Y1011D02*
X373Y1011D01*
X1388Y1011D02*
X1473Y1011D01*
X289Y1010D02*
X373Y1010D01*
X1388Y1010D02*
X1473Y1010D01*
X288Y1009D02*
X374Y1009D01*
X1388Y1009D02*
X1473Y1009D01*
X288Y1008D02*
X374Y1008D01*
X1388Y1008D02*
X1473Y1008D01*
X288Y1007D02*
X374Y1007D01*
X1387Y1007D02*
X1473Y1007D01*
X288Y1006D02*
X374Y1006D01*
X1387Y1006D02*
X1473Y1006D01*
X288Y1005D02*
X374Y1005D01*
X1387Y1005D02*
X1474Y1005D01*
X288Y1004D02*
X374Y1004D01*
X1387Y1004D02*
X1474Y1004D01*
X288Y1003D02*
X374Y1003D01*
X1387Y1003D02*
X1474Y1003D01*
X288Y1002D02*
X374Y1002D01*
X1387Y1002D02*
X1474Y1002D01*
X288Y1001D02*
X374Y1001D01*
X1387Y1001D02*
X1474Y1001D01*
X288Y1000D02*
X374Y1000D01*
X1387Y1000D02*
X1474Y1000D01*
X288Y999D02*
X374Y999D01*
X1387Y999D02*
X1474Y999D01*
X288Y998D02*
X374Y998D01*
X1387Y998D02*
X1474Y998D01*
X288Y997D02*
X374Y997D01*
X1387Y997D02*
X1474Y997D01*
X288Y996D02*
X374Y996D01*
X1387Y996D02*
X1473Y996D01*
X288Y995D02*
X374Y995D01*
X1388Y995D02*
X1473Y995D01*
X288Y994D02*
X374Y994D01*
X1388Y994D02*
X1473Y994D01*
X289Y993D02*
X374Y993D01*
X1388Y993D02*
X1473Y993D01*
X289Y992D02*
X373Y992D01*
X1388Y992D02*
X1473Y992D01*
X289Y991D02*
X373Y991D01*
X1388Y991D02*
X1472Y991D01*
X289Y990D02*
X373Y990D01*
X1389Y990D02*
X1472Y990D01*
X290Y989D02*
X373Y989D01*
X1389Y989D02*
X1472Y989D01*
X290Y988D02*
X372Y988D01*
X1389Y988D02*
X1472Y988D01*
X290Y987D02*
X372Y987D01*
X1390Y987D02*
X1471Y987D01*
X290Y986D02*
X372Y986D01*
X1390Y986D02*
X1471Y986D01*
X291Y985D02*
X371Y985D01*
X1390Y985D02*
X1471Y985D01*
X291Y984D02*
X371Y984D01*
X1391Y984D02*
X1470Y984D01*
X292Y983D02*
X370Y983D01*
X1391Y983D02*
X1470Y983D01*
X292Y982D02*
X370Y982D01*
X1392Y982D02*
X1469Y982D01*
X293Y981D02*
X369Y981D01*
X1392Y981D02*
X1469Y981D01*
X293Y980D02*
X369Y980D01*
X1393Y980D02*
X1468Y980D01*
X294Y979D02*
X368Y979D01*
X1393Y979D02*
X1468Y979D01*
X295Y978D02*
X368Y978D01*
X1394Y978D02*
X1467Y978D01*
X295Y977D02*
X367Y977D01*
X1395Y977D02*
X1466Y977D01*
X296Y976D02*
X366Y976D01*
X1395Y976D02*
X1466Y976D01*
X297Y975D02*
X365Y975D01*
X1396Y975D02*
X1465Y975D01*
X297Y974D02*
X365Y974D01*
X1397Y974D02*
X1464Y974D01*
X298Y973D02*
X364Y973D01*
X1398Y973D02*
X1463Y973D01*
X299Y972D02*
X363Y972D01*
X1398Y972D02*
X1462Y972D01*
X300Y971D02*
X362Y971D01*
X1399Y971D02*
X1461Y971D01*
X301Y970D02*
X361Y970D01*
X1400Y970D02*
X1461Y970D01*
X302Y969D02*
X360Y969D01*
X1401Y969D02*
X1459Y969D01*
X303Y968D02*
X359Y968D01*
X1403Y968D02*
X1458Y968D01*
X304Y967D02*
X358Y967D01*
X1404Y967D02*
X1457Y967D01*
X306Y966D02*
X356Y966D01*
X1405Y966D02*
X1456Y966D01*
X307Y965D02*
X355Y965D01*
X1407Y965D02*
X1454Y965D01*
X309Y964D02*
X353Y964D01*
X1408Y964D02*
X1453Y964D01*
X310Y963D02*
X352Y963D01*
X1410Y963D02*
X1451Y963D01*
X312Y962D02*
X350Y962D01*
X1412Y962D02*
X1449Y962D01*
X314Y961D02*
X348Y961D01*
X1414Y961D02*
X1447Y961D01*
X317Y960D02*
X345Y960D01*
X1417Y960D02*
X1444Y960D01*
X321Y959D02*
X341Y959D01*
X1420Y959D02*
X1441Y959D01*
X326Y958D02*
X336Y958D01*
X1425Y958D02*
X1436Y958D01*
X326Y945D02*
X336Y945D01*
X1426Y945D02*
X1435Y945D01*
X321Y944D02*
X341Y944D01*
X1420Y944D02*
X1440Y944D01*
X317Y943D02*
X345Y943D01*
X1417Y943D02*
X1444Y943D01*
X315Y942D02*
X347Y942D01*
X1414Y942D02*
X1447Y942D01*
X313Y941D02*
X350Y941D01*
X1412Y941D02*
X1449Y941D01*
X311Y940D02*
X352Y940D01*
X1410Y940D02*
X1451Y940D01*
X309Y939D02*
X353Y939D01*
X1408Y939D02*
X1453Y939D01*
X307Y938D02*
X355Y938D01*
X1407Y938D02*
X1454Y938D01*
X306Y937D02*
X356Y937D01*
X1405Y937D02*
X1456Y937D01*
X305Y936D02*
X358Y936D01*
X1404Y936D02*
X1457Y936D01*
X303Y935D02*
X359Y935D01*
X1403Y935D02*
X1458Y935D01*
X302Y934D02*
X360Y934D01*
X1402Y934D02*
X1459Y934D01*
X301Y933D02*
X361Y933D01*
X1400Y933D02*
X1460Y933D01*
X300Y932D02*
X362Y932D01*
X1399Y932D02*
X1461Y932D01*
X299Y931D02*
X363Y931D01*
X1398Y931D02*
X1462Y931D01*
X298Y930D02*
X364Y930D01*
X1398Y930D02*
X1463Y930D01*
X297Y929D02*
X365Y929D01*
X1397Y929D02*
X1464Y929D01*
X297Y928D02*
X365Y928D01*
X1396Y928D02*
X1465Y928D01*
X296Y927D02*
X366Y927D01*
X1395Y927D02*
X1465Y927D01*
X295Y926D02*
X367Y926D01*
X1395Y926D02*
X1466Y926D01*
X295Y925D02*
X367Y925D01*
X1394Y925D02*
X1467Y925D01*
X294Y924D02*
X368Y924D01*
X1393Y924D02*
X1467Y924D01*
X293Y923D02*
X369Y923D01*
X1393Y923D02*
X1468Y923D01*
X293Y922D02*
X369Y922D01*
X1392Y922D02*
X1469Y922D01*
X292Y921D02*
X370Y921D01*
X1392Y921D02*
X1469Y921D01*
X292Y920D02*
X370Y920D01*
X1391Y920D02*
X1470Y920D01*
X291Y919D02*
X371Y919D01*
X1391Y919D02*
X1470Y919D01*
X291Y918D02*
X371Y918D01*
X1390Y918D02*
X1471Y918D01*
X291Y917D02*
X372Y917D01*
X1390Y917D02*
X1471Y917D01*
X290Y916D02*
X372Y916D01*
X1390Y916D02*
X1471Y916D01*
X290Y915D02*
X372Y915D01*
X1389Y915D02*
X1472Y915D01*
X290Y914D02*
X373Y914D01*
X1389Y914D02*
X1472Y914D01*
X289Y913D02*
X373Y913D01*
X1389Y913D02*
X1472Y913D01*
X289Y912D02*
X373Y912D01*
X1388Y912D02*
X1472Y912D01*
X289Y911D02*
X373Y911D01*
X1388Y911D02*
X1473Y911D01*
X289Y910D02*
X373Y910D01*
X1388Y910D02*
X1473Y910D01*
X288Y909D02*
X374Y909D01*
X1388Y909D02*
X1473Y909D01*
X288Y908D02*
X374Y908D01*
X1388Y908D02*
X1473Y908D01*
X288Y907D02*
X374Y907D01*
X1387Y907D02*
X1473Y907D01*
X288Y906D02*
X374Y906D01*
X1387Y906D02*
X1474Y906D01*
X288Y905D02*
X374Y905D01*
X1387Y905D02*
X1474Y905D01*
X288Y904D02*
X374Y904D01*
X1387Y904D02*
X1474Y904D01*
X288Y903D02*
X374Y903D01*
X1387Y903D02*
X1474Y903D01*
X288Y902D02*
X374Y902D01*
X1387Y902D02*
X1474Y902D01*
X288Y901D02*
X374Y901D01*
X1387Y901D02*
X1474Y901D01*
X288Y900D02*
X374Y900D01*
X1387Y900D02*
X1474Y900D01*
X288Y899D02*
X374Y899D01*
X1387Y899D02*
X1474Y899D01*
X288Y898D02*
X374Y898D01*
X1387Y898D02*
X1474Y898D01*
X288Y897D02*
X374Y897D01*
X1387Y897D02*
X1474Y897D01*
X288Y896D02*
X374Y896D01*
X1387Y896D02*
X1473Y896D01*
X288Y895D02*
X374Y895D01*
X1388Y895D02*
X1473Y895D01*
X288Y894D02*
X374Y894D01*
X1388Y894D02*
X1473Y894D01*
X289Y893D02*
X373Y893D01*
X1388Y893D02*
X1473Y893D01*
X289Y892D02*
X373Y892D01*
X1388Y892D02*
X1473Y892D01*
X289Y891D02*
X373Y891D01*
X1388Y891D02*
X1472Y891D01*
X289Y890D02*
X373Y890D01*
X1389Y890D02*
X1472Y890D01*
X290Y889D02*
X373Y889D01*
X1389Y889D02*
X1472Y889D01*
X290Y888D02*
X372Y888D01*
X1389Y888D02*
X1472Y888D01*
X290Y887D02*
X372Y887D01*
X1390Y887D02*
X1471Y887D01*
X291Y886D02*
X372Y886D01*
X1390Y886D02*
X1471Y886D01*
X291Y885D02*
X371Y885D01*
X1390Y885D02*
X1471Y885D01*
X291Y884D02*
X371Y884D01*
X1391Y884D02*
X1470Y884D01*
X292Y883D02*
X370Y883D01*
X1391Y883D02*
X1470Y883D01*
X292Y882D02*
X370Y882D01*
X1392Y882D02*
X1469Y882D01*
X293Y881D02*
X369Y881D01*
X1392Y881D02*
X1469Y881D01*
X293Y880D02*
X369Y880D01*
X1393Y880D02*
X1468Y880D01*
X294Y879D02*
X368Y879D01*
X1393Y879D02*
X1467Y879D01*
X295Y878D02*
X367Y878D01*
X1394Y878D02*
X1467Y878D01*
X295Y877D02*
X367Y877D01*
X1395Y877D02*
X1466Y877D01*
X296Y876D02*
X366Y876D01*
X1395Y876D02*
X1466Y876D01*
X297Y875D02*
X365Y875D01*
X1396Y875D02*
X1465Y875D01*
X297Y874D02*
X365Y874D01*
X1397Y874D02*
X1464Y874D01*
X298Y873D02*
X364Y873D01*
X1398Y873D02*
X1463Y873D01*
X299Y872D02*
X363Y872D01*
X1398Y872D02*
X1462Y872D01*
X300Y871D02*
X362Y871D01*
X1399Y871D02*
X1461Y871D01*
X301Y870D02*
X361Y870D01*
X1400Y870D02*
X1460Y870D01*
X302Y869D02*
X360Y869D01*
X1401Y869D02*
X1459Y869D01*
X303Y868D02*
X359Y868D01*
X1403Y868D02*
X1458Y868D01*
X305Y867D02*
X358Y867D01*
X1404Y867D02*
X1457Y867D01*
X306Y866D02*
X356Y866D01*
X1405Y866D02*
X1456Y866D01*
X307Y865D02*
X355Y865D01*
X1407Y865D02*
X1454Y865D01*
X309Y864D02*
X353Y864D01*
X1408Y864D02*
X1453Y864D01*
X311Y863D02*
X352Y863D01*
X1410Y863D02*
X1451Y863D01*
X312Y862D02*
X350Y862D01*
X1412Y862D02*
X1449Y862D01*
X315Y861D02*
X348Y861D01*
X1414Y861D02*
X1447Y861D01*
X317Y860D02*
X345Y860D01*
X1417Y860D02*
X1444Y860D01*
X321Y859D02*
X341Y859D01*
X1420Y859D02*
X1441Y859D01*
X326Y858D02*
X336Y858D01*
X1425Y858D02*
X1435Y858D01*
X326Y845D02*
X336Y845D01*
X1425Y845D02*
X1435Y845D01*
X321Y844D02*
X341Y844D01*
X1420Y844D02*
X1441Y844D01*
X317Y843D02*
X345Y843D01*
X1417Y843D02*
X1444Y843D01*
X315Y842D02*
X348Y842D01*
X1414Y842D02*
X1447Y842D01*
X312Y841D02*
X350Y841D01*
X1412Y841D02*
X1449Y841D01*
X310Y840D02*
X352Y840D01*
X1410Y840D02*
X1451Y840D01*
X309Y839D02*
X353Y839D01*
X1408Y839D02*
X1453Y839D01*
X307Y838D02*
X355Y838D01*
X1407Y838D02*
X1454Y838D01*
X306Y837D02*
X356Y837D01*
X1405Y837D02*
X1456Y837D01*
X304Y836D02*
X358Y836D01*
X1404Y836D02*
X1457Y836D01*
X303Y835D02*
X359Y835D01*
X1403Y835D02*
X1458Y835D01*
X302Y834D02*
X360Y834D01*
X1401Y834D02*
X1459Y834D01*
X301Y833D02*
X361Y833D01*
X1400Y833D02*
X1460Y833D01*
X300Y832D02*
X362Y832D01*
X1399Y832D02*
X1461Y832D01*
X299Y831D02*
X363Y831D01*
X1398Y831D02*
X1462Y831D01*
X298Y830D02*
X364Y830D01*
X1398Y830D02*
X1463Y830D01*
X297Y829D02*
X365Y829D01*
X1397Y829D02*
X1464Y829D01*
X297Y828D02*
X365Y828D01*
X1396Y828D02*
X1465Y828D01*
X296Y827D02*
X366Y827D01*
X1395Y827D02*
X1466Y827D01*
X295Y826D02*
X367Y826D01*
X1395Y826D02*
X1466Y826D01*
X295Y825D02*
X368Y825D01*
X1394Y825D02*
X1467Y825D01*
X294Y824D02*
X368Y824D01*
X1393Y824D02*
X1467Y824D01*
X293Y823D02*
X369Y823D01*
X1393Y823D02*
X1468Y823D01*
X293Y822D02*
X369Y822D01*
X1392Y822D02*
X1469Y822D01*
X292Y821D02*
X370Y821D01*
X1392Y821D02*
X1469Y821D01*
X292Y820D02*
X370Y820D01*
X1391Y820D02*
X1470Y820D01*
X291Y819D02*
X371Y819D01*
X1391Y819D02*
X1470Y819D01*
X291Y818D02*
X371Y818D01*
X1390Y818D02*
X1471Y818D01*
X291Y817D02*
X372Y817D01*
X1390Y817D02*
X1471Y817D01*
X290Y816D02*
X372Y816D01*
X1390Y816D02*
X1471Y816D01*
X290Y815D02*
X372Y815D01*
X1389Y815D02*
X1472Y815D01*
X290Y814D02*
X373Y814D01*
X1389Y814D02*
X1472Y814D01*
X289Y813D02*
X373Y813D01*
X1389Y813D02*
X1472Y813D01*
X289Y812D02*
X373Y812D01*
X1388Y812D02*
X1472Y812D01*
X289Y811D02*
X373Y811D01*
X1388Y811D02*
X1473Y811D01*
X289Y810D02*
X373Y810D01*
X1388Y810D02*
X1473Y810D01*
X288Y809D02*
X374Y809D01*
X1388Y809D02*
X1473Y809D01*
X288Y808D02*
X374Y808D01*
X1388Y808D02*
X1473Y808D01*
X288Y807D02*
X374Y807D01*
X1387Y807D02*
X1473Y807D01*
X288Y806D02*
X374Y806D01*
X1387Y806D02*
X1474Y806D01*
X288Y805D02*
X374Y805D01*
X1387Y805D02*
X1474Y805D01*
X288Y804D02*
X374Y804D01*
X1387Y804D02*
X1474Y804D01*
X288Y803D02*
X374Y803D01*
X1387Y803D02*
X1474Y803D01*
X288Y802D02*
X374Y802D01*
X1387Y802D02*
X1474Y802D01*
X288Y801D02*
X374Y801D01*
X1387Y801D02*
X1474Y801D01*
X288Y800D02*
X374Y800D01*
X1387Y800D02*
X1474Y800D01*
X288Y799D02*
X374Y799D01*
X1387Y799D02*
X1474Y799D01*
X288Y798D02*
X374Y798D01*
X1387Y798D02*
X1474Y798D01*
X288Y797D02*
X374Y797D01*
X1387Y797D02*
X1473Y797D01*
X288Y796D02*
X374Y796D01*
X1387Y796D02*
X1473Y796D01*
X288Y795D02*
X374Y795D01*
X1388Y795D02*
X1473Y795D01*
X288Y794D02*
X374Y794D01*
X1388Y794D02*
X1473Y794D01*
X289Y793D02*
X373Y793D01*
X1388Y793D02*
X1473Y793D01*
X289Y792D02*
X373Y792D01*
X1388Y792D02*
X1473Y792D01*
X289Y791D02*
X373Y791D01*
X1388Y791D02*
X1472Y791D01*
X289Y790D02*
X373Y790D01*
X1389Y790D02*
X1472Y790D01*
X290Y789D02*
X373Y789D01*
X1389Y789D02*
X1472Y789D01*
X290Y788D02*
X372Y788D01*
X1389Y788D02*
X1472Y788D01*
X290Y787D02*
X372Y787D01*
X1390Y787D02*
X1471Y787D01*
X291Y786D02*
X372Y786D01*
X1390Y786D02*
X1471Y786D01*
X291Y785D02*
X371Y785D01*
X1390Y785D02*
X1471Y785D01*
X291Y784D02*
X371Y784D01*
X1391Y784D02*
X1470Y784D01*
X292Y783D02*
X370Y783D01*
X1391Y783D02*
X1470Y783D01*
X292Y782D02*
X370Y782D01*
X1392Y782D02*
X1469Y782D01*
X293Y781D02*
X369Y781D01*
X1392Y781D02*
X1469Y781D01*
X293Y780D02*
X369Y780D01*
X1393Y780D02*
X1468Y780D01*
X294Y779D02*
X368Y779D01*
X1393Y779D02*
X1467Y779D01*
X295Y778D02*
X367Y778D01*
X1394Y778D02*
X1467Y778D01*
X295Y777D02*
X367Y777D01*
X1395Y777D02*
X1466Y777D01*
X296Y776D02*
X366Y776D01*
X1395Y776D02*
X1465Y776D01*
X297Y775D02*
X365Y775D01*
X1396Y775D02*
X1465Y775D01*
X297Y774D02*
X365Y774D01*
X1397Y774D02*
X1464Y774D01*
X298Y773D02*
X364Y773D01*
X1398Y773D02*
X1463Y773D01*
X299Y772D02*
X363Y772D01*
X1399Y772D02*
X1462Y772D01*
X300Y771D02*
X362Y771D01*
X1399Y771D02*
X1461Y771D01*
X301Y770D02*
X361Y770D01*
X1400Y770D02*
X1460Y770D01*
X302Y769D02*
X360Y769D01*
X1402Y769D02*
X1459Y769D01*
X303Y768D02*
X359Y768D01*
X1403Y768D02*
X1458Y768D01*
X305Y767D02*
X357Y767D01*
X1404Y767D02*
X1457Y767D01*
X306Y766D02*
X356Y766D01*
X1405Y766D02*
X1455Y766D01*
X307Y765D02*
X355Y765D01*
X1407Y765D02*
X1454Y765D01*
X309Y764D02*
X353Y764D01*
X1408Y764D02*
X1452Y764D01*
X311Y763D02*
X351Y763D01*
X1410Y763D02*
X1451Y763D01*
X313Y762D02*
X349Y762D01*
X1412Y762D02*
X1449Y762D01*
X315Y761D02*
X347Y761D01*
X1414Y761D02*
X1447Y761D01*
X318Y760D02*
X345Y760D01*
X1417Y760D02*
X1444Y760D01*
X321Y759D02*
X341Y759D01*
X1420Y759D02*
X1440Y759D01*
X326Y758D02*
X336Y758D01*
X1426Y758D02*
X1435Y758D01*
X326Y745D02*
X336Y745D01*
X1425Y745D02*
X1436Y745D01*
X321Y744D02*
X342Y744D01*
X1420Y744D02*
X1441Y744D01*
X317Y743D02*
X345Y743D01*
X1416Y743D02*
X1444Y743D01*
X314Y742D02*
X348Y742D01*
X1414Y742D02*
X1447Y742D01*
X312Y741D02*
X350Y741D01*
X1412Y741D02*
X1449Y741D01*
X310Y740D02*
X352Y740D01*
X1410Y740D02*
X1451Y740D01*
X309Y739D02*
X353Y739D01*
X1408Y739D02*
X1453Y739D01*
X307Y738D02*
X355Y738D01*
X1407Y738D02*
X1454Y738D01*
X306Y737D02*
X356Y737D01*
X1405Y737D02*
X1456Y737D01*
X304Y736D02*
X358Y736D01*
X1404Y736D02*
X1457Y736D01*
X303Y735D02*
X359Y735D01*
X1402Y735D02*
X1458Y735D01*
X302Y734D02*
X360Y734D01*
X1401Y734D02*
X1459Y734D01*
X301Y733D02*
X361Y733D01*
X1400Y733D02*
X1461Y733D01*
X300Y732D02*
X362Y732D01*
X1399Y732D02*
X1462Y732D01*
X299Y731D02*
X363Y731D01*
X1398Y731D02*
X1462Y731D01*
X298Y730D02*
X364Y730D01*
X1398Y730D02*
X1463Y730D01*
X297Y729D02*
X365Y729D01*
X1397Y729D02*
X1464Y729D01*
X297Y728D02*
X365Y728D01*
X1396Y728D02*
X1465Y728D01*
X296Y727D02*
X366Y727D01*
X1395Y727D02*
X1466Y727D01*
X295Y726D02*
X367Y726D01*
X1395Y726D02*
X1466Y726D01*
X295Y725D02*
X368Y725D01*
X1394Y725D02*
X1467Y725D01*
X294Y724D02*
X368Y724D01*
X1393Y724D02*
X1468Y724D01*
X293Y723D02*
X369Y723D01*
X1393Y723D02*
X1468Y723D01*
X293Y722D02*
X369Y722D01*
X1392Y722D02*
X1469Y722D01*
X292Y721D02*
X370Y721D01*
X1392Y721D02*
X1469Y721D01*
X292Y720D02*
X370Y720D01*
X1391Y720D02*
X1470Y720D01*
X291Y719D02*
X371Y719D01*
X1391Y719D02*
X1470Y719D01*
X291Y718D02*
X371Y718D01*
X1390Y718D02*
X1471Y718D01*
X290Y717D02*
X372Y717D01*
X1390Y717D02*
X1471Y717D01*
X290Y716D02*
X372Y716D01*
X1390Y716D02*
X1471Y716D01*
X290Y715D02*
X372Y715D01*
X1389Y715D02*
X1472Y715D01*
X290Y714D02*
X373Y714D01*
X1389Y714D02*
X1472Y714D01*
X289Y713D02*
X373Y713D01*
X1389Y713D02*
X1472Y713D01*
X289Y712D02*
X373Y712D01*
X1388Y712D02*
X1472Y712D01*
X289Y711D02*
X373Y711D01*
X1388Y711D02*
X1473Y711D01*
X289Y710D02*
X374Y710D01*
X1388Y710D02*
X1473Y710D01*
X288Y709D02*
X374Y709D01*
X1388Y709D02*
X1473Y709D01*
X288Y708D02*
X374Y708D01*
X1388Y708D02*
X1473Y708D01*
X288Y707D02*
X374Y707D01*
X1387Y707D02*
X1473Y707D01*
X288Y706D02*
X374Y706D01*
X1387Y706D02*
X1474Y706D01*
X288Y705D02*
X374Y705D01*
X1387Y705D02*
X1474Y705D01*
X288Y704D02*
X374Y704D01*
X1387Y704D02*
X1474Y704D01*
X288Y703D02*
X374Y703D01*
X1387Y703D02*
X1474Y703D01*
X288Y702D02*
X374Y702D01*
X1387Y702D02*
X1474Y702D01*
X288Y701D02*
X374Y701D01*
X1387Y701D02*
X1474Y701D01*
X288Y700D02*
X374Y700D01*
X1387Y700D02*
X1474Y700D01*
X288Y699D02*
X374Y699D01*
X1387Y699D02*
X1474Y699D01*
X288Y698D02*
X374Y698D01*
X1387Y698D02*
X1474Y698D01*
X288Y697D02*
X374Y697D01*
X1387Y697D02*
X1473Y697D01*
X288Y696D02*
X374Y696D01*
X1387Y696D02*
X1473Y696D01*
X288Y695D02*
X374Y695D01*
X1388Y695D02*
X1473Y695D01*
X288Y694D02*
X374Y694D01*
X1388Y694D02*
X1473Y694D01*
X289Y693D02*
X373Y693D01*
X1388Y693D02*
X1473Y693D01*
X289Y692D02*
X373Y692D01*
X1388Y692D02*
X1473Y692D01*
X289Y691D02*
X373Y691D01*
X1388Y691D02*
X1472Y691D01*
X289Y690D02*
X373Y690D01*
X1389Y690D02*
X1472Y690D01*
X290Y689D02*
X373Y689D01*
X1389Y689D02*
X1472Y689D01*
X290Y688D02*
X372Y688D01*
X1389Y688D02*
X1472Y688D01*
X290Y687D02*
X372Y687D01*
X1390Y687D02*
X1471Y687D01*
X291Y686D02*
X371Y686D01*
X1390Y686D02*
X1471Y686D01*
X291Y685D02*
X371Y685D01*
X1390Y685D02*
X1471Y685D01*
X291Y684D02*
X371Y684D01*
X1391Y684D02*
X1470Y684D01*
X292Y683D02*
X370Y683D01*
X1391Y683D02*
X1470Y683D01*
X292Y682D02*
X370Y682D01*
X1392Y682D02*
X1469Y682D01*
X293Y681D02*
X369Y681D01*
X1392Y681D02*
X1469Y681D01*
X293Y680D02*
X369Y680D01*
X1393Y680D02*
X1468Y680D01*
X294Y679D02*
X368Y679D01*
X1393Y679D02*
X1467Y679D01*
X295Y678D02*
X367Y678D01*
X1394Y678D02*
X1467Y678D01*
X295Y677D02*
X367Y677D01*
X1395Y677D02*
X1466Y677D01*
X296Y676D02*
X366Y676D01*
X1395Y676D02*
X1465Y676D01*
X297Y675D02*
X365Y675D01*
X1396Y675D02*
X1465Y675D01*
X297Y674D02*
X365Y674D01*
X1397Y674D02*
X1464Y674D01*
X298Y673D02*
X364Y673D01*
X1398Y673D02*
X1463Y673D01*
X299Y672D02*
X363Y672D01*
X1399Y672D02*
X1462Y672D01*
X300Y671D02*
X362Y671D01*
X1399Y671D02*
X1461Y671D01*
X301Y670D02*
X361Y670D01*
X1400Y670D02*
X1460Y670D01*
X302Y669D02*
X360Y669D01*
X1402Y669D02*
X1459Y669D01*
X303Y668D02*
X359Y668D01*
X1403Y668D02*
X1458Y668D01*
X305Y667D02*
X357Y667D01*
X1404Y667D02*
X1457Y667D01*
X306Y666D02*
X356Y666D01*
X1405Y666D02*
X1455Y666D01*
X307Y665D02*
X355Y665D01*
X1407Y665D02*
X1454Y665D01*
X309Y664D02*
X353Y664D01*
X1408Y664D02*
X1452Y664D01*
X311Y663D02*
X351Y663D01*
X1410Y663D02*
X1451Y663D01*
X313Y662D02*
X349Y662D01*
X1412Y662D02*
X1449Y662D01*
X315Y661D02*
X347Y661D01*
X1414Y661D02*
X1447Y661D01*
X318Y660D02*
X344Y660D01*
X1417Y660D02*
X1444Y660D01*
X321Y659D02*
X341Y659D01*
X1421Y659D02*
X1440Y659D01*
X327Y658D02*
X335Y658D01*
X1426Y658D02*
X1435Y658D01*
X325Y645D02*
X337Y645D01*
X1425Y645D02*
X1436Y645D01*
X320Y644D02*
X342Y644D01*
X1420Y644D02*
X1441Y644D01*
X317Y643D02*
X345Y643D01*
X1416Y643D02*
X1444Y643D01*
X314Y642D02*
X348Y642D01*
X1414Y642D02*
X1447Y642D01*
X312Y641D02*
X350Y641D01*
X1412Y641D02*
X1449Y641D01*
X310Y640D02*
X352Y640D01*
X1410Y640D02*
X1451Y640D01*
X309Y639D02*
X353Y639D01*
X1408Y639D02*
X1453Y639D01*
X307Y638D02*
X355Y638D01*
X1406Y638D02*
X1454Y638D01*
X306Y637D02*
X356Y637D01*
X1405Y637D02*
X1456Y637D01*
X304Y636D02*
X358Y636D01*
X1404Y636D02*
X1457Y636D01*
X303Y635D02*
X359Y635D01*
X1402Y635D02*
X1458Y635D01*
X302Y634D02*
X360Y634D01*
X1401Y634D02*
X1459Y634D01*
X301Y633D02*
X361Y633D01*
X1400Y633D02*
X1461Y633D01*
X300Y632D02*
X362Y632D01*
X1399Y632D02*
X1462Y632D01*
X299Y631D02*
X363Y631D01*
X1398Y631D02*
X1462Y631D01*
X298Y630D02*
X364Y630D01*
X1397Y630D02*
X1463Y630D01*
X297Y629D02*
X365Y629D01*
X1397Y629D02*
X1464Y629D01*
X297Y628D02*
X365Y628D01*
X1396Y628D02*
X1465Y628D01*
X296Y627D02*
X366Y627D01*
X1395Y627D02*
X1466Y627D01*
X295Y626D02*
X367Y626D01*
X1394Y626D02*
X1466Y626D01*
X294Y625D02*
X368Y625D01*
X1394Y625D02*
X1467Y625D01*
X294Y624D02*
X368Y624D01*
X1393Y624D02*
X1468Y624D01*
X293Y623D02*
X369Y623D01*
X1393Y623D02*
X1468Y623D01*
X293Y622D02*
X369Y622D01*
X1392Y622D02*
X1469Y622D01*
X292Y621D02*
X370Y621D01*
X1392Y621D02*
X1469Y621D01*
X292Y620D02*
X370Y620D01*
X1391Y620D02*
X1470Y620D01*
X291Y619D02*
X371Y619D01*
X1391Y619D02*
X1470Y619D01*
X291Y618D02*
X371Y618D01*
X1390Y618D02*
X1471Y618D01*
X290Y617D02*
X372Y617D01*
X1390Y617D02*
X1471Y617D01*
X290Y616D02*
X372Y616D01*
X1389Y616D02*
X1471Y616D01*
X290Y615D02*
X372Y615D01*
X1389Y615D02*
X1472Y615D01*
X289Y614D02*
X373Y614D01*
X1389Y614D02*
X1472Y614D01*
X289Y613D02*
X373Y613D01*
X1389Y613D02*
X1472Y613D01*
X289Y612D02*
X373Y612D01*
X1388Y612D02*
X1472Y612D01*
X289Y611D02*
X373Y611D01*
X1388Y611D02*
X1473Y611D01*
X289Y610D02*
X374Y610D01*
X1388Y610D02*
X1473Y610D01*
X288Y609D02*
X374Y609D01*
X1388Y609D02*
X1473Y609D01*
X288Y608D02*
X374Y608D01*
X1388Y608D02*
X1473Y608D01*
X288Y607D02*
X374Y607D01*
X1387Y607D02*
X1473Y607D01*
X288Y606D02*
X374Y606D01*
X1387Y606D02*
X1474Y606D01*
X288Y605D02*
X374Y605D01*
X1387Y605D02*
X1474Y605D01*
X288Y604D02*
X374Y604D01*
X1387Y604D02*
X1474Y604D01*
X288Y603D02*
X374Y603D01*
X1387Y603D02*
X1474Y603D01*
X288Y602D02*
X374Y602D01*
X1387Y602D02*
X1474Y602D01*
X288Y601D02*
X374Y601D01*
X1387Y601D02*
X1474Y601D01*
X288Y600D02*
X374Y600D01*
X1387Y600D02*
X1474Y600D01*
X288Y599D02*
X374Y599D01*
X1387Y599D02*
X1474Y599D01*
X288Y598D02*
X374Y598D01*
X1387Y598D02*
X1474Y598D01*
X288Y597D02*
X374Y597D01*
X1387Y597D02*
X1473Y597D01*
X288Y596D02*
X374Y596D01*
X1387Y596D02*
X1473Y596D01*
X288Y595D02*
X374Y595D01*
X1388Y595D02*
X1473Y595D01*
X288Y594D02*
X374Y594D01*
X1388Y594D02*
X1473Y594D01*
X289Y593D02*
X373Y593D01*
X1388Y593D02*
X1473Y593D01*
X289Y592D02*
X373Y592D01*
X1388Y592D02*
X1473Y592D01*
X289Y591D02*
X373Y591D01*
X1388Y591D02*
X1472Y591D01*
X289Y590D02*
X373Y590D01*
X1389Y590D02*
X1472Y590D01*
X290Y589D02*
X372Y589D01*
X1389Y589D02*
X1472Y589D01*
X290Y588D02*
X372Y588D01*
X1389Y588D02*
X1472Y588D01*
X290Y587D02*
X372Y587D01*
X1390Y587D02*
X1471Y587D01*
X291Y586D02*
X371Y586D01*
X1390Y586D02*
X1471Y586D01*
X291Y585D02*
X371Y585D01*
X1390Y585D02*
X1470Y585D01*
X291Y584D02*
X371Y584D01*
X1391Y584D02*
X1470Y584D01*
X292Y583D02*
X370Y583D01*
X1391Y583D02*
X1470Y583D01*
X292Y582D02*
X370Y582D01*
X1392Y582D02*
X1469Y582D01*
X293Y581D02*
X369Y581D01*
X1392Y581D02*
X1469Y581D01*
X293Y580D02*
X369Y580D01*
X1393Y580D02*
X1468Y580D01*
X294Y579D02*
X368Y579D01*
X1393Y579D02*
X1467Y579D01*
X295Y578D02*
X367Y578D01*
X1394Y578D02*
X1467Y578D01*
X295Y577D02*
X367Y577D01*
X1395Y577D02*
X1466Y577D01*
X296Y576D02*
X366Y576D01*
X1395Y576D02*
X1465Y576D01*
X297Y575D02*
X365Y575D01*
X1396Y575D02*
X1465Y575D01*
X298Y574D02*
X365Y574D01*
X1397Y574D02*
X1464Y574D01*
X298Y573D02*
X364Y573D01*
X1398Y573D02*
X1463Y573D01*
X299Y572D02*
X363Y572D01*
X1399Y572D02*
X1462Y572D01*
X300Y571D02*
X362Y571D01*
X1399Y571D02*
X1461Y571D01*
X301Y570D02*
X361Y570D01*
X1401Y570D02*
X1460Y570D01*
X302Y569D02*
X360Y569D01*
X1402Y569D02*
X1459Y569D01*
X303Y568D02*
X359Y568D01*
X1403Y568D02*
X1458Y568D01*
X305Y567D02*
X357Y567D01*
X1404Y567D02*
X1457Y567D01*
X306Y566D02*
X356Y566D01*
X1405Y566D02*
X1455Y566D01*
X307Y565D02*
X355Y565D01*
X1407Y565D02*
X1454Y565D01*
X309Y564D02*
X353Y564D01*
X1408Y564D02*
X1452Y564D01*
X311Y563D02*
X351Y563D01*
X1410Y563D02*
X1451Y563D01*
X313Y562D02*
X349Y562D01*
X1412Y562D02*
X1449Y562D01*
X315Y561D02*
X347Y561D01*
X1414Y561D02*
X1446Y561D01*
X318Y560D02*
X344Y560D01*
X1417Y560D02*
X1444Y560D01*
X322Y559D02*
X341Y559D01*
X1421Y559D02*
X1440Y559D01*
X327Y558D02*
X335Y558D01*
X1426Y558D02*
X1434Y558D01*
X325Y545D02*
X337Y545D01*
X1424Y545D02*
X1436Y545D01*
X320Y544D02*
X342Y544D01*
X1420Y544D02*
X1441Y544D01*
X317Y543D02*
X345Y543D01*
X1416Y543D02*
X1445Y543D01*
X314Y542D02*
X348Y542D01*
X1414Y542D02*
X1447Y542D01*
X312Y541D02*
X350Y541D01*
X1411Y541D02*
X1449Y541D01*
X310Y540D02*
X352Y540D01*
X1410Y540D02*
X1451Y540D01*
X309Y539D02*
X353Y539D01*
X1408Y539D02*
X1453Y539D01*
X307Y538D02*
X355Y538D01*
X1406Y538D02*
X1454Y538D01*
X306Y537D02*
X356Y537D01*
X1405Y537D02*
X1456Y537D01*
X304Y536D02*
X358Y536D01*
X1404Y536D02*
X1457Y536D01*
X303Y535D02*
X359Y535D01*
X1402Y535D02*
X1458Y535D01*
X302Y534D02*
X360Y534D01*
X1401Y534D02*
X1460Y534D01*
X301Y533D02*
X361Y533D01*
X1400Y533D02*
X1461Y533D01*
X300Y532D02*
X362Y532D01*
X1399Y532D02*
X1462Y532D01*
X299Y531D02*
X363Y531D01*
X1398Y531D02*
X1462Y531D01*
X298Y530D02*
X364Y530D01*
X1397Y530D02*
X1463Y530D01*
X297Y529D02*
X365Y529D01*
X1397Y529D02*
X1464Y529D01*
X297Y528D02*
X366Y528D01*
X1396Y528D02*
X1465Y528D01*
X296Y527D02*
X366Y527D01*
X1395Y527D02*
X1466Y527D01*
X295Y526D02*
X367Y526D01*
X1394Y526D02*
X1466Y526D01*
X294Y525D02*
X368Y525D01*
X1394Y525D02*
X1467Y525D01*
X294Y524D02*
X368Y524D01*
X1393Y524D02*
X1468Y524D01*
X293Y523D02*
X369Y523D01*
X1393Y523D02*
X1468Y523D01*
X293Y522D02*
X369Y522D01*
X1392Y522D02*
X1469Y522D01*
X292Y521D02*
X370Y521D01*
X1392Y521D02*
X1469Y521D01*
X292Y520D02*
X370Y520D01*
X1391Y520D02*
X1470Y520D01*
X291Y519D02*
X371Y519D01*
X1391Y519D02*
X1470Y519D01*
X291Y518D02*
X371Y518D01*
X1390Y518D02*
X1471Y518D01*
X290Y517D02*
X372Y517D01*
X1390Y517D02*
X1471Y517D01*
X290Y516D02*
X372Y516D01*
X1389Y516D02*
X1471Y516D01*
X290Y515D02*
X372Y515D01*
X1389Y515D02*
X1472Y515D01*
X289Y514D02*
X373Y514D01*
X1389Y514D02*
X1472Y514D01*
X289Y513D02*
X373Y513D01*
X1389Y513D02*
X1472Y513D01*
X289Y512D02*
X373Y512D01*
X1388Y512D02*
X1472Y512D01*
X289Y511D02*
X373Y511D01*
X1388Y511D02*
X1473Y511D01*
X289Y510D02*
X374Y510D01*
X1388Y510D02*
X1473Y510D01*
X288Y509D02*
X374Y509D01*
X1388Y509D02*
X1473Y509D01*
X288Y508D02*
X374Y508D01*
X1388Y508D02*
X1473Y508D01*
X288Y507D02*
X374Y507D01*
X1387Y507D02*
X1473Y507D01*
X288Y506D02*
X374Y506D01*
X1387Y506D02*
X1474Y506D01*
X288Y505D02*
X374Y505D01*
X1387Y505D02*
X1474Y505D01*
X288Y504D02*
X374Y504D01*
X1387Y504D02*
X1474Y504D01*
X288Y503D02*
X374Y503D01*
X1387Y503D02*
X1474Y503D01*
X288Y502D02*
X374Y502D01*
X1387Y502D02*
X1474Y502D01*
X288Y501D02*
X374Y501D01*
X1387Y501D02*
X1474Y501D01*
X288Y500D02*
X374Y500D01*
X1387Y500D02*
X1474Y500D01*
X288Y499D02*
X374Y499D01*
X1387Y499D02*
X1474Y499D01*
X288Y498D02*
X374Y498D01*
X1387Y498D02*
X1474Y498D01*
X288Y497D02*
X374Y497D01*
X1387Y497D02*
X1473Y497D01*
X288Y496D02*
X374Y496D01*
X1387Y496D02*
X1473Y496D01*
X288Y495D02*
X374Y495D01*
X1388Y495D02*
X1473Y495D01*
X288Y494D02*
X374Y494D01*
X1388Y494D02*
X1473Y494D01*
X289Y493D02*
X373Y493D01*
X1388Y493D02*
X1473Y493D01*
X289Y492D02*
X373Y492D01*
X1388Y492D02*
X1473Y492D01*
X289Y491D02*
X373Y491D01*
X1388Y491D02*
X1472Y491D01*
X289Y490D02*
X373Y490D01*
X1389Y490D02*
X1472Y490D01*
X290Y489D02*
X372Y489D01*
X1389Y489D02*
X1472Y489D01*
X290Y488D02*
X372Y488D01*
X1389Y488D02*
X1472Y488D01*
X290Y487D02*
X372Y487D01*
X1390Y487D02*
X1471Y487D01*
X291Y486D02*
X371Y486D01*
X1390Y486D02*
X1471Y486D01*
X291Y485D02*
X371Y485D01*
X1390Y485D02*
X1470Y485D01*
X291Y484D02*
X371Y484D01*
X1391Y484D02*
X1470Y484D01*
X292Y483D02*
X370Y483D01*
X1391Y483D02*
X1470Y483D01*
X292Y482D02*
X370Y482D01*
X1392Y482D02*
X1469Y482D01*
X293Y481D02*
X369Y481D01*
X1392Y481D02*
X1469Y481D01*
X293Y480D02*
X369Y480D01*
X1393Y480D02*
X1468Y480D01*
X294Y479D02*
X368Y479D01*
X1393Y479D02*
X1467Y479D01*
X295Y478D02*
X367Y478D01*
X1394Y478D02*
X1467Y478D01*
X295Y477D02*
X367Y477D01*
X1395Y477D02*
X1466Y477D01*
X296Y476D02*
X366Y476D01*
X1395Y476D02*
X1465Y476D01*
X297Y475D02*
X365Y475D01*
X1396Y475D02*
X1465Y475D01*
X298Y474D02*
X364Y474D01*
X1397Y474D02*
X1464Y474D01*
X298Y473D02*
X364Y473D01*
X1398Y473D02*
X1463Y473D01*
X299Y472D02*
X363Y472D01*
X1399Y472D02*
X1462Y472D01*
X300Y471D02*
X362Y471D01*
X1400Y471D02*
X1461Y471D01*
X301Y470D02*
X361Y470D01*
X1401Y470D02*
X1460Y470D01*
X302Y469D02*
X360Y469D01*
X1402Y469D02*
X1459Y469D01*
X303Y468D02*
X359Y468D01*
X1403Y468D02*
X1458Y468D01*
X305Y467D02*
X357Y467D01*
X1404Y467D02*
X1457Y467D01*
X306Y466D02*
X356Y466D01*
X1406Y466D02*
X1455Y466D01*
X308Y465D02*
X354Y465D01*
X1407Y465D02*
X1454Y465D01*
X309Y464D02*
X353Y464D01*
X1409Y464D02*
X1452Y464D01*
X311Y463D02*
X351Y463D01*
X1410Y463D02*
X1451Y463D01*
X313Y462D02*
X349Y462D01*
X1412Y462D02*
X1449Y462D01*
X315Y461D02*
X347Y461D01*
X1414Y461D02*
X1446Y461D01*
X318Y460D02*
X344Y460D01*
X1417Y460D02*
X1444Y460D01*
X322Y459D02*
X340Y459D01*
X1421Y459D02*
X1440Y459D01*
X328Y458D02*
X334Y458D01*
X1427Y458D02*
X1434Y458D01*
X328Y445D02*
X334Y445D01*
X1428Y445D02*
X1433Y445D01*
X322Y444D02*
X340Y444D01*
X1421Y444D02*
X1440Y444D01*
X318Y443D02*
X344Y443D01*
X1417Y443D02*
X1443Y443D01*
X315Y442D02*
X347Y442D01*
X1415Y442D02*
X1446Y442D01*
X313Y441D02*
X349Y441D01*
X1412Y441D02*
X1448Y441D01*
X311Y440D02*
X351Y440D01*
X1410Y440D02*
X1451Y440D01*
X309Y439D02*
X353Y439D01*
X1409Y439D02*
X1452Y439D01*
X308Y438D02*
X354Y438D01*
X1407Y438D02*
X1454Y438D01*
X306Y437D02*
X356Y437D01*
X1406Y437D02*
X1455Y437D01*
X305Y436D02*
X357Y436D01*
X1404Y436D02*
X1457Y436D01*
X303Y435D02*
X359Y435D01*
X1403Y435D02*
X1458Y435D01*
X302Y434D02*
X360Y434D01*
X1402Y434D02*
X1459Y434D01*
X301Y433D02*
X361Y433D01*
X1401Y433D02*
X1460Y433D01*
X300Y432D02*
X362Y432D01*
X1400Y432D02*
X1461Y432D01*
X299Y431D02*
X363Y431D01*
X1399Y431D02*
X1462Y431D01*
X298Y430D02*
X364Y430D01*
X1398Y430D02*
X1463Y430D01*
X298Y429D02*
X364Y429D01*
X1397Y429D02*
X1464Y429D01*
X297Y428D02*
X365Y428D01*
X1396Y428D02*
X1465Y428D01*
X296Y427D02*
X366Y427D01*
X1395Y427D02*
X1465Y427D01*
X295Y426D02*
X367Y426D01*
X1395Y426D02*
X1466Y426D01*
X295Y425D02*
X367Y425D01*
X1394Y425D02*
X1467Y425D01*
X294Y424D02*
X368Y424D01*
X1393Y424D02*
X1467Y424D01*
X293Y423D02*
X369Y423D01*
X1393Y423D02*
X1468Y423D01*
X293Y422D02*
X369Y422D01*
X1392Y422D02*
X1469Y422D01*
X292Y421D02*
X370Y421D01*
X1392Y421D02*
X1469Y421D01*
X292Y420D02*
X370Y420D01*
X1391Y420D02*
X1470Y420D01*
X291Y419D02*
X371Y419D01*
X1391Y419D02*
X1470Y419D01*
X291Y418D02*
X371Y418D01*
X1390Y418D02*
X1470Y418D01*
X291Y417D02*
X371Y417D01*
X1390Y417D02*
X1471Y417D01*
X290Y416D02*
X372Y416D01*
X1390Y416D02*
X1471Y416D01*
X290Y415D02*
X372Y415D01*
X1389Y415D02*
X1472Y415D01*
X290Y414D02*
X372Y414D01*
X1389Y414D02*
X1472Y414D01*
X289Y413D02*
X373Y413D01*
X1389Y413D02*
X1472Y413D01*
X289Y412D02*
X373Y412D01*
X1388Y412D02*
X1472Y412D01*
X289Y411D02*
X373Y411D01*
X1388Y411D02*
X1473Y411D01*
X289Y410D02*
X373Y410D01*
X1388Y410D02*
X1473Y410D01*
X288Y409D02*
X374Y409D01*
X1388Y409D02*
X1473Y409D01*
X288Y408D02*
X374Y408D01*
X1388Y408D02*
X1473Y408D01*
X288Y407D02*
X374Y407D01*
X1387Y407D02*
X1473Y407D01*
X288Y406D02*
X374Y406D01*
X1387Y406D02*
X1473Y406D01*
X288Y405D02*
X374Y405D01*
X1387Y405D02*
X1474Y405D01*
X288Y404D02*
X374Y404D01*
X1387Y404D02*
X1474Y404D01*
X288Y403D02*
X374Y403D01*
X1387Y403D02*
X1474Y403D01*
X288Y402D02*
X374Y402D01*
X1387Y402D02*
X1474Y402D01*
X288Y401D02*
X374Y401D01*
X1387Y401D02*
X1474Y401D01*
X288Y400D02*
X374Y400D01*
X1387Y400D02*
X1474Y400D01*
X288Y399D02*
X374Y399D01*
X1387Y399D02*
X1474Y399D01*
X288Y398D02*
X374Y398D01*
X1387Y398D02*
X1474Y398D01*
X288Y397D02*
X374Y397D01*
X1387Y397D02*
X1474Y397D01*
X288Y396D02*
X374Y396D01*
X1387Y396D02*
X1473Y396D01*
X288Y395D02*
X374Y395D01*
X1388Y395D02*
X1473Y395D01*
X288Y394D02*
X374Y394D01*
X1388Y394D02*
X1473Y394D01*
X289Y393D02*
X374Y393D01*
X1388Y393D02*
X1473Y393D01*
X289Y392D02*
X373Y392D01*
X1388Y392D02*
X1473Y392D01*
X289Y391D02*
X373Y391D01*
X1388Y391D02*
X1472Y391D01*
X289Y390D02*
X373Y390D01*
X1389Y390D02*
X1472Y390D01*
X289Y389D02*
X373Y389D01*
X1389Y389D02*
X1472Y389D01*
X290Y388D02*
X372Y388D01*
X1389Y388D02*
X1472Y388D01*
X290Y387D02*
X372Y387D01*
X1389Y387D02*
X1471Y387D01*
X290Y386D02*
X372Y386D01*
X1390Y386D02*
X1471Y386D01*
X291Y385D02*
X371Y385D01*
X1390Y385D02*
X1471Y385D01*
X291Y384D02*
X371Y384D01*
X1391Y384D02*
X1470Y384D01*
X292Y383D02*
X370Y383D01*
X1391Y383D02*
X1470Y383D01*
X292Y382D02*
X370Y382D01*
X1392Y382D02*
X1469Y382D01*
X293Y381D02*
X369Y381D01*
X1392Y381D02*
X1469Y381D01*
X293Y380D02*
X369Y380D01*
X1393Y380D02*
X1468Y380D01*
X294Y379D02*
X368Y379D01*
X1393Y379D02*
X1468Y379D01*
X294Y378D02*
X368Y378D01*
X1394Y378D02*
X1467Y378D01*
X295Y377D02*
X367Y377D01*
X1394Y377D02*
X1466Y377D01*
X296Y376D02*
X366Y376D01*
X1395Y376D02*
X1466Y376D01*
X296Y375D02*
X366Y375D01*
X1396Y375D02*
X1465Y375D01*
X297Y374D02*
X365Y374D01*
X1397Y374D02*
X1464Y374D01*
X298Y373D02*
X364Y373D01*
X1397Y373D02*
X1463Y373D01*
X299Y372D02*
X363Y372D01*
X1398Y372D02*
X1463Y372D01*
X300Y371D02*
X362Y371D01*
X1399Y371D02*
X1462Y371D01*
X301Y370D02*
X361Y370D01*
X1400Y370D02*
X1461Y370D01*
X302Y369D02*
X360Y369D01*
X1401Y369D02*
X1460Y369D01*
X303Y368D02*
X359Y368D01*
X1402Y368D02*
X1458Y368D01*
X304Y367D02*
X358Y367D01*
X1404Y367D02*
X1457Y367D01*
X306Y366D02*
X356Y366D01*
X1405Y366D02*
X1456Y366D01*
X307Y365D02*
X355Y365D01*
X1406Y365D02*
X1454Y365D01*
X309Y364D02*
X354Y364D01*
X1408Y364D02*
X1453Y364D01*
X310Y363D02*
X352Y363D01*
X1410Y363D02*
X1451Y363D01*
X312Y362D02*
X350Y362D01*
X1411Y362D02*
X1449Y362D01*
X314Y361D02*
X348Y361D01*
X1413Y361D02*
X1447Y361D01*
X317Y360D02*
X345Y360D01*
X1416Y360D02*
X1445Y360D01*
X320Y359D02*
X342Y359D01*
X1419Y359D02*
X1441Y359D01*
X325Y358D02*
X337Y358D01*
X1424Y358D02*
X1437Y358D01*
X326Y345D02*
X336Y345D01*
X1426Y345D02*
X1435Y345D01*
X321Y344D02*
X341Y344D01*
X1420Y344D02*
X1440Y344D01*
X317Y343D02*
X345Y343D01*
X1417Y343D02*
X1444Y343D01*
X315Y342D02*
X347Y342D01*
X1414Y342D02*
X1447Y342D01*
X313Y341D02*
X350Y341D01*
X1412Y341D02*
X1449Y341D01*
X311Y340D02*
X352Y340D01*
X1410Y340D02*
X1451Y340D01*
X309Y339D02*
X353Y339D01*
X1408Y339D02*
X1453Y339D01*
X307Y338D02*
X355Y338D01*
X1407Y338D02*
X1454Y338D01*
X306Y337D02*
X356Y337D01*
X1405Y337D02*
X1456Y337D01*
X305Y336D02*
X358Y336D01*
X1404Y336D02*
X1457Y336D01*
X303Y335D02*
X359Y335D01*
X1403Y335D02*
X1458Y335D01*
X302Y334D02*
X360Y334D01*
X1402Y334D02*
X1459Y334D01*
X301Y333D02*
X361Y333D01*
X1400Y333D02*
X1460Y333D01*
X300Y332D02*
X362Y332D01*
X1399Y332D02*
X1461Y332D01*
X299Y331D02*
X363Y331D01*
X1398Y331D02*
X1462Y331D01*
X298Y330D02*
X364Y330D01*
X1398Y330D02*
X1463Y330D01*
X297Y329D02*
X365Y329D01*
X1397Y329D02*
X1464Y329D01*
X297Y328D02*
X365Y328D01*
X1396Y328D02*
X1465Y328D01*
X296Y327D02*
X366Y327D01*
X1395Y327D02*
X1465Y327D01*
X295Y326D02*
X367Y326D01*
X1395Y326D02*
X1466Y326D01*
X295Y325D02*
X367Y325D01*
X1394Y325D02*
X1467Y325D01*
X294Y324D02*
X368Y324D01*
X1393Y324D02*
X1467Y324D01*
X293Y323D02*
X369Y323D01*
X1393Y323D02*
X1468Y323D01*
X293Y322D02*
X369Y322D01*
X1392Y322D02*
X1469Y322D01*
X292Y321D02*
X370Y321D01*
X1392Y321D02*
X1469Y321D01*
X292Y320D02*
X370Y320D01*
X1391Y320D02*
X1470Y320D01*
X291Y319D02*
X371Y319D01*
X1391Y319D02*
X1470Y319D01*
X291Y318D02*
X371Y318D01*
X1390Y318D02*
X1471Y318D01*
X291Y317D02*
X372Y317D01*
X1390Y317D02*
X1471Y317D01*
X290Y316D02*
X372Y316D01*
X1390Y316D02*
X1471Y316D01*
X290Y315D02*
X372Y315D01*
X1389Y315D02*
X1472Y315D01*
X290Y314D02*
X373Y314D01*
X1389Y314D02*
X1472Y314D01*
X289Y313D02*
X373Y313D01*
X1389Y313D02*
X1472Y313D01*
X289Y312D02*
X373Y312D01*
X1388Y312D02*
X1472Y312D01*
X289Y311D02*
X373Y311D01*
X1388Y311D02*
X1473Y311D01*
X289Y310D02*
X373Y310D01*
X1388Y310D02*
X1473Y310D01*
X288Y309D02*
X374Y309D01*
X1388Y309D02*
X1473Y309D01*
X288Y308D02*
X374Y308D01*
X1388Y308D02*
X1473Y308D01*
X288Y307D02*
X374Y307D01*
X1387Y307D02*
X1473Y307D01*
X288Y306D02*
X374Y306D01*
X1387Y306D02*
X1474Y306D01*
X288Y305D02*
X374Y305D01*
X1387Y305D02*
X1474Y305D01*
X288Y304D02*
X374Y304D01*
X1387Y304D02*
X1474Y304D01*
X288Y303D02*
X374Y303D01*
X1387Y303D02*
X1474Y303D01*
X288Y302D02*
X374Y302D01*
X1387Y302D02*
X1474Y302D01*
X288Y301D02*
X374Y301D01*
X1387Y301D02*
X1474Y301D01*
X288Y300D02*
X374Y300D01*
X1387Y300D02*
X1474Y300D01*
X288Y299D02*
X374Y299D01*
X1387Y299D02*
X1474Y299D01*
X288Y298D02*
X374Y298D01*
X1387Y298D02*
X1474Y298D01*
X288Y297D02*
X374Y297D01*
X1387Y297D02*
X1474Y297D01*
X288Y296D02*
X374Y296D01*
X1387Y296D02*
X1473Y296D01*
X288Y295D02*
X374Y295D01*
X1388Y295D02*
X1473Y295D01*
X288Y294D02*
X374Y294D01*
X1388Y294D02*
X1473Y294D01*
X289Y293D02*
X373Y293D01*
X1388Y293D02*
X1473Y293D01*
X289Y292D02*
X373Y292D01*
X1388Y292D02*
X1473Y292D01*
X289Y291D02*
X373Y291D01*
X1388Y291D02*
X1472Y291D01*
X289Y290D02*
X373Y290D01*
X1389Y290D02*
X1472Y290D01*
X290Y289D02*
X373Y289D01*
X1389Y289D02*
X1472Y289D01*
X290Y288D02*
X372Y288D01*
X1389Y288D02*
X1472Y288D01*
X290Y287D02*
X372Y287D01*
X1390Y287D02*
X1471Y287D01*
X291Y286D02*
X372Y286D01*
X1390Y286D02*
X1471Y286D01*
X291Y285D02*
X371Y285D01*
X1390Y285D02*
X1471Y285D01*
X291Y284D02*
X371Y284D01*
X1391Y284D02*
X1470Y284D01*
X292Y283D02*
X370Y283D01*
X1391Y283D02*
X1470Y283D01*
X292Y282D02*
X370Y282D01*
X1392Y282D02*
X1469Y282D01*
X293Y281D02*
X369Y281D01*
X1392Y281D02*
X1469Y281D01*
X293Y280D02*
X369Y280D01*
X1393Y280D02*
X1468Y280D01*
X294Y279D02*
X368Y279D01*
X1393Y279D02*
X1467Y279D01*
X295Y278D02*
X367Y278D01*
X1394Y278D02*
X1467Y278D01*
X295Y277D02*
X367Y277D01*
X1395Y277D02*
X1466Y277D01*
X296Y276D02*
X366Y276D01*
X1395Y276D02*
X1466Y276D01*
X297Y275D02*
X365Y275D01*
X1396Y275D02*
X1465Y275D01*
X297Y274D02*
X365Y274D01*
X1397Y274D02*
X1464Y274D01*
X298Y273D02*
X364Y273D01*
X1398Y273D02*
X1463Y273D01*
X299Y272D02*
X363Y272D01*
X1398Y272D02*
X1462Y272D01*
X300Y271D02*
X362Y271D01*
X1399Y271D02*
X1461Y271D01*
X301Y270D02*
X361Y270D01*
X1400Y270D02*
X1460Y270D01*
X302Y269D02*
X360Y269D01*
X1401Y269D02*
X1459Y269D01*
X303Y268D02*
X359Y268D01*
X1403Y268D02*
X1458Y268D01*
X305Y267D02*
X358Y267D01*
X1404Y267D02*
X1457Y267D01*
X306Y266D02*
X356Y266D01*
X1405Y266D02*
X1456Y266D01*
X307Y265D02*
X355Y265D01*
X1407Y265D02*
X1454Y265D01*
X309Y264D02*
X353Y264D01*
X1408Y264D02*
X1453Y264D01*
X311Y263D02*
X352Y263D01*
X1410Y263D02*
X1451Y263D01*
X312Y262D02*
X350Y262D01*
X1412Y262D02*
X1449Y262D01*
X315Y261D02*
X348Y261D01*
X1414Y261D02*
X1447Y261D01*
X317Y260D02*
X345Y260D01*
X1417Y260D02*
X1444Y260D01*
X321Y259D02*
X341Y259D01*
X1420Y259D02*
X1441Y259D01*
X326Y258D02*
X336Y258D01*
X1425Y258D02*
X1435Y258D01*
X325Y245D02*
X337Y245D01*
X1424Y245D02*
X1436Y245D01*
X320Y244D02*
X342Y244D01*
X1420Y244D02*
X1441Y244D01*
X317Y243D02*
X345Y243D01*
X1416Y243D02*
X1445Y243D01*
X314Y242D02*
X348Y242D01*
X1414Y242D02*
X1447Y242D01*
X312Y241D02*
X350Y241D01*
X1411Y241D02*
X1449Y241D01*
X310Y240D02*
X352Y240D01*
X1410Y240D02*
X1451Y240D01*
X309Y239D02*
X353Y239D01*
X1408Y239D02*
X1453Y239D01*
X307Y238D02*
X355Y238D01*
X1406Y238D02*
X1454Y238D01*
X306Y237D02*
X356Y237D01*
X1405Y237D02*
X1456Y237D01*
X304Y236D02*
X358Y236D01*
X1404Y236D02*
X1457Y236D01*
X303Y235D02*
X359Y235D01*
X1402Y235D02*
X1458Y235D01*
X302Y234D02*
X360Y234D01*
X1401Y234D02*
X1460Y234D01*
X301Y233D02*
X361Y233D01*
X1400Y233D02*
X1461Y233D01*
X300Y232D02*
X362Y232D01*
X1399Y232D02*
X1462Y232D01*
X299Y231D02*
X363Y231D01*
X1398Y231D02*
X1462Y231D01*
X298Y230D02*
X364Y230D01*
X1397Y230D02*
X1463Y230D01*
X297Y229D02*
X365Y229D01*
X1397Y229D02*
X1464Y229D01*
X297Y228D02*
X366Y228D01*
X1396Y228D02*
X1465Y228D01*
X296Y227D02*
X366Y227D01*
X1395Y227D02*
X1466Y227D01*
X295Y226D02*
X367Y226D01*
X1394Y226D02*
X1466Y226D01*
X294Y225D02*
X368Y225D01*
X1394Y225D02*
X1467Y225D01*
X294Y224D02*
X368Y224D01*
X1393Y224D02*
X1468Y224D01*
X293Y223D02*
X369Y223D01*
X1393Y223D02*
X1468Y223D01*
X293Y222D02*
X369Y222D01*
X1392Y222D02*
X1469Y222D01*
X292Y221D02*
X370Y221D01*
X1392Y221D02*
X1469Y221D01*
X292Y220D02*
X370Y220D01*
X1391Y220D02*
X1470Y220D01*
X291Y219D02*
X371Y219D01*
X1391Y219D02*
X1470Y219D01*
X291Y218D02*
X371Y218D01*
X1390Y218D02*
X1471Y218D01*
X290Y217D02*
X372Y217D01*
X1390Y217D02*
X1471Y217D01*
X290Y216D02*
X372Y216D01*
X1389Y216D02*
X1471Y216D01*
X290Y215D02*
X372Y215D01*
X1389Y215D02*
X1472Y215D01*
X289Y214D02*
X373Y214D01*
X1389Y214D02*
X1472Y214D01*
X289Y213D02*
X373Y213D01*
X1389Y213D02*
X1472Y213D01*
X289Y212D02*
X373Y212D01*
X1388Y212D02*
X1472Y212D01*
X289Y211D02*
X373Y211D01*
X1388Y211D02*
X1473Y211D01*
X289Y210D02*
X374Y210D01*
X1388Y210D02*
X1473Y210D01*
X288Y209D02*
X374Y209D01*
X1388Y209D02*
X1473Y209D01*
X288Y208D02*
X374Y208D01*
X1388Y208D02*
X1473Y208D01*
X288Y207D02*
X374Y207D01*
X1387Y207D02*
X1473Y207D01*
X288Y206D02*
X374Y206D01*
X1387Y206D02*
X1474Y206D01*
X288Y205D02*
X374Y205D01*
X1387Y205D02*
X1474Y205D01*
X288Y204D02*
X374Y204D01*
X1387Y204D02*
X1474Y204D01*
X288Y203D02*
X374Y203D01*
X1387Y203D02*
X1474Y203D01*
X288Y202D02*
X374Y202D01*
X1387Y202D02*
X1474Y202D01*
X288Y201D02*
X374Y201D01*
X1387Y201D02*
X1474Y201D01*
X288Y200D02*
X374Y200D01*
X1387Y200D02*
X1474Y200D01*
X288Y199D02*
X374Y199D01*
X1387Y199D02*
X1474Y199D01*
X288Y198D02*
X374Y198D01*
X1387Y198D02*
X1474Y198D01*
X288Y197D02*
X374Y197D01*
X1387Y197D02*
X1473Y197D01*
X288Y196D02*
X374Y196D01*
X1387Y196D02*
X1473Y196D01*
X288Y195D02*
X374Y195D01*
X1388Y195D02*
X1473Y195D01*
X288Y194D02*
X374Y194D01*
X1388Y194D02*
X1473Y194D01*
X289Y193D02*
X373Y193D01*
X1388Y193D02*
X1473Y193D01*
X289Y192D02*
X373Y192D01*
X1388Y192D02*
X1473Y192D01*
X289Y191D02*
X373Y191D01*
X1388Y191D02*
X1472Y191D01*
X289Y190D02*
X373Y190D01*
X1389Y190D02*
X1472Y190D01*
X290Y189D02*
X372Y189D01*
X1389Y189D02*
X1472Y189D01*
X290Y188D02*
X372Y188D01*
X1389Y188D02*
X1472Y188D01*
X290Y187D02*
X372Y187D01*
X1390Y187D02*
X1471Y187D01*
X291Y186D02*
X371Y186D01*
X1390Y186D02*
X1471Y186D01*
X291Y185D02*
X371Y185D01*
X1390Y185D02*
X1470Y185D01*
X291Y184D02*
X371Y184D01*
X1391Y184D02*
X1470Y184D01*
X292Y183D02*
X370Y183D01*
X1391Y183D02*
X1470Y183D01*
X292Y182D02*
X370Y182D01*
X1392Y182D02*
X1469Y182D01*
X293Y181D02*
X369Y181D01*
X1392Y181D02*
X1469Y181D01*
X293Y180D02*
X369Y180D01*
X1393Y180D02*
X1468Y180D01*
X294Y179D02*
X368Y179D01*
X1393Y179D02*
X1467Y179D01*
X295Y178D02*
X367Y178D01*
X1394Y178D02*
X1467Y178D01*
X295Y177D02*
X367Y177D01*
X1395Y177D02*
X1466Y177D01*
X296Y176D02*
X366Y176D01*
X1395Y176D02*
X1465Y176D01*
X297Y175D02*
X365Y175D01*
X1396Y175D02*
X1465Y175D01*
X298Y174D02*
X365Y174D01*
X1397Y174D02*
X1464Y174D01*
X298Y173D02*
X364Y173D01*
X1398Y173D02*
X1463Y173D01*
X299Y172D02*
X363Y172D01*
X1399Y172D02*
X1462Y172D01*
X300Y171D02*
X362Y171D01*
X1400Y171D02*
X1461Y171D01*
X301Y170D02*
X361Y170D01*
X1401Y170D02*
X1460Y170D01*
X302Y169D02*
X360Y169D01*
X1402Y169D02*
X1459Y169D01*
X303Y168D02*
X359Y168D01*
X1403Y168D02*
X1458Y168D01*
X305Y167D02*
X357Y167D01*
X1404Y167D02*
X1457Y167D01*
X306Y166D02*
X356Y166D01*
X1406Y166D02*
X1455Y166D01*
X308Y165D02*
X354Y165D01*
X1407Y165D02*
X1454Y165D01*
X309Y164D02*
X353Y164D01*
X1409Y164D02*
X1452Y164D01*
X311Y163D02*
X351Y163D01*
X1410Y163D02*
X1451Y163D01*
X313Y162D02*
X349Y162D01*
X1412Y162D02*
X1449Y162D01*
X315Y161D02*
X347Y161D01*
X1414Y161D02*
X1446Y161D01*
X318Y160D02*
X344Y160D01*
X1417Y160D02*
X1444Y160D01*
X322Y159D02*
X340Y159D01*
X1421Y159D02*
X1440Y159D01*
X328Y158D02*
X334Y158D01*
X1427Y158D02*
X1434Y158D01*
X324Y145D02*
X338Y145D01*
X1423Y145D02*
X1438Y145D01*
X319Y144D02*
X343Y144D01*
X1419Y144D02*
X1442Y144D01*
X316Y143D02*
X346Y143D01*
X1416Y143D02*
X1445Y143D01*
X314Y142D02*
X348Y142D01*
X1413Y142D02*
X1448Y142D01*
X312Y141D02*
X350Y141D01*
X1411Y141D02*
X1450Y141D01*
X310Y140D02*
X352Y140D01*
X1409Y140D02*
X1452Y140D01*
X308Y139D02*
X354Y139D01*
X1408Y139D02*
X1453Y139D01*
X307Y138D02*
X355Y138D01*
X1406Y138D02*
X1455Y138D01*
X305Y137D02*
X357Y137D01*
X1405Y137D02*
X1456Y137D01*
X304Y136D02*
X358Y136D01*
X1403Y136D02*
X1457Y136D01*
X303Y135D02*
X359Y135D01*
X1402Y135D02*
X1459Y135D01*
X302Y134D02*
X360Y134D01*
X1401Y134D02*
X1460Y134D01*
X301Y133D02*
X361Y133D01*
X1400Y133D02*
X1461Y133D01*
X300Y132D02*
X362Y132D01*
X1399Y132D02*
X1462Y132D01*
X299Y131D02*
X363Y131D01*
X1398Y131D02*
X1463Y131D01*
X298Y130D02*
X364Y130D01*
X1397Y130D02*
X1464Y130D01*
X297Y129D02*
X365Y129D01*
X1396Y129D02*
X1464Y129D01*
X296Y128D02*
X366Y128D01*
X1396Y128D02*
X1465Y128D01*
X296Y127D02*
X366Y127D01*
X1395Y127D02*
X1466Y127D01*
X295Y126D02*
X367Y126D01*
X1394Y126D02*
X1466Y126D01*
X294Y125D02*
X368Y125D01*
X1394Y125D02*
X1467Y125D01*
X294Y124D02*
X368Y124D01*
X1393Y124D02*
X1468Y124D01*
X293Y123D02*
X369Y123D01*
X1392Y123D02*
X1468Y123D01*
X293Y122D02*
X369Y122D01*
X1392Y122D02*
X1469Y122D01*
X292Y121D02*
X370Y121D01*
X1391Y121D02*
X1469Y121D01*
X292Y120D02*
X370Y120D01*
X1391Y120D02*
X1470Y120D01*
X291Y119D02*
X371Y119D01*
X1390Y119D02*
X1470Y119D01*
X291Y118D02*
X371Y118D01*
X1390Y118D02*
X1471Y118D01*
X290Y117D02*
X372Y117D01*
X1390Y117D02*
X1471Y117D01*
X290Y116D02*
X372Y116D01*
X1389Y116D02*
X1471Y116D01*
X290Y115D02*
X372Y115D01*
X1389Y115D02*
X1472Y115D01*
X289Y114D02*
X373Y114D01*
X1389Y114D02*
X1472Y114D01*
X289Y113D02*
X373Y113D01*
X1389Y113D02*
X1472Y113D01*
X289Y112D02*
X373Y112D01*
X1388Y112D02*
X1472Y112D01*
X289Y111D02*
X373Y111D01*
X1388Y111D02*
X1473Y111D01*
X288Y110D02*
X374Y110D01*
X1388Y110D02*
X1473Y110D01*
X288Y109D02*
X374Y109D01*
X1388Y109D02*
X1473Y109D01*
X288Y108D02*
X374Y108D01*
X1388Y108D02*
X1473Y108D01*
X288Y107D02*
X374Y107D01*
X1387Y107D02*
X1473Y107D01*
X288Y106D02*
X374Y106D01*
X1387Y106D02*
X1474Y106D01*
X288Y105D02*
X374Y105D01*
X1387Y105D02*
X1474Y105D01*
X288Y104D02*
X374Y104D01*
X1387Y104D02*
X1474Y104D01*
X288Y103D02*
X374Y103D01*
X1387Y103D02*
X1474Y103D01*
X288Y102D02*
X374Y102D01*
X1387Y102D02*
X1474Y102D01*
X288Y101D02*
X374Y101D01*
X1387Y101D02*
X1474Y101D01*
X288Y100D02*
X374Y100D01*
X1387Y100D02*
X1474Y100D01*
X288Y99D02*
X374Y99D01*
X1387Y99D02*
X1474Y99D01*
X288Y98D02*
X374Y98D01*
X1387Y98D02*
X1474Y98D01*
X288Y97D02*
X374Y97D01*
X1387Y97D02*
X1473Y97D01*
X288Y96D02*
X374Y96D01*
X1388Y96D02*
X1473Y96D01*
X288Y95D02*
X374Y95D01*
X1388Y95D02*
X1473Y95D01*
X288Y94D02*
X374Y94D01*
X1388Y94D02*
X1473Y94D01*
X289Y93D02*
X373Y93D01*
X1388Y93D02*
X1473Y93D01*
X289Y92D02*
X373Y92D01*
X1388Y92D02*
X1473Y92D01*
X289Y91D02*
X373Y91D01*
X1388Y91D02*
X1472Y91D01*
X289Y90D02*
X373Y90D01*
X1389Y90D02*
X1472Y90D01*
X290Y89D02*
X372Y89D01*
X1389Y89D02*
X1472Y89D01*
X290Y88D02*
X372Y88D01*
X1389Y88D02*
X1471Y88D01*
X290Y87D02*
X372Y87D01*
X1390Y87D02*
X1471Y87D01*
X291Y86D02*
X371Y86D01*
X1390Y86D02*
X1471Y86D01*
X291Y85D02*
X371Y85D01*
X1390Y85D02*
X1470Y85D01*
X291Y84D02*
X371Y84D01*
X1391Y84D02*
X1470Y84D01*
X292Y83D02*
X370Y83D01*
X1391Y83D02*
X1469Y83D01*
X292Y82D02*
X370Y82D01*
X1392Y82D02*
X1469Y82D01*
X293Y81D02*
X369Y81D01*
X1392Y81D02*
X1468Y81D01*
X294Y80D02*
X368Y80D01*
X1393Y80D02*
X1468Y80D01*
X294Y79D02*
X368Y79D01*
X1394Y79D02*
X1467Y79D01*
X295Y78D02*
X367Y78D01*
X1394Y78D02*
X1467Y78D01*
X295Y77D02*
X367Y77D01*
X1395Y77D02*
X1466Y77D01*
X296Y76D02*
X366Y76D01*
X1396Y76D02*
X1465Y76D01*
X297Y75D02*
X365Y75D01*
X1396Y75D02*
X1464Y75D01*
X298Y74D02*
X364Y74D01*
X1397Y74D02*
X1464Y74D01*
X299Y73D02*
X363Y73D01*
X1398Y73D02*
X1463Y73D01*
X299Y72D02*
X363Y72D01*
X1399Y72D02*
X1462Y72D01*
X300Y71D02*
X362Y71D01*
X1400Y71D02*
X1461Y71D01*
X301Y70D02*
X361Y70D01*
X1401Y70D02*
X1460Y70D01*
X303Y69D02*
X360Y69D01*
X1402Y69D02*
X1459Y69D01*
X304Y68D02*
X358Y68D01*
X1403Y68D02*
X1458Y68D01*
X305Y67D02*
X357Y67D01*
X1404Y67D02*
X1456Y67D01*
X306Y66D02*
X356Y66D01*
X1406Y66D02*
X1455Y66D01*
X308Y65D02*
X354Y65D01*
X1407Y65D02*
X1454Y65D01*
X310Y64D02*
X353Y64D01*
X1409Y64D02*
X1452Y64D01*
X311Y63D02*
X351Y63D01*
X1411Y63D02*
X1450Y63D01*
X313Y62D02*
X349Y62D01*
X1413Y62D02*
X1448Y62D01*
X316Y61D02*
X346Y61D01*
X1415Y61D02*
X1446Y61D01*
X319Y60D02*
X344Y60D01*
X1418Y60D02*
X1443Y60D01*
X323Y59D02*
X340Y59D01*
X1422Y59D02*
X1439Y59D01*
X331Y58D02*
X331Y58D01*
D02*
G04 End of Mask0*
M02*